<mxfile host="Electron" agent="Mozilla/5.0 (Windows NT 10.0; Win64; x64) AppleWebKit/537.36 (KHTML, like Gecko) draw.io/24.7.5 Chrome/126.0.6478.183 Electron/31.3.0 Safari/537.36" version="24.7.5">
  <diagram name="Page-1" id="vj0Xac9NPToDM-CNihAY">
    <mxGraphModel dx="603" dy="830" grid="1" gridSize="10" guides="1" tooltips="1" connect="1" arrows="1" fold="1" page="1" pageScale="1" pageWidth="827" pageHeight="1169" math="0" shadow="0">
      <root>
        <mxCell id="0" />
        <mxCell id="1" parent="0" />
        <mxCell id="xKThNgZ5X1bcwjSUUy2J-3" value="To your VESC" style="swimlane;whiteSpace=wrap;html=1;" vertex="1" parent="1">
          <mxGeometry x="1220" y="80" width="510" height="250" as="geometry" />
        </mxCell>
        <mxCell id="xKThNgZ5X1bcwjSUUy2J-5" value="" style="group" vertex="1" connectable="0" parent="1">
          <mxGeometry x="1240" y="152" width="456" height="162" as="geometry" />
        </mxCell>
        <mxCell id="xKThNgZ5X1bcwjSUUy2J-6" value="" style="group;perimeterSpacing=0;strokeWidth=1;movable=1;resizable=1;rotatable=1;deletable=1;editable=1;locked=0;connectable=1;" vertex="1" connectable="0" parent="xKThNgZ5X1bcwjSUUy2J-5">
          <mxGeometry x="75" width="130" height="130" as="geometry" />
        </mxCell>
        <mxCell id="xKThNgZ5X1bcwjSUUy2J-7" value="" style="ellipse;whiteSpace=wrap;html=1;aspect=fixed;fillColor=none;strokeWidth=2;fontColor=#733a00;" vertex="1" parent="xKThNgZ5X1bcwjSUUy2J-6">
          <mxGeometry width="127.5" height="127.5" as="geometry" />
        </mxCell>
        <mxCell id="xKThNgZ5X1bcwjSUUy2J-8" value="" style="ellipse;whiteSpace=wrap;html=1;aspect=fixed;" vertex="1" parent="xKThNgZ5X1bcwjSUUy2J-6">
          <mxGeometry x="60" y="10" width="10" height="10" as="geometry" />
        </mxCell>
        <mxCell id="xKThNgZ5X1bcwjSUUy2J-9" value="" style="ellipse;whiteSpace=wrap;html=1;aspect=fixed;" vertex="1" parent="xKThNgZ5X1bcwjSUUy2J-6">
          <mxGeometry x="20" y="40" width="10" height="10" as="geometry" />
        </mxCell>
        <mxCell id="xKThNgZ5X1bcwjSUUy2J-10" value="" style="ellipse;whiteSpace=wrap;html=1;aspect=fixed;" vertex="1" parent="xKThNgZ5X1bcwjSUUy2J-6">
          <mxGeometry x="100" y="40" width="10" height="10" as="geometry" />
        </mxCell>
        <mxCell id="xKThNgZ5X1bcwjSUUy2J-11" value="" style="ellipse;whiteSpace=wrap;html=1;aspect=fixed;" vertex="1" parent="xKThNgZ5X1bcwjSUUy2J-6">
          <mxGeometry x="20" y="80" width="10" height="10" as="geometry" />
        </mxCell>
        <mxCell id="xKThNgZ5X1bcwjSUUy2J-12" value="" style="ellipse;whiteSpace=wrap;html=1;aspect=fixed;" vertex="1" parent="xKThNgZ5X1bcwjSUUy2J-6">
          <mxGeometry x="100" y="80" width="10" height="10" as="geometry" />
        </mxCell>
        <mxCell id="xKThNgZ5X1bcwjSUUy2J-13" value="" style="ellipse;whiteSpace=wrap;html=1;aspect=fixed;" vertex="1" parent="xKThNgZ5X1bcwjSUUy2J-6">
          <mxGeometry x="60" y="58.75" width="10" height="10" as="geometry" />
        </mxCell>
        <mxCell id="xKThNgZ5X1bcwjSUUy2J-14" value="" style="verticalLabelPosition=bottom;verticalAlign=top;html=1;shape=mxgraph.basic.half_circle;rotation=-180;strokeWidth=2;fillColor=none;" vertex="1" parent="xKThNgZ5X1bcwjSUUy2J-6">
          <mxGeometry x="51.25" y="107.5" width="25" height="20" as="geometry" />
        </mxCell>
        <mxCell id="xKThNgZ5X1bcwjSUUy2J-15" value="&lt;font style=&quot;font-size: 11px;&quot;&gt;3 - RXD&lt;/font&gt;" style="text;html=1;strokeColor=none;fillColor=none;align=center;verticalAlign=middle;whiteSpace=wrap;rounded=0;fontSize=9;fontColor=#CCCC00;" vertex="1" parent="xKThNgZ5X1bcwjSUUy2J-6">
          <mxGeometry x="25" y="30" width="75" height="10" as="geometry" />
        </mxCell>
        <mxCell id="xKThNgZ5X1bcwjSUUy2J-16" value="&lt;span style=&quot;font-size: 11px;&quot;&gt;&lt;font color=&quot;#007fff&quot;&gt;6 - VBAT&lt;/font&gt;&lt;/span&gt;" style="text;html=1;strokeColor=none;fillColor=none;align=center;verticalAlign=middle;whiteSpace=wrap;rounded=0;fontSize=9;fontColor=#CCCC00;" vertex="1" parent="xKThNgZ5X1bcwjSUUy2J-6">
          <mxGeometry x="27.5" y="90" width="75" height="10" as="geometry" />
        </mxCell>
        <mxCell id="xKThNgZ5X1bcwjSUUy2J-17" value="6-Pin-Julet female" style="text;html=1;strokeColor=none;fillColor=none;align=center;verticalAlign=middle;whiteSpace=wrap;rounded=0;" vertex="1" parent="xKThNgZ5X1bcwjSUUy2J-5">
          <mxGeometry x="-10" y="132" width="410" height="30" as="geometry" />
        </mxCell>
        <mxCell id="xKThNgZ5X1bcwjSUUy2J-18" value="&lt;font style=&quot;font-size: 11px;&quot;&gt;1 - TXD&lt;/font&gt;" style="text;html=1;strokeColor=none;fillColor=none;align=center;verticalAlign=middle;whiteSpace=wrap;rounded=0;fontSize=9;fontColor=#FF0000;" vertex="1" parent="xKThNgZ5X1bcwjSUUy2J-5">
          <mxGeometry y="90" width="75" height="10" as="geometry" />
        </mxCell>
        <mxCell id="xKThNgZ5X1bcwjSUUy2J-19" value="&lt;font style=&quot;font-size: 11px;&quot;&gt;2 - GND&lt;/font&gt;" style="text;html=1;strokeColor=none;fillColor=none;align=center;verticalAlign=middle;whiteSpace=wrap;rounded=0;fontSize=9;fontColor=default;" vertex="1" parent="xKThNgZ5X1bcwjSUUy2J-5">
          <mxGeometry y="30" width="75" height="10" as="geometry" />
        </mxCell>
        <mxCell id="xKThNgZ5X1bcwjSUUy2J-20" value="&lt;font color=&quot;#00ad00&quot; style=&quot;font-size: 11px;&quot;&gt;5 - VCC&lt;/font&gt;" style="text;html=1;strokeColor=none;fillColor=none;align=center;verticalAlign=middle;whiteSpace=wrap;rounded=0;fontSize=9;fontColor=default;" vertex="1" parent="xKThNgZ5X1bcwjSUUy2J-5">
          <mxGeometry x="200" y="80" width="75" height="10" as="geometry" />
        </mxCell>
        <mxCell id="xKThNgZ5X1bcwjSUUy2J-21" value="&lt;font color=&quot;#787878&quot; style=&quot;font-size: 11px;&quot;&gt;4 - SD&lt;/font&gt;" style="text;html=1;strokeColor=none;fillColor=none;align=center;verticalAlign=middle;whiteSpace=wrap;rounded=0;fontSize=9;fontColor=default;" vertex="1" parent="xKThNgZ5X1bcwjSUUy2J-5">
          <mxGeometry x="190" y="40" width="75" height="10" as="geometry" />
        </mxCell>
        <mxCell id="xKThNgZ5X1bcwjSUUy2J-4" value="" style="shape=image;verticalLabelPosition=bottom;labelBackgroundColor=default;verticalAlign=top;aspect=fixed;imageAspect=0;image=data:image/png,iVBORw0KGgoAAAANSUhEUgAAAgAAAAIACAYAAAD0eNT6AAAAAXNSR0IArs4c6QAAAARnQU1BAACxjwv8YQUAAAAJcEhZcwAADsMAAA7DAcdvqGQAAP+lSURBVHhe7P0LsG5bdt+F7XvP895uyUittl42brnberTUeiS25NgO1SooAoRKVE5QbEcFusESUEkoIAFCiiAJikeRhEcSHJAUZBeSRVFxYUl+JGUktwtKslqJsWUjWeZhRGHzCDa2rL733PO4N+M3xvyv9f/Gnuvb+9y+t/vsc+Zv77HnnGOOMeZccz3mXOt77IvFYrFYLBaLxWKxWCwWi8VisVgsFovFYrFYLBaLxWKxWCwWi8VisVgsFovFYrFYLBaLxWKxWCwWi8VisVgsFovFYrFYLBaLxWKxWCwWi8VisVgsFovFYrFYLBaLxWKxWCwWi8VisVgsFovFYrFYLBaLxWKxWCwWi8XiReXuSBeLxQvKSyNdLBbPJ/dD/qaQvzHkIyG/esjnh/zVkP8m5M+G/Hshnwj54yGLxWKxWCxuKL8l5MdC3gp5+ymERcC3hiwWi8VisbhB/MqQHw6ZTe5PI/+nkMVisVgsFjeAXx/yn4fMJvR3Iv/HkMVi8Zxya6SLxeLm8w+G/C2VvcRfDPmZkD8U8iMhLBTeCOH9AEf8ppD/T8h/mKXFYrFYLBbPJN8X0u/ivz/kN4Yc8etCfjSk+0l+ImSxWCwWi8UzjC8AflfIF4Rcl38uxCd+lw+HLBaLxWKxeEb5h0P+SMg3Z+np4CPB/3HIbAHw94QsFovFYrF4TvnfhMwWAOsTAYvFc8jLI10sFos/M9LOl4x0sVg8R6wFwGKxEEcLgF8a6WKxeI5YC4DFYiG+YqSdXxjpYrF4jlgLgMViIfgioRl/bqSLxeI5Yi0AFouF+A0j7fDPghaLxWKxWDyH/NaQ2ScA/o2QxWKxWCwWzyFfHPJfh8wWAN8YslgsFovF4jnj7wj5uZDZ5P+9IYvFYrFYLJ4TPhLyt4b8WMhs4ke+O2SxWCwWi8UNg68D/smQT5rwcb63QmYTvuRPh6yv/l0sFovF4obye0NmE/yRYP9bQhaLxQvCrZEuFovni28P+fLKXouPhfymkF8VwoLgz4csFovFYrG4YfwzIf0u/2nkD4c8zQJisVjcMPgXoIvF4vnkt4XcrewGd/h//ZBfE/LRkCMeh/wDIf9KlhaLxWKxWDw38P3//1rI7CmA5HeELBaLxWKxeA5hIcC3/s0WAH8h5HNCFovFYrFYPKf8UyGzRcC/GrJYLBaLxeI55t8NmS0CPj9ksVg8J6z/BrhYLDo/ONLO3z7SxWLxHLAWAIvFovNHRtr5spEuFovngLUAWCwWnaMvAeK/Bi4Wi+eEtQBYLBad94+084sjXSwWzwFrAbBYLDpfN9LOfzbSxWLxHLAWAIvFonO0APgzI10sFovFYvGc8UrIfxLSPwK47v4Xi8VisXgG+b+F/ImQb8vSO+d7Q/rkj/yukMVisVgsFs8Y/68QTdYsBP6ukKM3883gnwMd/U+AvxSyvgRosVgsFotnkJ8K6RP3k5B/K+RfCvnvhnxeiPOlIR8PuepfB/99IYvFYrFYLJ5B/s2Q2eTdhbv5PxnyKdOdk388ZLFYLBaLxTPK/yhkNoF/OvK/DVksFovFYvGM8xtDfl/IbDJ/Gvl3Qr4hZLFYLBaLxQ2C/+3/z4b8sZBHIbNJvst/EfLDIf/9kMVi8QLw0kgXi8XzCV/29ZtCvijkgyG/MuRXhPy3Jp8M+Q9DFovFYrFYLBaLxWKxWCwWi8VisVgsFovFYrFYLBaLxWKxWCwWi8VisVgsFovFYrFYLBaLxWKxWCwWi8VisVgsFovFYrFYLBaLxWKxWCwWi8VisVgsFovFYrFYLBaLxWKxWCwWi8VisVgsFovFYrFYLBaLxWKxWCwWi8VisVgsFovFYrFYLBaLxWKxWCwWi8VisVgsFovFYrFYLBaLxWKxWCwWi8VisVgsFovFYrFYLBaLxWKxWCwWi8VisVgsFovFYrFYLBaLxWKxWCwWi8VisVgsFovFYrFYLBaLxWKxWCwWi8VisVgsFovFYrFYLBaLxWKxWCwWi8VisVgsFovFYrFYLBaLxWKxWCwWi8VisVgsFovFYrFYLBaLxWKxWCwWi8VisVgsFovFYrFYLBaLxWKxWCwWi8VisVgsFovFYrFYLBaLxWKxWCwWi8VisVgsFovFYrFYLBadl0a6WCwWi8Vi5+Mhf1PIrwp5O+T1kL8a8udC/u2RXywWi8Vi8Rzxj4Qw6R/Jz4csFovFYrF4jviSkAchs4lf8p+F3HheHulisVgsFouLi38y5F5lD1lz52KxWCwWzxHfHDK74+/yF0IWi8VisVg8J/y7IX2y581+XfcXQxaLxWKxWDwH/D0hfaLntf7/uumQ/yJksVgsFovFDed9If9VSJ/oPxjCZN/12N541hsZFovFYvGi80+F/MrKbvwbIf+/kCdZOmV9h85isVgsFjec/05Iv8NHxC+G9DoWBjee9QRgsVgsFi8yfOyv83ePFN4aqbOeACwWi8VicYP5bSH97v6/DXH+o5Bu85dCFovFYrFY3FD4Xv8+uX9ViPMLId2mLxIWi8VisVjcEL4rpE/s/JOfzs+FdLu/EnLjeVZex7gT8qiyi8XN5aMf/ejHX3rppe8KIb1A3n777RThOulffvnli1u3bmXqdN9eBrXT26LsKLbZvvYn/sSf+N2pXCxeLD4cwqP9zmxO/NMhX1PZjV8K+RWVvbl8NhYA/IvFvznkoyG/ZsjnhfBtS/9NCKutT4T80ZB/P2SxeKb46q/+6m+P5AeYaH2S9YnXBfqkrDL45O/1Ei+/9dZbmXrs7gder3y3Uar24cmTJ5sefuZnfqacFovnix8K+R2V3fgHQ/6lyp7wJ0O+rrIbfy3kcyt7c/lMndxfHvIPhfzPQv46FNfkR0P+ryH/TpYWi88gMdHvM2HgE6PQxNonXomgXmXSPvmS+kTORA+yo6zJX6gNl6N6YgP1LqC2wduQL6j9wWuxMFhPDhY3lb8t5A9WdoPP+t+u7CX+vyF8VND55ZDPqezN5b1eALwa8i+E8BWLnw7/WMg/V9nF4t3ha77ma/JOXpMc+MQIszypJkefJEk1iUsHbt/B/vbt2yeTMPa9XU3MiiXIq03VI6pzkd7Tc/Wul4heDrvXfvqnf3otChY3gZ8J+fWV3fgbQvg/ADM+GfIbKrvxegjfHnijuXxFevf4+pDfH8Ij/neD7wn57souFk8Hk31Moj9AnklNqQRmE52DnonY/eRL6nfyHbcFYlGWvfv09md98naVl51svQ48hus73c7LnhcT3Wt//I//8bUYWDyL/AMh/2JlN3485G+q7JSfCvmNld14I4Qb3BvN8VXg0+f3hPydlT2EN1LwMYwPhXwBiiv47SH/ZmUXi/N83dd93cdjcvquEFJ/hL1NjpoIqfeJzOuUyr/XSfrr+OB2M+Qr6IPK6pPrZO9l2XRkA7N6kP+Mmf7I9oiw/0SM2/d88pOf5H09i8VnE77Xnzf+9dfuuZPnjv6Ify/kN1d240HIK5W9uexXiHcf7v7/x5Xd+C9DfjCE11+Y+P1fKn5pyLeF8D6Bb0Ax4U+F8GRhsZjysY997NtjUtse6zNhdfGJEVwv0UQucVR2u1lZUEZoQ/Sy5wW6vmjxfonu6/XU9XqVPUZHNqTXsROztofNa+upwOKzzO8K+fsqu/FPh/zjlT3kj4XwEoHzZsj9yt5cjs/sT5/vD9HXKf58yD8R8v/M0tXwjxmOdsr/NOT3VXaxKL72a7827/Zj8uFTJpcmIZ9IxZiYNvDRBOsTbZ/kwe0UR3UOOum9PddJP8u7jrYkV0H87u9l6j2O+gOMlXzQe53KCDYzW0SoDjz/Uz/1U7vRYvHewx08d/Kd6xyHPxHyzZXdeBhyr7I3l/fyJGQC/0dCeL2FL1x4WnhKwLs1O/9KyP+qsosXla/5mq9hot8mfKHJh5QJx0X4BNXzTIpHj/Jn4nE1oXp7ikNZkyVln3xB9VqouL18Zv0CL2MregwXfORHqrjqA+L6LuiJo/iKgyjfkR14PuDlge+JRcF6mWDxXsEnyf7Gym781pDZF/90/khIf48A31tzt7I3l8tn6bvLp/MFPzzqn30PwJ8J+VhlFy8S/nifCUSTiE8mPrF6vfL4alLzyY16UiZZTbTgsanvKLZ8pdMEKpFOthK35zP4grJPrvRH/ZWOvPoJXqeYiuGievVBsUE+iOpk5/a+rYpJnZjl3bbTYrwWi4H1csHi3eK1kH+9sht8EuAbK3sl/+8QvrvGOfexwRvDfpY+m/wHIXxhkPOXQz5Q2cXzjL5VLyac/FY9OJpMyFOneug21GnyUl72pLPJX/49L5RXPHCd0EQM0lNGmPgfP36cedXpC3kQ4vY+qT3ZkyoPsutf7CM9ohiKI718VK+4pNJpDGWn+l72FBgH4Xr5SaRDgrUgWLxTuEv/j0N+VZZ2+HTaf1bZK/lDIX9rZTc4kGsVfIPZz8Bnk38r5O+o7Am89sJrMIvniK/6qq/aPpffJwMYk8GhzvWaaKTXRCdxW0DH5/F9YgNNQprAe1yQbUdx8Jn5Sc/kz6RLnrpuT9+E2vI4ylOHyEdl+fSy7BQfPe32eqf7UJZ0ZOt1HhtUBreV3uzzZYKf/MmfXC8TLJ4Gvj/mH63sxr8W8vdW9lr8WMjfXtkNDszTk+MGcvmsfbb4Z0P+d5Xd4CuDn+bbBBfPOEz8cYHfPqMvcTQxqc4njpkP9ZqodFc/sxPU6wt5qPcJiLb9jhw8juuVRzSRq04+7qfYHt996I+D3mM48sNn5uex8ddip/cHvF6+snWRrfIge/qgsYeZDQLYKI50bg+9DLEguKxcLAru/vmvff3z+k97zMw+0QY3/th71jfge0O+o7IbPM75SGUXNxHd6ZPXRV8X956CTxbS+yRxJJqAVAafGD2GLxI6mqB9YpYdqfpGPXJk3+OrXtJ14PbSo3Ppvl4n0FOPAH2RCMUHr5NOMdErtteB2gHGdDauake+QvERb1/0GJ2he2193HAx+M4Q7vYdDk5ev0dm+a5D4MtG6vzZEL4PgI8E8kSaxQZfec8cdSPYz6hnEz7uxzs1nT8e8t+r7OIm8dGPfvTb4yJ98ogfPC9U1oWeVHbS9bImHER1CHQf0ITJRCMfUArUzyZ0gS066mSHoHNRu7JH8JnpQan0oHp0fVIF1YNiCvWdFM7FgNnkezSuCGX5qg1iqA3Vqw48Bsiu70evB5WBvPTG+lTBAvjm2HfyCbRPh6N/KPRMcunMecaY/RMGvktg9r6AxTMKX8MbF+r873mgC70LHFzMN73XkdfkoriU/TG+hHqf+LpO9qLbIFoAIGpPNsisHqQDteE2tO3tu6+QzuvUR4nwtqTHr0uvB5V7HXn66AsAoXjKe9rjIOqfthtU5+34AgBkC4rheFtC7ZF+8pOfPK1cvAj8H0L+ycp+xvjXQ/T9N888p8v8Z4tvCumTP/CZzMUzDo/5Y+J/+2Mf+9jbcfH+AV3wZyL6BRzQMRHIVhd68kz2d+7cSfE38HVRHIeyx9QkJGHiQPyuXqI63ryHPHr0aHsjn/xnKC6ob71f5ziyVXtKZ3Gl0zZruztHfq4/2j7wvvj4Ka+xk2DXBTuNK6IY1HUf6P0Tqodv/MZv5GWnxYvFfzXSzyQ/O9IbweWz5tnhXw75+yt7wtN8fGPxGYaP7sXkkh/dG6oTuCj7pIL4xdzxiarbotfdPjAxgOyUB/mozvU99bwmLOmVV/2RXriNo/bB+wPdVsxiuK+30/Xn6H6Ox1Fe4y29fBXH4zldr1g9jtpRHhsJCzxHtm4vFM/bbW28tt4r8NzzxSF8EV3/PzMcKBzIHFA9nem+JOT9IZ3/MESv/5Py1fbc/fNG9RvBfsY8e/zXIfzzBueHQvh/AYtnkKPv4QfXjQvwiQ5UBvK683dbUHk2gXQ8tgTQ94mbskR3nIh8wO2VIh5LqM713gflkW7X6fV9XLxeOjiK6X6Olz0+qEzbQvakszEQXa84ik+950HtyVbtelk+PYXepsc1XlsLgcUVzN6LxpsE1xcBvUf8YyH/TGVP4PuY1xt7njG+9mu/9mTiBy62khntIpzlLv0ir7zqpO8TD3nVyV556jTB+ySvsmIh8pH/EYrpPqA40oPH6rHdTngstYHOx0J0/1k8x30FPmpjVo+Oth35eP/kS9lT6WWDeB15lcHtVE/qLwt1O5Wd3j54ftS/thYDiwmzBcD6b4DvETxu4dFK/+wmHxv7X1R28dnEH/P7RbfDRZVJQfkZ8kd0Qfe8cJ1sEOJr4vE23EaoP0z0ev1er91r8gf5Qo/huF59AOlVJvU4lGe2ypOqXshHdhqHjmwcxQWv8/ZE9+1gKxH4aD+A13t/3Ndt5Afn7NUOebbd3/Ph9hoXrxNe9jyxVR7tv7YWA4sBbzz/n1R245dDPqeyN5fTs+PZYDbYvL7CZ///8ywtPmvwjv64wG6f4ReziympLtrjorpBvYsmNH/sTyo/t1EZNPH0+Ioh1BdN/nqD2cOHDzd/tUHaBbBzvE7xheuhx3F76d3GY8nW7X0sHLcDxXRdr78uiuU+as/3Qa8X6NVv2cjf8yqrLY+nfeB1qift+282TrLvuF59CF5bC4EXnn8zhH9T7/CZ/8+v7M1lfiZ89vhfh/xfKnsC/8P5X63s4rPB137t1/Ju/szbxfEEXbx18VXZJwe/+MuOSV/SL+DgMVV2PL5wW9Vhp3eVaxFAHhRffsqrP8S4qh1HevC8+jOzl12Pec5WuI/sZ3ZHMUG27tNjqU7tSITnO4ylRMjeU+W9H6LHl433T0I7fkwB/sp35Afezsi/9tM//dNrIfBiwnvPfkdlN3iP2hdW9uYyPxM+O/wNIX+ssif83pD/eWUXn2m+4Ru+4dvjIpqv7zMBahLsF2LwCVIXU9fpQqyLrCaDPvlDT0FxiOl4f0jxkQ5bPd4nRaSXDfbyEdLRJ5Ct24iuw8/xsmyPfLrvp8NRTG/b89gd2Xodut5/56gOf+1z8rM4V8UGr/d+OUfHFftdPtIpHmXtb5De27P8a5/85CfXguDF4PeE/J2V3fgLIf0fDN04Lp85nx14lPLTIf0rfv+jEP5lI49bFp9hfv2v//VvcwEFn0j9guh4Xb+4+oUfdLHVBdovvG7T45BKetl1QH/1On/vt+y9DZCN9N6++zte5/bgMUiP4sim0/VH7XS8zXN4f7CVeFyP1cfR6+CoP4CN72tv23Gd8ooPXadUffN2tAhAR518qUMnPaiMgPSgfNO99jM/8zNrEfD88/8I6e8/+8WQD1X25rKfVZ9d/mDI31bZDc603xzyU1lafEb42Mc+9vE7d+58V1w0eaNf6rjocXGVUPYLoTOr44KqC7HKiF+EEdUpVV4o9ky8X8prAaCyx+w66bsdoDsCO+oloLzHUV42M2TrNh5DceEolmyVQo/nHLXluF7jJmbxXOe+wnWzWOhcf4THlQ/9Ay0AEI47P5YBX+mEdD3uLBWjvBYCzzez/0nzn4R8uLI3l7oif3bhEX//iAXwyIX/w7z4DMG398XF8t+OC+DJytYveuQlwi+YQFk6Ul2EEZVlI5GtUs+rLW+bC72eSCivCb9P/EhvA9ALr+82bieO7J2juh7vyB88hvfFY7j/Ub632cvgbYGXj2LN9EcxZn6qVxk87+DvfsLjHvUNqJOo7Cn2EqfbOcP+W770S7/04yG/+Bf+wl/4T0fV4vnh14X8Dyq78TMhP1jZm8v8TPvMwRv7/p7KnvBPhPxTlV2813z4wx/Oj/Xdvn374/p2Pd01cYHzC6Am234x7BfNcWFMIY5P+sJtXA+uoy0Xn/B9AaAJ3+nlWUy1ddRmRzZuD9jSB+GxroPHndH7c2QnqEfkJ/tZf1R3LpXfzP8I/BRDfpR1PMAsHjrXe15+ne4jO1LJUVnH6KxfvR+qnzHivrY+OfDc8StC+BZavvznL4XwEsCN5/hIfu/5F0L4z0mdfz7kH63s4r3ky77sy7bP83Ph01268v1Cx8VPE65fFIUunojnXUApyE7oAiuhrHaV6g6/LwLkexWyUWzwNsHrlArZzOxl2+s8FV6WvXwcjytm8YXKPRblXudlz7sv+8jp7Qn3cZseT2XXCfm5P3mVZz7g9sJ1vg3etvLU69gXs5jiqB8ee/h/IuJ+z0/+5E+uLzBbPHPMj+L3Hib5f7iyJ/yukP9lZRfvJb/21/7a/FifLn4uWggILmS6GJIy2SovPI4WD34xBOVdr1SxVCc9aNInZeLn43t6xA/eP4cYR3ro/fc2vU55Utl0W4lgHGbtCPfxtj2u4zG6jerOted4e47642ifHsWmfBRL7UicmQ5mfehlkO+sDlx/zpY6P261rTP/zkyPTv6SEfu1WASspwKLZ4r5kf3e8k+H/O8re8K/EdI/arF4l/nwhz+cX+SjCxUorwugT+C6iIFf1BzK8pdQBqVCcZUHj0n7ugiDJn8mfJ/80UGPD2pDcRXbcT/Py1a6HsNtRbcB7I7agO4ziyvdkY23B7MYRzZu6+3IXmnfH9BjHoGPizPT9bbFrD35ep3Hm+k5lnos9UPb6ceukM0M9L0t2WqBStnG8LWf+qmfWguBxTPB/Kh+7/jukO+q7Am82e9/WNnFe8VHPvKR7a5fFykuXrpA6QJoF6vt4qZUF7UO9vj6v+XtF1tQXNHL6gfQliZ+iT/yx9f9lXcdfZCoDN13Vi9oS/oOdtT1cZFeaEwVlzqJ684hf/mB+xztN+mUil4Gjye877N6cL23p33pvop1HfCRuI/ys3Zd5ygOYKuYEvrq/Z0JzOK7zm1hUublgO+JhcB6WWDxWWU/Kt97/vGQ2Rv7PhnC//5fvEf0u36/GIEufJq4e70ubqT9QqcUX4n7zy6WgB47v+g6TKhM9n7Hr4nY+0EMiSMddu7nqB56Hage0QTvdt5mXwCAfLFjG0ndR3g7M6R3/75N6NWGUL3qHHTy7SiGx5acQ22JI7+r4gA26r/388hXerf1vOMxsKE82z/S97reJyGd/NxnBnWcL7Fo/t2f+MQnXhvqxeIzxvHR+e7Cm/r+ucqewGcpvzLkUZYW7zq/7tf9um+PZPtPfbowCV3gZhc5R2VS2cmWdFzINj12PYbsVedtA5Oaiz/614QHHlftSYB6lcl3X9kBdeeQr/zB896m66HbSVRWisz8hfRuS7/Ud3R9//k2e73K4G32NhB03UfpdcFe+xeO/NX+DO/bEarD9lws8P5oG+XvbZDXuPn4qg21Ix8v9/F2m243npr9ych/84//+I//laxcLD4D7Ef7e8c/FPJ/ruwJvxTyZSF/OUuLd52Y/N/WhQd0wfGLGXhZF6eOX7g8BpDq44OI24LyshdqE5iwdJfvqcTjOd4XRG3P2hfeJiKkB48jcVSWz1G98NjKk7pe9JikbksZoe+q8/2hegS8Xjak3U50O09n9DpvdxbnyL73w3Efz898Ztsz69M5ZCfRcSb6cYPQBqnreh6b3hcWz8SO9K9E+s0/8RM/8SfTYLF4j3mvvwjo7w/5Fyt7iS8P+S8ru3g3+bW/9td+/AMf+MAPxMUkv9CHi8y4wGxCWRcgZMasjrJdsE5SRBzFlc7rmeB1p6/H/Z7XRDe7eKpdxaLe7aWbIRuvVxyY1UMvn0P99Ljg/QWV3Z46TTTSCeWxcT1lxVSd14P7ylZ2qnMfz3fcr9vN/Lqd9/Uc8pG/x+i4jex6+YijfshPY3bObtaG+6neYw7uh+7v/fCHP/yLf/7P//m1CFi855w/Gz49/u6Q76/sJb4m5D+o7OLd4tf8ml+Tn+uPCTk/16+LkSZJiS484Bcy5eUHumgJ9Ez4iOxmMXvZcXvqeJ1fogl/NumDtzlr1+29DZeZXjFJKXsfOtJ5HOU7R/oOdhJQH9SWthekI1VeeB14XI8P2Kis1HXC6zrUed/o8zk0xmIWcwY+8vP+uL/rHW/vHPIjVXsSbR/5o/hu3+1kA6oHb0vn1RjP137iJ35ifVpg8Z5yvTPj6eHRPq/vz/jTIXyT0sMr5PyV5OKCk4NYi8GXfdmX5SN/n6DHxSRFFxrHL3rKu12/iNkFarNzW+VnUCc/wJ67fCZ+/i8/aZ/4EaG2ZnFmUO9xfFJ3X5UV021Ft+9QL1+VnV7uyF8xej/pW6f3g7J0SvH3feW4Ta8T0ve4IL/r7AtHftjKrzPTH9ke4dt3XfBxP8ls/EGxPZV0ug3oGKPs59YY09c+8YlPrEXA4j3j8lH67sCj/3+5su8ZfyTkb67sgi/24SLiF5BxEdnyHep0wdNFT1DneEyPJzv3776gfnibetTPxH/0uB+Rv1IX1YNsQHmPQ2zaUFn1Hk861YPH7b7QfcF9wMtuL1znbXQ70fsgellxFcfjue2sHffDdhZb+1Rg02PN/DwVXiav8rl+qr2ZvrcL3c7L8nE/xZY453TSH9kItYVOYykZ5fwmwT/6R//o+sjg4l3n9Mh89/gHQo5e+3+3+LMhX1XZF5O44/9QXCC+JeTvCvl6LhgSLiASlQUXnV72i56QjWJ0cXpMobjYqx4dE7EWAMpr8vdFgOPxyff2PL6jWL4AkF702Ed0X+8H8cHjgtsAeR8Px301xugk+CjvKJbrXae8xwTpr/KHbksqgSPfrledI52nys/igvfL9aA69+0c+UlANt1OZVK37fuVvETlGV5PPFJiITwZ0PdrhHzzH/7Df3gtBhbvCpdvC98deMT/XjM/k14g4iLx5+MC8S+GfL0/PuTioQsK6ILGBHU0uXbc3+mxwWPN6kFtIpqIffL3etkL4mm7hNu7j7ZRcV3QOz3edXAf8hLhcdDP9scM77v6ic715Gfbo/gS2uR4IK8YCHgs6bATPs7Y0Y7bqd63S7FcejuSI2Y2V/nAzO/TQdve8XZcZtt4JIpzDuo1dortRHn2RWqLxTvi/FXpnfPXhfCI/tdn6b3hnw2ZfaXwc8+HPvSh/GIfLsJ+Ifa8LmT9AuJ13Q7xOofYWmTID/H40oHiObJnUtGjf13k+oVUeEzo9Q52fuGUnVKPAz1Wr4eZj6N6xVI9eo2V8DpJ9wP3Q+9jJKjHTuLIHx9N4Cp35E+9YoIWZ94OeVBKPMX0VPmZnWLN6PHFUbm31e1A9Y5sPY7wmKQ9ruqO/Pv2yc5lFkMpdaofd/ybKDZC+Q/9oT+0d2yxeAe81wfQKyN9L3hjpC8U1538EV1M+gVHIp3qhduoTu2pHfB62YO3CV2vBQBCuU9w8vWYpPJXvee9DeIrJiiObIT7g9pQvqdufxRL0scKlKfe9ZSF+6FnWzSJA3rqNSEoBW0zNujJo5u1i1512CrlUTN22j+gNrDxWBJQPNe5rbfXY4leFtLP6ol9rh7UH8BGIryevJdBtrM44D7aNpAN4nrhZeW9DXzkR6r9oNTktT/wB/7AerPg4qk5PSIXzywx8X88Lg7fFReD7V/3knJxkPQyFxMuuuB6IRtHNoolehlm/iCdYsmPvmhC80la/VReuC+ovktHsYX3w+1nvkLtyg/cXjpQP7QNQH3fH47K8pU9wr4FjRep18sGYcLWpK03U6o9xe3HCmBHbJAOG2JRpk4LALWnGMTV+KqseBoDRMy2Q20qBeXdH53kiFmd67wv3jZ4nfKuk63rAP1RHFC9RO0iHemIgajs9vi7+L4nH3afCPmeH/3RH13vD1hcm8tH4+KZ48Mf/vDburByQdDFGAFS9EoRoQtT1zv9oqPY8nE/xXPQSYTHAPqvSUKTAbiv+4O3C6rHV+PRfaRzvbZBOk/Vhrclfa+Tn9sCeglo27BjDDxP6v7y0wVd+9brEB9P2d65c2ezp00+SsnYygeo00ThbWMvW42ntyEdqA33xY8yevK+AHBfUum9T6Byx/Xe5xm9zsvKK55idX3vR28f0PU4ynd/UL3Grft4Knoct+vCvpewf6QfvPZjP/Zj64nA4kpOj8DFM8WXf/mX511/CGnquKD0iwoiHSiVj9v1i4xQveJ4PHDfHoOyX/TVRwSoZxLgDlWTgaBOIrxd8Drymky6CM8Ty+P5RCRkg3Rfpd0HVC9ko7FQvcbCJ1L3Ja9J2uvdBihr8pct0C7t9bGF3q5SfLBH5A9q17dXOumxJaWsPqhtCfWItyEfcBsEeirk01GfEPm4bfdTWam37bhOsd0WncTxeqXd1vPg+Y5suw1jzv6/e/fuyQIALF2LgMWVHB99i88q/BOfOIl/QBceTmxEF3AEZjrQxQio14Va8RzFkHjsbiukJ/ULf48F6JkEtADwmOQlcLQNyvvEAcq7jhi+DUI2xBCydR9HOo8P0vdU44AtOsaAC/TsQu31PmbSI6A+U8aWi7/iqF8S8DZAMYEUIR77Qri/E9pM029cLjR+igW+3YpD6gsA2QK2PDVwP9LrorY95gzVH9mpr9R7v5W6n9vOcHtSzyt1vdNtwfebg07HFIsAPx6AvMlrP/qjP7oWAospl4+uxWcV/nVvJNt/7xOUNSno5AYvS6cLlZjVuQ/isR3Z+8UNKOvirQu4bHos6jURaDJAQHmVhdcLt5vpEdqUdHo/wdOZj/S9DeF+1KkNdLpT5yKNeBzyjJEmf8XwsSMFj6l6QNdRHEHZdWqf/QCqvxQLOxL+Dv/8G0Vs1cdUjZgSobL3Xz60r/cs6PhwXyFdr/NYSoXbup0z07kfeZVntuJp+tX1Ht/H09M+zgL9bAFA2vPYxiKglIuF8V7/M6DFU6DJv0o7Ool1B+kntoSyUL1QXhcQ4mjiOYrhcIEW2BAHnYSy2pQI2bqP+kEqvSO913va8fZ6+17GV3nX91SoLbcFlV18/BhbLsz37t3bRBdqjTU2XMD1ZEB61SkPHl9tiL5NgE7iOh/Hq8aSmkv1UZQOO9k60qu/2g4thrRt7ut21Eukk82svzOO7LzNGfh1G5VJJWLWTreZgR/j78z8pEPwkXjdjG4LX/EVX/GLf+7P/bn1D4YWJ5w/UhefMT7ykY9cmvx1AuvCSOoXBUQ68BP+CF1UiSc/p+s0WYDapB2fRNAREyhLp7xs/e7f60idbiMdqH89dVuY1dOWkP4qsJOInu/1muw04ZEy0TNGGgvsNdGR9+1TLOl8u8DL7qcUnUR6Z1qvJMr8bDal3u/+4webftx5PAllIR2gZwz0xkH3B7ejfvbmUdkodRQHvN1uq3JvG/EY4L6qcz+Qr9PLHeo1ljN/H2ffdvQ6tkjdTik6CbqQ9XHBxQnnj87FZwT+bz+pX4ScfiIDqZ3YqesXrQ52Pul0P5VJdXFDuPB0m66jL+B+CHaIX7zB68hDb1fSwU79UNptpRde7/5wlS/lPvZdBGM7u7PnQo2d96HvP1Dex0Wo7PpuI3/0ktP41LVYozp6krbI5k/F/merl4BsYVYHM/u+jdRrzKhj4udlAv2jKB1D+His3lZH9UBeZfeTr9s6rnd7b9Njg8cX6LwtZHYciJlePn58KYbXy0YxhqxFwGLj8hG3+IyhN/qR7xcJpYhOZte5CI8xQxcEXRTE7CKGThdbpW6nvOzVP9m7r4tQPNk50nW9UJvKg9tLJ6QndV/hfaBO2yIoy0/1XSc7Jv7+uiwopvfB/dwWG4lzVFZ6LobqSIdq1I3CYBoDm/ilrotQO+D1vX3KjLfKsuOYZMw0bkz+WgA8ePAgFwGUfV9ddZyA2nG0L7zuXAyBvex6CtS7CPXTdcrTF9//PZ5SicrycX8XLQ6UCvn82I/92N6ZxQvLeg/AZ5EPfOAD/z4npKMTVCevTmBEJ7fkafC4ijVD+tnFVWXpvB9KqcNX/sojHcURKpP2OrXl7XkZXOd6ULxe7+1I7+OEaB9Qp33CRMVkr9Rf75dePqTgbc220XWz+qvQNiVkw91jVP0ubg6hUeaUESL9y/W0rUDtuL73n2Og38UjGlONq8ZNAopFnepFb8fBzuvdT3g7R3iMo3iK4wIz+24j+ra4nWxn5d4GorHy8VLdV33VV/3iL/zCL6z3BLzgnB59i88IvNkvTsLpO/25COqE7dJP8tmFZXYBAV0IPD7I3v1meV24EXwlHdnoIj+74JNHpAfpvDyLD4rj9fJzXKfY7isd/QB0GieJdKSy0USFaOKa7TdQG12g23Zk57htrz+p4+et022Lv5knLdO9L4ds9eEQv8RVn/nx7VGqfshO0BeOB+zQM14aN42hxtTt9RTAnwCgR6TTdiq2o35B75PvW3BbMdMJ1SmG4hMXqEfUv26nsuN6T5UntvrteqFx1Fj6NrrP+mTAYh0An2H4Vj8/GR1OVD9hXWacuzA5+Cu24guPMYunC5hP5DCLQaqLsedV9m2RHqjzGMr3bXe9UuXdf4br5YdOfQO2SaJx8jzgR5m7fMTtZhDbpY8F8m7g8by9mK+jsmxyK9EFajZtmMjz7ylVNu3Ilm+1Q1TSt2Kx0dG2eZ/69mvsJJq4yMueSd6/5RCdJn+J4iKOl9UfR31QHfae9xRm8bGfieolwm26Xqnywus0Vt1OsXR89gXATIJvXl8f/OKyXgL4DPGRj3zk45/3eZ/H6/38D//UKRWUZydrR7ojG7+oCOL2iWxmB+hVj/SLq2KoDKqXHF2QwfU97/hYXEWP0X2uikE97fk4Kc+FlNf1NemTR6hDPDZ570vPqwzYXtWvq1AMjxW5Sofu5Vtjm0Y9VF3mYqCrjCL1ocAWyfLLe13fJy+9xDZldgp2vu0+Bkod13EMabIHtY+oLPA77ddpXj4zZj6i97HXO/KX4DvzRzSOR/USp+vw1Rj1823mL6Qf6Yd+4Rd+4fekYvHCsRYAnyE+//M//89H8iHyfmLqRO0X1hmqm9lc5af4M9CrThcQXUwQXVwU51wst3dR3UzfUTvqFyJbpWq/60F1Hdf3vLZLd005YY6yf5Zfd/2q79tA2aXrBG1KroPbH8swhsijezkm71svR19jESC72tbImx3OlZ6O+0ujLDvpylnbE+nbFeMcfQxgj3nqyzHExC/BDxv67j7up3Jt375IcDvPz7iqzuMo7XmVj/a3RPVK0XX6eAn0/TwTvR1wG3Q2jh/6yq/8yvV+gBeUy0fc4l3lK77iK749TrztK30dnaCSqy5uns7o8YV8fOKaxcO/X1S8jK0url7Xfblgkz+ql0BvH9B1vft0sD3n6zq3E+R9bCSUdcdPik7goz4ppucdrxfqk/ej0+uOyhUns9GGbSM/UcHkX33XONFPu2tMzU7c1Feaf/Y2yaZtTPYZJ2IQJ2MMH7WtVJTNLlD93o97ja/0sqWfQL1s1HdSvQyguIDeFw9CMSWg9hHH/XodqJ5U/m4nPbheeffvdBttO3oEvQSkx0bH8uwlANdTFj/yIz+yFxYvDGunv4fE5L+93s+JqguZ4yen5yXC80C8rpuBjWwRTn5vR+hiogtrzwv3U53qlfcFgOsVTyn0eOD9Aum9nrzbqU7bRtntJcJ1+OjCKH/pdMfvY4YA8X0bPb0KxRPdz9sRe5m6PS3brMg4GSr/VIyXX46L/dae7wv6Xo6hzTTBN/2DjD2CDxuqeM1/n/x3X+VdB90OVJ6NLXgstwXKsmdb/JhSWQsD8kC97GQ7axe6jePlbqNU/pQlots4XvYYs0lb2yIdqY5bP559fKXXMe2sRcCLx3oJ4D3iy7/8y3mn/7foxANPj0Qnaz9xhV8gVOf1QLn7q+w6RPF0Memp6PnriGyF64X6obynHbfVdpAK3zahbfY6XfwQXRCZ6BG/OMqnbw9jI/HtOdq2Lorr8TtuLwmtlemfl0uHze4f8Zn8ZU/54uWc7OtNexWzHvuP+rTJCPnaf5atjQ4q6d1uJhpTxlf2StEr38e0C+MOs7ikHlf10jnu5z6gthyP4fauF91X5SN7oTrfTphtw1GZFHvleyoRyq+XAl489qNg8a7BY/9I8gt+dLIdXVB08pHqgqS86kC+/UKCeGzXO5QV0+vx8wkN6W05riMv6WXF6XXoVRa9rzNkL9vZdkAv93GUD3ou/AiTvk/8+Hr/RI+jVAL4eR0olup8P6gt2QjVI0Mz8qRDo6pNp8kTQef7O/K82y94660nF09C1J/4k3qF22NUn/Y+VJ3u/Icm8iM72OuKXgZ0OhZA/RTVzql0tA/lp1THsURPpPSSAHnF8+ND7cjP2+xtgOdn9D5jLxFq03VqW/7U6VhVWfbehvSy1bYpld7rEfnCegrwYrF29rtMrKKn/9BH+EntJ6fnvV70C4JOXOCCITzGubZko4tdf2w/Q31QXM+D1yPEVB4UW22D6lx3FbL17VEcpaKPKWWEC6AmfkR6UJ+PYoJs1b7aAM+Dx8LP7b1OqO40jtoZxaDyu2IPs29nGr0dfthhGjZvxQTOvlC7GTdzwZaJuvo9abfeO6B35Wey2R2hdo5S8G1FPxNwO/I+nhK392OblwN8ASB72aEjlfQ2lQrXKx7Ir6fUuwB1Xq+ydKB9KR/wGKCyZNv/gXz7AkAiH7EWAS8O6yWAdxHu/ONEyi/46eJIx4nJCaiT1e2Udx0XBfkKXSykl/gFpNchAju/+CkeuJ0jm5kAfq6bXVB77KO2Zsi/i9c50mm8mfD1yF+P/TX+XeSv1PeV612EtleoHn/Q+MzwOAW2SvenKOhO45z2UfWM/5PcD9z9j/2BZDz+BiOGWt4ijn7Tpb0d9CFjcZH93ez2bdx9h43pfBxdjuh1R/b0Eb3HB+WRPgGCxinH42Q75+1I30V4HlTudo63jY3vS/B+gWJJpAPFko/HVTrz4z8HrpcCXgzWAuBdQo/9OYn6hQ08RbA5mvxBduAnseMntOIg0nkMpR1i+ATtMXsM8H64vecVSyko1bYqZk+PkI/ba1s7Hktjoolf4guAozETrvf+d3G0vaL7eX23VSzZUV3CxO9jnkmix/1qJzQXbz15++Jx3PHmnW9M/Ez+VQ7Jcuz3fJwfwpv6csrX5BkxiBOS0UhH3AK96kfdsCm78tn7U+WZdGY6kJ7td1+372PpuI/vD8DPj1uheqWO/Pu+FbP8kc71Ah2xJUD/tI3yk8y2SbbdTzFl737Bt6xFwIvB5aNu8Y6IEybPrnYibXmdfKCTb3bCiq73OgcbLSQ6R/EcLnY8FtWjUcCuxyNWThjjIimRj+tmdUL9QFwP3r+ZD6BXWYJO9hpTQEdZd3q+AJBQ7/5Cuq5XbEf9EN1Pdd13Fl/Ilurd5jQmk369EZBt3rcbGPsnj9+6ePRofEsePy/FPokQb2W8MdFnHNI6HhmnO4xVCFeHbD+sw2q7WBAr/TNNs+TttB866wt56X17ybt0pHMbHX/ElIC3B14nX8Bf4jqOf/3HQUR4HCE/9DreEOmVgudFjwfYSUAx2R/Kg/cbnbevvPCYsuGY9ydfOjdmvuurgp9/1hOAd4Gv/MqvzI/7+QnkeB0pJ5ufuKoDP1l7XYe6WSzKQnVuI3Rx6BeVbgey7dKR3mM63jdx1KZQ38FtZ/Zeh58mfv8yH0386gt9dT+ko3jdTnEUC9ArneVBYyN9ry8u90PU5M+FmwliHx/QhPbw4aOLN998M+RBTG71VbqbcMcfdm89GRMi+w1n9YUnAKFAm30du7K6zTFqx2nYaiEB3peuS/ummx0n4LZCulldh7iS7uN1iL8/wOntyL7rAb3Ty6LHm4GNH29HqO7IRv0FxUI06Z87ftenAp5/1gLgXeCDH/zgd/vJpRMIvMxJphW3dG4r5IO96jmJu63sHNcp7zZ+wSHfJ+puL7BxewnI3nVKodu5PfQ23Ve4rS5W7iO9C+PMhH///v0UTf5qj5gSxegxqZNO9TMRvQxd55NMtz1lb9fZJ3+Oj9rW/Jx/1PE4//GTxxcP36zJ/8Ebb2T65PGTnMyZ6HOyJ2XiD3k80hyFaCvHBF2+PIDX2B/DLzwxy34hOfnfQoHR3tdz2+Z1xBSKKZFOqeufFvdVmxoDifdlhuq9Lz2myl4H52L3uh5X9cq7jv1/HXq/6vi5nJrNt/BfA//sn/2zaxHwnLIWAO8CLABG9uQEcihzgmny9/ojW+l1ooN0pC5u77hOcUj7RU91ijfD7cDzRz6OYiPu68z0Hlt5xVFeY6vxpaw7fyZ/Hnn6wgu6v9cBfen2R3bqd68DdIjs3FYiXHeqx4f+kNdj2xC+4jf6FEHzDpZH/g/ffBiT/sP8Bzo81mYfC5quPtR+fzL88jiIetIsh6ivWy/wjckfTvrJ/DOMtG0JnfXyFTC2Pr6+/UK6k3YClWc+DvXuS17ngY9Tj+Nl8hLh7c+k91dQ11OXjvorul1vhzIiG9m7j+sm+m/56Ec/+os///M/vxYBzyFrAfBposf/YnYSKXW56oIAOnn9BAblSf2iKVGd8sLLuuApPsx8hNv1vON1oJiI+tnrZ7if0/XKaxykI88CwO/6j1CMGbO+Ku3bfq6Njto88qk65asdyuiZ+G/dim0a28t+fBgT/5sx4fPYn/wjJvGY5Au1g0Qswo39VB8JJB1ljgv5Rlm9S+/Rfpc9HseTrIean9SV7xGXYjaO9HCd42mGbLXdgE7H6RHUeb3alx5RDLeDc2XZ61hWWTpHOrcR9EcivB68z2qvtwEj9rd89Vd/9R/7uZ/7uf90qBfPCZf3+OLTxk88GCdR5qnTxQa8ztEJ7LGw04mqu12JTt5u3+OTl82svoOtFgqCvPSSfF15SI+vPiPenvKu63QbyaxOOtqZTf693+rndVAMUJyO9Ef1To/nUOcSmpFn/EqYY/HjtesHPOp/8CDv+h/ZV9+mD+M+nhLUPwBKx3zX/5MnvFxQnwxg0mffES+fIvD+gUePMh71+VRgGzP1h1gcT9r2bDbhDYE09U44Gg/llc7kKoiNnY5HnT8cJ3pznM4nlx67tvd4P3t9t5n19ygOyFZ9UZ89xrn2QDpSP1d17h6dE4oX8l1DtXiOWAuAT4PxpT/bSeJ5xE/wjp+8oHLXO6rziwB58HaRGeg52d3G20QE9X5RkEini4Z0lPVGKnRiFhu83G166rgt4mOBaOLnsT+P/yn7GKn/2p7OTCfUn26jvhzR62RPv47qpCfZTdAzmdek++QJk3VM0jFZM2nv+yRMs4sjlt4vwDiMgG9FUo//Y9/lmOz7mI8MMvET89HjmCiQ8WbBsKj+5CKETwpU5/gHQbNZP1qvPgw7z3fUvvKd7kdZ+59UchRfqA8SfLQAIJ3Fc3Fm/QRty1G9OLI58vN+9G1VrHMxj0THjtNsPj7Ui+eI9RLAO0Tf+MfJATophcrnpDPTgfSk/aLkJ+kR1Gnik3R7b7vbuZyrQ0B963nR67pNLwOxuy3joIs1KRdwJn+lqoPeR5i1A74dSrud28xiCNXLxsuuh65Tvpoir+29lfM7n+ev1/n3hRfi+yb90rfiRbY+rhc1XO418VORn/0P0jc15VP+IbzbP4+/ffGZMdN/MOInQ51xEGIMgWr3mKN66YmjPmx9MbyMj5eV91jdH7qd6OXu32O5fbcVR3r1fVYH1Cu+2x7Ze73b1L69PI7iox/96HeH/LGf//mfXy8FPCesBcA75Au+4Av+/ZE9OblFP8GU9xNMfiqfQ/4u4Cd/Bz2TgVb3pxNDoThC9edEsRCY9auXAV/henA/0f0d9Lpg9ckf8ckf1HaPN2tDOul7veM23a77d1uVnWN9Tby1TS9tkz/Ckxf2Re5nfawvJvaCeJXWhBwLivgbe7L2Z+zCGpoYTwyxzTIWURz9Qc0CQW88zJSnERk8LLVvKSIJ+pFVnLTHXBU76FTvuJ+Qrtddle/2IJ3beAo5VpM+g9v1OF4H0kmvmN121taRTe+b7NzWOVfXwU7nGRLlD/3cz/3c7xnVixvOfoVcPBU6iSRHHJ2Y7jM72a/CT/rePnomASYGTQ6ItyP/cyKfLjN8m5RX+Sp/18/qO8S1C1IKE34Xbx9UPkL98D4c+fTYAr1EZaddTDdx3Sl73xHerPfo8aOY+N+MO/+a/POb/SLlUX29Xu/7et8mNMpTiIg56d+ibR7pl/mwK1teHuBjhcTfnjSwuMBgoL5V38e4ICOGs7Vv+SMdVMydvZ1jW1IfZxf3BcVzwU7HEPkZbisod9SO8D4jiiPfHqPbS3Ru9vN61geHeh8H/NmntX95Kam+DImY2ExkvRTwHLEWAJ8GnBCcTJJ2ogyrotdJnFm9i/ATXnQ7bGZ2HdnNpNf7xYZ2fJtnHPnOcJuZndrjoszrtC6669frt9gqnrersuu6nfQzrqr3sVD+nEzt8i67UiQs0k5t15f3nL6JC/22DSGhSJ+NKKaNYgw17I/1qy1csRHkcxHA4iImh8exCNjeL1DTPBuRfU88qZCXSF8TZ4tzTXqMk7EcovMTgVm70OOA23ocRDbelnQgX48LMx24L7gNee1j7fNZDOj9cFTXx8LjUq/Fj+J4e9/6rd+6FgHPCWsB8A74qq/6Kv7pT+Z1Qrn4ieP0+iOhHtFJKKHuCPeTrVIJ+IncUV2vp9wvPteNK53soNt5HXhch+3xSV9v9kPQeV+8ryp76sim650jm95P6l3n9l0vQa+J/+VbkQ/JRQD26SM5pWJf7pPHjj+Zbh/zS4s9Zv5EtpoJm5zUq7z1N30Zt11oF32mSIVTksLThf1lAsz3/YIckeNh0nH9rN6RrdvluJxBtrLjuONc7JPiEVfF71wVTxDXx/BcO6qTz8y2jwt5tk+iOrVlsj4R8Jyw3gPwlHz0ox+99L/++0nkKZD3i4jbqM5POFK/2Jyzk/Sy60AXAD+RhWzA9UCZC4AeC56D+ln7Xu70euV9O4G8T/wSytgC7XsflXe9Yvf47neO3ielyLkYvS3vzyZj0k+JnzR5e2+jeCn2B58A4PV+ngDssSLHn4pPZqDSMCNYifqQf0c+q6wfQ24ht+t/BNwZT1q2MUzXbKHEY4zooO3e+rt1qMhYhso9hYxt4vQ6ifA8UO59EdT58eK+2pauE93+HNe1A7XR43e9+neuT6pj+3R9mm1r40O8GXB9L8DNZy0AnpIPfvCD25v//CTxdHbi6ATTycWJJ1t0iE5G6TyO8vJxEZ6fQXzdPQiP4RcK8m6vMlzVjlBsbYv83N/rvN4FG8auv8kPAe8jyE8or7b62DrS920lnQmxejz5guyUnyEb1WZuhCDWVh9305T10b3t3/qGbpNYEIQ23CMAYSLh7j+fAJQ2Y8cRmBlS7xV5tZflkeeNf0z+epmF/Mtj/LMRaxNyGwaK5dBXp9uoXek9vUrETN/rQX3xOnTycxEa7yOO/K7DubjOdeJ7rG7v29DjdFvwfPChn//5n19vBrzhrJcAnhI/YTrSHZ1U6DVZCdm47cwOPNYsj5+LUDx/zVj13q7jOo8F58rdr7cj0aSO+ATabZhw9Kjf7/ip923q9D56XFDfev9muG+XGTO9dDPfk75s3WaROLJM0mG+u2BXE3fFKl3G2AOMiT+OIz22RxirzA///CHNFnHLuuoP+VLJBqgjNmP/hDcfPtHHEOvYknHGHp3u2+3lIxHK9/qrpCO9jp/axhJQCm7bBf0Mj3UO2bkteY5jPz+7CN+Gc32Z4T6yIaVdvRGQT5bw/yP8EyayMVnvA3gOWAuAp4DP/vcTUenRiYhekxzgL+koBieYJjZk5qO818nPfVWWTn7eZ/mD6xTjCNl6KhE9NsJYaPLv9t1GCwAmfvL9Aix7CahNtSuk83EoTvsAvQy9nY7X00/11XXKd+jO1iXrWvX38rZkHL1PICh/bXda5E+mkeQ/7MkSE38JR2SEwCJ/yNG21gpAKGoc4ucbER8/SnkrFgBvv8WnA3DKxivecFQfte0zcXq5bzuc8+0658hvhtv6caf+eHnWxw42OvZm9tLP6hzv11W4LdvgC24X2qRvTPj6eKkvACSyI/2tv/W3Xr3Ri2eatQC4JrzxL5J87X/G7KSdnXRCJ57A32PoROsTtyOfPsnLj5MX8RhqF/E23Nd1auMqPG7fVsVQHK+boRhaAPhjf/SKL/EyeH+V731whtsWQ3G8LB3MYojuMxNHZZLKMzWfQnu1CKgJNuPk5M92lw36ffvKhjcS8hG/W2FXb8grXdaZxG/q+KH9IuJErOoNaUF45K0n0af8zoH92Mq2o5/jXxeMeKdUv073H+Io1hbTULnrweN4vsfydiXSi6M8yMdFeP4cR75dJ1zn2wK9DLIn1blE6jrtB8Dfz3tdNxRb9drXi+eDtQC4Pj/AyaITRvQyyO6cODrBxMzmyMdPStfpRFYeveO2Lpz4PAbUyt/9Zn1w1G/EL/Kg9pSfpeAxEC0CuswWA5cpvcc/AncPoZjzuPPtuS7uC3tbQxH0mEy0234cfS0pJ6xVVizS/GSBxijHayxGh2CYeVJijDhbIZMtM4jjBuGR/1iYaJskm08gndj7WCLdVSiG4vW4nhey0fEtG9rzY2fWvtf1etepjRm9Dh8/boX0Hlf0slBsF0exun+3gx5HojFTigAx6e+3fuu3zjd8cSNYC4BrMjuRHNXP7PzEgSM78DoXR7H8ZDyy6ycuyM51oIukfDr49QuX6O3Lf6Z38f7J1i+QrmPS94m/LwI6Uk2qNrofxVJd3n5QX6+L+u/M+lpx5/Frgg0ZY4U3MXh8n5J3+vu4aTzSZuS9rhYBt3xjN6TiwiDBgo/z1Uf6GBn6OI4R7McPZP9ZFGi/Rt73cfoE6p8zK7ud0h7L8bqZjeuI5+Oi+NB9Pe99Aq87wtsUvQ0x0/U2hdvKxm3VhkTnt24OtG9mUKeniLIjLmOlcxH5Hb/jd+T/RFncPNanAK7B+Ojft1TpFJ1o4Cef9LMycBIBZeWF++jCJBF+0vY68jrhBXEUC9xeYH90QVAbMz/wulnfup/657Z+UUHor+d7/yUV4rTPVVd5a2JDvoKsZIbbOtL3erbrNP7lMZghm9n4RGX8xrESJlmXF/DTpztqx8drl1NdUb4ZIv+UPiy3SZ+XEW7fjv2A5L4g/i7U6ykC/kr7Nng/r8Pexzmn23GKtwtu66nLVf3UuYHUGyvLbhbDQUcdKIWZreNxBXk/D4Tbeh1teDvkfTtmyF+xaI/9ridv/ZwM+Zav//qv/8U/9af+1J9Mx8WNYS0AroE++tdPmH6i6GSRHo50Sj0vpJef5Dq4nfo7iyU72eiCIOnIHnq913W8rRmqI6WPutCQV1kpqG3vQ+8zIRV3t9/tep8qj67KO5f7ftpO1bmN2hDU9RiObN1GPpfj1D5Ey0U83+EfaURJm4JxLNssjVgaT5XTw+JndpTDKib+IeFTk//+0st+8a/6fGlhxFUfs42T+Ht+hnw60nmd2858tjGVmD10n9M3U57282QbECvX2OzH6rm+gOrdbuur6ci7OL2u96ejelLPO2oDvfLaJvY177/RG3H3fb/vZ4j0W772a7/2F3/2Z392LQJuEKdH12LKRz/60TxjZieOi04KkK3Xq6zU9cJPwl6nsmKTSlRWmhPEWOk7lD2OHgXKh1Qim3MQy/vZ7fs2OPKV6GLjkwwXWE084H0TXqa5iode9qd+uoAVZbtT9sQApXDaTvXZURuI1/e82wnZuG23CavYR+OreWO/5bvwSTMfEvrt/wAMNyY3xo6Yuc0Rmnr5ZRu86z9T7w8SE0BM/nfvjq9avhP7YuwX6jPcsGMBQPBZ/xGhOuH2cGTf9TO2OJdsWfBUubcP0nH8a0z6+SMdKfaIjiF89L4Z+QOp8t6u52f10MuATnrSo/igOq93ka6jep2L/EtthAWAFjvUK5WP0iGv/dAP/dDvTuXimebyknFxwnj3/6UTiRNAIp0jnde5TT9Bhez7Cea+0HWKpQuXX7zO2SrlwqWy/I5Qfe9T91N9twP1ScL29jvM2eTvfewSFmkH+f/pme24+Ic6qymNvpQ95UxMn8lIR+XA++vs7RfdRvXdD1Tn/idlXFKGL7EjYcK99XKMlYQxS5sYn3xZ4Enk3x524y7+VkzokY81wdgy2mE843gZQp638XNXf/vOrbj43x2TwN2LuywCbp3uI93xbxH3zUh8u0Db1vVHPI3tBv3JPhURoTJDNdsPjGq93FHbhfh25vEYecbg3t17F/fv8b0U93KSzMVRHKfa7x6/lzvn6o+2vdtTVh+9jnNF5wsctXOE7HV98GuE67TwsfZ+4Nu+7duecqctPhusBcAVxEmw/c9/8JNNJ5yLmNkJ4klEL8u++3GCHaEYOkk93qzsJ7GfwMLtOx7P8+Ko/0J6+VL28dKYuZ36d9oWeQnUhA+klff6altxQXnXdZ8Z6rvjfQfZdLuZDrpefc1wIdzLUuZNf3osz1fz3smJOdoetkxcTEzcveciij5FiHqDXsSPNl6inWwvxjTHlcn/IhcLTPivvvLKxfve9+rFq6++Uo+AaW88BciJMdss4ZsCC+LXftK+kkjX9S6wb3PJOcJibkd5iMeS3SX7IOvHywF+HLKt+hbE2znh17hrHLRIUMyj7ej1YmYnG1IfL9dJLzzvKKbyPZVoW8gTi4l99qVASJvwNxFHfVk8W6z3AFzBr/yVv/K7STkpdJL7yU4qESrrAuI2iPB6Qd59BCdUP+FBJ570nnZxOIF95S56u8L1ync7tdHru75vN2leUJmoxsXUBXwbFKckVVs5clkuU8aMzMxP9ujzb+adshmFUS8fh355POdoTARl306x2Z/0K2JlPCT80nePK+GxfU3+d8d41gU9P7ufn9uPseTizcS/xaxFA3e19+OO//79kruRz4k/48QEQV9ZaERKXm8MjIZH906PN6V+7Pb+ImKmE6e6sGFsTlSUSyoG2cqfjNNwOimjKnXq4k+m+T6HTPfjMd/zEHps2Ca2zc+njtrpSEfqYyPQ9TET0h/h9fJ1ESrndlmdT+zS69x0VKexkc0P/dAP7Y0snlnWTjrDV3/1V598+Y8OdkQo33V+QvlJBP3Ekl50nez9pHRU9nrPq15Q5kIlEWqTtPuoTnrvn/C6owtFF9VpAYDoYiIRHl++l9m3eZgn2BOr+6msFB98ZUZaebV5OjZqC6jf45TO67x9jyFct8WK32iBP0newW8xa2zY10zqpOxP6jXhYcqk/+hRTFD6f/4x8T/JlwlY+BGLvrFo0D9YqoWYHm2TV79HkmRefRxt8+VA6h8pomMRtF0S1ykP8r2Eq2hXCo/BT2UD1St2jEkugPZA2AviZdsjxZ1arNNqD7yNt17/1//SR696p2+P+uvMtn/brok9oPc6/Lxt1fu5BNL3evzZDmD/azEp0SSv41l55Id/+IdPOslLAT/4gz847/jis87pEbHonPzXP+En5wzZu48zq3OfXidcrz5IdJGVzOi2oJge22M5vay+ujiUuShwwZiJ6jTJUAZvW3nvM3i+oIxNCWW6oz4g1b/TPgrC1fsGNBaTbRup4inmiU1D9r3unA/kNofwxr4cg6Fjuxy8iV/jyIWaO/f7F6+88sr4/wkaW9oaDi/VAoFH/bq48zp/3vXzWn8uAvifC0z89J3+Xhb6kuMdfYT82ODoy/a+BBsnpb7dfftzW4dMkXn+6+Joe4jGJWNz1z7aTQldv4vf9XufiJ3JKJcQtHQU6BbHIhO+hDIQs/bDvogVh9tjnLZ7ub+i2yHnUL2P7ZGI7sM2sihAuh3S+7i4Gaw9dgU6wCUzpO+2Lk4/2cTMVngst1MshJO0T5QgW5CtoI4T1+MJtdP9Ha/v9srr4iDxiaGX5at+SuCozgXKjlgS9elUpNvr4LTPdZe9x3BJ60h734XbSo5Q351NFwuT/HrdLI52+eM+EZs+MPnUhM5Errt3JqcQ/qNfTvqa8O+n6F3edce/fwoDP95MWHe19cRgH+txrDH5WT+2sRhPICQaHwko7fSxcJ+ELAPCmxVLMyi/rI4ffY9B+rMPqWEs+RkxM+yIpyZeGoMd0/2mA223JsIal5r8icU29mMZERo7obLrwMt7P3dxZnWzeIiuDapX3st+DSGedGyrL3jkA2pXqbPu/p9t1gLgDDqpXHRy+wkuvaczAT/BZiJmOujxqFfMHtdxH0G5b4+Y2QvFlo3b9rKQro+Pyr198O1wn4I631501GnC9om7yloM1PZyoa6LtfS7VLlimS7jn3LqV+J67jJRSX+E7N1uu3M1HYTV+MlRyB9yKORfLwnU2KBiO3m0r4lfTwju3dsXAPkk5nYdC8Srrx/mgl+fKBD7eO/9tupLyKaL8Lz2t+h2JZHnZyvLhhSJ/m/7OxYyL98O4e1OtT+H95YXaptEWkJvT0+C2vYShz7oGO7ScV+P5yK6rpeh1zm0L/2svtdJvI7rii96ELeD2XYunn04IxYTvvqrv/rtmihOh4gDXfouszvZGX5i+cTtdRLR8zOZof56f/o2nOur8PhH9uhdZsy2WbZensXx7SSRhEfYcdHXI2uloWcRYBN5bTOPqEMfadmFztqrNtXuUT5ykS0hrsvp2PID6r9v54yKd+oLVYof/FJKT7SIGnEZV+7UHl08elTv2qatiBbxeH/F3Yu72+v8evRfTwP0aYFqt+KSUubTBRpPJ8ct7esc6dsHuQ1Njpj5z4kYxGK/0i/SuLPfJAcGm+rby3k8lHge4RJY/a9jpJqmn2ybFojEK3rfqNv2lckM6Y/qfdtJ+7nS0yMdnOvHdXB/Yns7yi9uPnXmLq7ED3idHC5cBOpiuV80kH6iSH8OP4mBMqKTz09Cl3OoXfVTsT0WeN9mMVWvtLft/oJ677fuIAQ+Luqj91PtSAqNZV3AmQhSclKICzx66jNu6IiXMSvNSV9tqC6k7Msvieby/QEnEwzVZScz9DVxWN8thvD6tDG67mS7CZIhwyYWGrEBKWkeQv1bb9fj+hprxp0obGu9Lv9yPt6v4xRh0ufJAAuCO3dUx0sF9cQAfX7Mj3EJNPZ7P5Ed9bUj+92v2PP4XPbbtl1xN5Nq+6W3o18hua9j3+T4j32QsYdQznMztq1eFsCG7b0d4+LvdyjfffJnkVBtiQp5uj3ZVkAX9eRFeL1S4XXCy8ornqczAcXsca9L91NsXSd0Hnt7Yn3+/2ZRZ/ViyuwA18kAOsnqglEinXw8lbi9+wm3ddS22lfqzPz8hJVQ1uO8Xg9KZ3h8+bh9bx+oVxsqO9XvfSxIZ+BW7ansbUWei3guAshHzNRRVeOii38d+uXLPTJUH0LoA/tllOMPtSWjnPrhd0RuY/aXhFb2fa+2QKlT2zgZW35y0i/Znjhs+SrnAmFQdtXuPvmdii8KlM+XBJgwo37GrI/qlyPdsQxDtm3odohr7WQZVdgw+adPbVM90YmybfslcI9qbHLbY/tyX6evS+n8OAF8qr3LffWxiN9LuI/7gfwc2VWbZe9+3X5ve9J40H1l5/ojPDbi5zIQY73ef/OYn9kvOB/96Ec/3g/4o5NEetnNwKZLXnyGSOeoPKvzC4LapNwvFNRpcj8S9Vu2Hs+h3KXT9TMbkF0XJq9K98NS/YHK01fydac1246S8c7w6EJEzdin4xb+GYN0j1nWo4+yJ0/KxJL+JdkOLhtVqlgjr5+0PT2O9r7uUbzs6WYz3LN/Y+Jju5D8XH5MWnw2P7eVbc7JvER2Jft4SFcxdxFb2xOo8/EHj9HjgtuBwrtNaLeY275MqEc4RkLGGOwv59RjfIR+8dXIjx/XR/TyC20ePbx4pK9Q5j0OHAAZm7bLv8ZD8ZBaFOipgI/XZdTPQjbdVmPQQX90HpKXiFl5hvRKNbbXRfY63/o+F2sRcLNYC4AJcZJ8l58oHR341xHwk5K8Lh5KvV7I13HbWTugvKeITlq/63e/GWpL7V6n/Q72bkOZ7c7HseNC6uOgRQAi3F9NSecS2pTY2vybbLFqYtBH63IcHvN6udKaLOrxrcVPT/2BiLcXqkkx/KoPyp8i3Ra/yQyNh8ZErZNK8glATFbbWPITaf6bYBYAt4fc4gtd9mPPx/40Mn0smeF9JT87nipmoe2b+yFDOagyf7zC+1d9rslf2zIsiBv7l+89eBiT/oMHDy4+9fqnLl5//fWLN954I8sPHkT65htR/yDfL8GbHfnEQ0bexiPGM8dUT0Z0zNKW2lefdj9UJVXnqfLQx2vGbMy637k4szY9hudnuL+uIZL+9HBx8+AZ18L42Mc+9qE44P+lUdxOAD8RlArXux24ruuVun52IukEkxxN4qp3VCb1OO6rPjyNgPs73c5TLqC6mOqCWnq/qBJ7vj1wqgrj9Cm/KkaeWCN2xRl3hEz4TA5I3BnWWJ5exNSuhBgEzrg5RfRtD1Gf8BlZJ32HAP602ffDUdplxqa3DqCrMR8T15j86272NB6J8qNLJ/VC/XXQIW4vncRRWanuviOX5aipv5tb1WO33fWPtnBLV/nkXf+ji4cP+QrbN/POnycAj2JBoPQJ+z6Ohfqkg+StbF79h8qhzEzANo5s5NU/30ZSjyFcJ1vnpN3I9xjeRueqeOLIrrc9S4XOWaSOpZI/82f+zPcMk8UNYS0AGl/8xV/Mt//9LVWqg98PeOmUStzmSC8fpcqD5x2d9Joo9otVLQCE7JRXeqQX6of35yjtoJ9t30xUN5v8ESYjmPURqojNiGeiGBWnYsqOONzVM17c7T+OOz09Eub7zfXtbWW3P2rWY2fFUnewyztW7LJ56sur6oZhoDpSF5Ct20O3UV56rxNuo9R9a3G1X6hZDGgC9X0ge/A6UF8lzjld13e8HZoazW1pQYF6Jn+9Ph/lWguM6mgrft5i3z5+mHf+b/I99uzjh7Gvc+LnG/vi3MmJPxZf4+WBXAyM86l6G395jwE5spXLbdn7tXdwto19LL18hOxm9rOxlM1VY9yR/VE70rsI8jqOED+f1wLg5rEWAI0v+qIv+r+TkNeB7yfBuZNBOgk65VUHsvc64Tqd9BJdpDTxuy/10HUuHWzVD+F50X2xOZJZvXS05ReM0zEou1k/Vac07YefRG+CQw+EIdaTJ/xTk/114IcxGdRdoCYEXfxjEcB7CvJx9D5eET3Ter8BesZfi6+4WGZtteV9r23a8X0OJ22ETqLyuToxa8/rBbq621cf9uN1Bva9HZdO183sejxQO0j1T2lWhx1/d5t8ChD1mvxJczOY/NkvLO6ejH2r/Z37WV9gEwHjN8NHcPahXvap94FEPhvFojoR2urvUEfL1p+y2cuExfAUr++ortvMdJ1u47YzXafX+X45gjqOHZ3D9eVR9YVTawFw8zi+CrygxEnw9X4Sz04GP1EksxO/x0E0EegEQgczf0AvUVmxJN0GXOd6Id+r6HGQvFOKVPUzenxtt4tsJApF6u1lGwgT7ghJUn4RawjauIbnRV2v73Ph5zEwr/vy+u+bbz7Y7vx5Q9iDKCPcKT7ALl8zrsfG+Z/QQmTPm8cyDSFuiRYDO9GrbZsQ9rNvs1C9511mnIzJNSn7UThDj03a97XXQy/P8G3p9pe3+TTNu/7MM377AiGSTNOGQMQdkzUTOYs6SW0DRjiEafzU5E99LA7zScCTXCiwYGCRWAvDWhwij3PRhyetVZ/ogB/PLrUN1T/QNtc27X4qdxEaLx8zOPL3tmd0e7dV3ttE/BgQ2Pb2FzePtQBo+AHdD2ydEB3pVI/opFEdEIuT5mhCkO0shkR433oquq/79/JV9Bik5/rnqK+zbVbdzp7f2wiJn9BEfvQlLbSPiBkShzP1bz2uf2X6iMk7J/I3M8/rwjVhS+ppSr5hDPu4+Ndj41ow8Kax119/IxYOsUDgkXK+eSwWEJHPeLyWzJODsd3bdkSy9XBsH5Lbw7YMe7H5BT3vZeH+vT7HpsUH6VTv+871EtUfcVRHf/o+flr22BWj9m+MxYhboePP22RCUofo+JIdb4Jkoc1/M9R3Gbw03ghaLweRsq1VHgvGscjTewY4bniZoI4X9mGMEfuX5nNRUu1qUa/tVwrqTxf5StAJ7Ys+1jM78Lii+85sFc8FsNVxcNXxIJ/FzWK9BGB8/dd//cfjQOY9ANMTQlCenbDdDvpJM/PDRnbSS6cTz20c2feTuPsL6RH5KnU7r+sCbgvSz2y1zbpAIqo7wvtZYB+SbpUnRsYeeUzrjo1HwXUxR/IukEcDScXLuCHhuY3d1mZMBlzwiZEvDeQd5YgVk0GNafQgfDTpILBtV3a1+gVbbIQfK0PFGr4DL/e8+iwRyisudLveds+DxxRuM6vv7cAsT6r+q7zb0RfayCzDmOMYBik556dmH++yKa182WeqpybjDWp7oz6VxCUJG37yZR5yaThsMMGu2gpl/s1yqau+4WPp+8uZ6Y/KLkJtgPRef0Q/fmbSkd7PYz3+56WAn/3Zn10vAdww1hOAU76LP/0kUJ6TBtHBr5NI6GT01GWGYku6j4twe++P98lF9Fgec0aPg2gMur7bC/LYc6HQxaL7i003foYyJA5TCXrZcadXVjkpP+ZuLYWJGokJ/EktgDLi5pelOPjjhwk8yjxSJtpLjE/EyteGWQREPF4CqJcB6ut19f34fJyQdi/d1atTxkl9G3b6A9jITjrh/tqGc/taeenxz7420SNulU/6aXQ9ZckRvT+Ijh8XtzsJl+r4Q30IVdx91+v1Q3LCDj/m+0jZn3wPwu38ZkNen47zgp1LNYZhVCX+1vGEusaClwOebO8fYF+Xz+gDtvEXYmuy35I8gMoky2wXxzrHvL9O7ueptj39g22bss09zpFt31+eP4diONKReuxZTOn9mJnZLZ591gLglI+PdAonRz8ZJar3suM6nTxHJ470va6XvT31q0+wXdf9nF52uj353o5Euq73eqXxJyU/tkeaV9GCPBd0JvrdLmIwaeOPbQwJ4+KP8Um3R/12J4gPX5ZTMUc8Sysbf4g80ow9ngLkPgktu0G7Is1Cu715kB/SYVBx9rRT7aq9na47qmebOrLtPuqXiy7iOh7FLC8fzx/phPrpee17rys/+jBm8kQ2dQxELn6gbNkv+amO3OchkSfOrZdi4h2P/e/ko/84/jNauiYZK9uuSf1xbD+v89eijnFhn0Y7WGx9rRhbecSoYzdCV+WmYzvpg0/8Eh8D4eMnAdldJdB9nXO2Ej8eEGzpq/orVO8LyMXNYy0ADE4Ax08MnTg6EfwE1gniui5CJ47E44O32ZFNj6myRP3wOuW9n1ehPrg/eN/QdVF8Hw9vFznxzbunEVs/WxulF7s/F+76YfKtO8O6i3sUk39dlCJG/IbH3v6JRJyx8Mj2R9zyKH1K6qiuMnH6hZx2ss90WwJKJyieUBkhlo/zDLdHHJVdP9Odw/ugvOuc69p5H5Tv9nLL+lzs8Vo+EvnYF3zOP1+j5+N9bz4cb9h8MxcCLAQjQtreHvvojvYVbVKbbWEVEopMU086+jTKsPe1FgsSIKLqMz5CP7VIHcdX1qM3QSf6WO1jMR9LjyeObB1vU2Cv65Emc3Teb8ZPvrLHlsW28oubx1oANHQCIcJPBKWu97ojAZ04EpVV5/UqI45iQY/vuP4olpjVH+XP4f1R256f4VXRg2qL5tBnHQV03ofdKc1DagEwUsbPJv+tT5mvizL/FGeX0rEYyNAZXpksbDku8jn55yPd8d/z+InKrR3ij2OEbco0+iXpyE+47cxeqE6+PU7Xe73SGd62jsdzx2TH692n+10ud12MY/STscyvM45xpZ536fPGzNfHt/rpExt6+pMv+8T+JxRbyQLidn4R0unljpZSwqjGps5hFgEcR/kGwUgZKn36AIi7SamyDl99UoG28tiQU6Paq7rZ2Dhe1+PJl/1zjqN+OMRRv9R3F98ebJn0fRGwuHmsBcDg677u6y49/tdB308G1Sl1veP6noKfvIhW34jqJB2PDVfZo/PYcOR/jt4udL9ZLNelvpVLhnFeguvCm8IP7XK4crU2wmtM/gjb9lbY4bND3IyfPxCxYp/Wu8O5i68vl8ntGo6ylYf6pu1nEZCvL2sRYAsLFge5qCBe4PtTKI5sSP0CK9zG2cdsj9mR71EM17uddMTWMXPVNshHHPVLMY7qI+pIiBlpjKnAhSc8LADq63zrI5uV530a+hRHffnPycREML4vIL8wKGJtEn8jMK1oE9DhpwlO2755kEAci3G4lRAj/PM9CBwDeVztl1fq9zg7lKXzuj6eMBtjYm7bGPj+cFHdOXStU9/9ePQ4PjZr8r/ZrAXATr4BUOiA10mgg/+IfmLLx0Wx/MQCncikPQ5IP6vvcRBdFNxHOumPUDyP26FO9R5LbTnSISd9qspxpy4f9PyEHT+oR1WMWmUaisuFiEfA9Z3u44JE/BEk29zaiv5HvNwPOflTTrNKN7Cvpwpbv9N/RMiv0x37kt/IM/GzCCAP3Q98/EDlLsTuxwp4zKN9Kh+lbj+zlThu53WKBe4rG8877jePTRoSkyhpTcvY0W8EP54CsBDgo55PasJ/s96kSYrk9ziMJwK8HJSf5mBxGJEgm1OTG9HnbDPawTYl8nE86U2fcSSUZfqOINmf2i5+2JaT96gEqve8666L+7ivxvtpxaHsx1u3oT0day7qR4+3uBmsBcBOPgHwg7/LDJ2UEp0UiPAYfoIJ9wWvE7Lp0pHeT1DFdR/1QW15eaYT5GcXCrfpY9BtlG69j0zajwJ5Lvi8G58Qp9bYDcthl3cjLABCdMdWF/z6qbEoWyQq0x/ykh9FNNoCuje6mHq1g2Q/U2obk7FtuMjXt/ccRzbn/KXf+1JS23k69l4vnaN2Zm2dq5sxi39daCNfQ+e40p4gnvU9F3ah4mkLxx86HvfXnWjc8TPh89n9OA4ehuS7+Tku8k2c4w6dpzS0Fak2K9umjJSKo2L7RAjvK6g3gtI4v/WTneE4GGOeBwt+8VdxnD6WKrvOmdXXOGRDST8Xj1DdLJ7osUG2uuPfzi9tc9B9FjeHtQAY9BND+MEtG7fTSSORzlPR4x/FuQ5uL58eHzyeLhbQ/STiqOwXm14GXRwQkN5theeB/mh+zv6FLk3iT5mOPmffuQCVZHupQ7J65EM0aXPBGlJ3eHFHh2GFrws67VBO7c5JvCG+jbVdMa7hj212vEIns20mhqOYXQ+uw7+Pm8BOMivjR1/7fuh0n6M2ZQOed7zN3q7a2XyxHW3xA6oKq9zH7DtCVJxhRYy2QGMs878+MnHnftLd+ZD0LkloZ/iS+v7LdokfafqwiKjdHX/SMZLqs/qNv29H5odoLPSoHZ3YxmLgfo7rVdd9YaaDHg+wlcxQnY59Ha9H9otnn7UAGPhJ5CL6yQbU60SAbqO8X/xUB7M2wHVO9we3VbwucNS26s/hvu/Ez/1h6ttV+GTKBKtYKGibO8HLMbZ21BQm9JWJwSaHXDjkxasmBpCb+pn5zI1UhTSvWmy1b3P/omei4E1oIbS9xRh9U/xzHNmoPY91ZOtjLD+fcOS3j8llEZ53X6Uw0wHlbXxaXYdqbPJOnDSFS1RN19GrSEuwzRGPev5XP/8kKJXbiGNV/S6P8pFU1PBPAyZ3zuOxnVHeo1guHHNbIt1iZdzqqxYvglzauG7Y9P3g9PF3us/Mv6N4Pa5ieYyZrfvAzIYnA4ubx1oADPpBrQPb8zpRlLpeFzmJ3gikL8DRCS88LqjebRzVuTgez1PXz/yg15+L3Vf+/S4AX22/xgKBqX3+HZRq78cYE6yynLnhIxvqU4EKH+lLl4z2skn+bOUS2VYb4wflXlF1FOMPj4tv32G/tglVMeNimHedtS7cSJuRbj6G67xOetd1aFe4rfu6OPhqv/r+kQj5+j51PO7MX0i31+82WR710VLui8xHkuHHHXfexfN+C/47IO/FyAWA+jS2c/g62obcDtnE3TtdiN5UT4Y+7XJb61zma4XrOyQwwiEmvegP5ZTthxj8QU8f92NkJifHUKBxqbG5Go/lZeUdj430elAdHJ3fpOio56U33oPx23/7b79ehxfPDGsBMOgHeL9bmokm+W7retV5vfD8OWQnfxdHJ6ROWG0TXOXr5Vk9KJ5iH00W+LLd/Zv/Oukz8ie12X745KPWfdxqHIkXkhfVqvOPXaV9HNXEJXq1ESX6xp3/KFd/Ty9uEWy0Xb3h71ClZB1t5baNfUsFMWIsslVijXAnM0FAu2I2Hh1tt2zV162/QS+7j/vNmMWVuF5g7/tD/ldBDI4VHS/SSY9KZb2kw76KPyZxsaL92Ln6+Cbj/1IuAqovSuN3I0r1M46VEo6RcexEnaTsSjim6hjWcRyLeBYZQfWR9wTsLyPRUgnJaax+HEv8mL1qXPfx2cVx35kI5eXf4wj3cZsek33FAoA3XPJpjMXNYi0ABjqoORE58V1mJ6dO2pkNuL1OINdJgHpdHPsJKRtPu4B8XYRsoPtKvG5Gj9nju6/GRU8/ZuMjf8VVmdqU+NPvnHQnpnffx3U10ov6kphbYRPpCL/HzZ8oey7r9jtejX1OOiF6aYBYFW70Lfuw98nfSAYZQu1S6JhKMZDOka7rezvUq39C9ZdsRwqyv9xq4X5HXIo/+ouobiYw09VBEPlxxx8VmTB51z/44c6f+FVFZfY/7LVva1GGTxwfHC9j8YhfOo7+UazFRQUjjhYAmwzfcKr24k8m/GT7vBhgEGSLz7Hqx01dOxBvQzrZQR8bifC8+4HKLp8O7q9+MM56AsAC4Fu/9VtPhmHxbLMWAME3fMM3fLufJJyEmrx8AnPc1n2do7Js/STaJqFrIH+JUDzFvCqe/LUNQnoJeKxejygGqQs64fau36CN0UzWY0KS4m0hcaEOyYt3lkMwTKei3jQ2xiPKGZ4/9n6AmigiP167p7x1IlPlaYdtGpMIfeFnNKfxkQeSbZu/8G3xsuM2Ln1MQW27Xtt3iMWToIMrfY1u62X1uff3HLvPUAwIyUcA86dVVnHowq4+sRH7kThM5JzD4zzO2LJl77BgiFy+B4DXscPv5chzLOWXD6VfyMs8AYix33yBSb8m/truPLSqTKf4lUQ/9m3bFxfan4jyuS+2mPt4CmyE8q7rUDcTp+v69cP9XI+dngDoEwKLm8NaAARxwv0AJ10XP0kdnSieKg9+4vrJItBxokhmNkJ1np6zB9nMbI/qtA2+HZ7vuL1E40ae2L5t3RZxel/yOjsS/qYqhTtzJPZb/KnJn7tC2q4yd4nyzO3MHFQODRM+XyqTcrIf1N9MIq2+6lioRWEcE2nANg6fYQ+KUpGK7McQp4+Fyq4Tvc7jZX5MfIjQ/phCrKgnTSJU79+5sudnfXO8fiY6dkrQKR0BAu33XYZf7hu2s/a79Lm/mLyZyMd5TF2MUvQvximfFPA9AY8uHvF5/ygTt/ZzxBwv85yMUVA5lelIbG/k2OYTKYNsE/dsu42LoG6Wun3FOa0Hz3v7nVks9xUeA5Gdxk8pQr2ON/7p0f379zO/uBmczmwvKDqoJZQ7OuBndTpRHJ0YmlhcXKc8nIuvVHLEUb37Htk46of3ST7SHY2V4mvbZHt2fHVZzdikQ8akfnkyqD7kRJGTBVJ35yW0gyES/eZOL/Lx92Si3Me/RHEFWuIzEXCBuzPe/MekUtSYsCDY+0T/qo8zfGxU7nidxHF91vE78uqHJj0f8xOfUcZZP+Ko747aORJvZ1Zfon13elxctpP+7bCt44l9wL6ofVL/ca//853ti5lGnDrMYvzf5m5VX/JTExjfCnn3zt2Lu3fv1r4eTw3Yt4yNnujwk2Q8Ao7OpT5qtd38XrIJnY2L8HL2c+B5Z+Z/lXQ7Z6aboXHs+4yUMfvBH/zBeYcXzyRrARDoQJaAnxA62HVBlY0j21mMPtnMRCjvuiOuakeo3nWdbtNttV2S2Zh1ui14O94GOdmfTuoheXc32iANiWmOwrBXO/XYNhcLTBKRr/cGlFtCu+OHVsMs6pg0S9DRL718ANwJ3o2L2y5MNLUIoH9+XGQ/WDCgpw+jYe8nIqZjMfKug243Q/E1dl5WHojCGORPxi0dyK6LSDt0Y5xVJzu1Bd7fqiuRnfKSnerhLtnksOMufbxMF/uCiYdJ++7de5n3l+1qAh8HQO7fOD94AnDxJKQe9bOIuBf+9+/du3gl7mC5i0WIx4Ii/XOMwjMl8hkrQvInu6h+nopvEWgbtS8vb/de97TIz+WdQH/8eJnFVJ/dhuvO4maxFgBGP9ARHeB+Qkgc6dwOiMGJ0b9BC4EjH08dtwP38bjQbWEWE9xXeZWJQR9nY4AI9xHUS9+3f5dhrEmdn7joZmxUwy4yGG1U/d6PvNsbE8zLMfHX3V/IiBXq3Tby9eZB/mtc6WiMZjTxs71MLPfv37u4/8r9i3v3uDMck0tI3b3ud5ebRNyMhxiqP8Lr+hi5TmPoKLa29Vw7URnCaOoHHX8ux+z7vQg7slmWrpCd26uvFHvdEdrW8uU83H3pj+7+796NyT/2C5KT/9g/1OcCLPcFcerb/C70mD/2253bLBzuxX6NCT/k1VdeuXjfq69evP9977t45ZVXs47X/7M/+dQoYoT/PmbZqawvyJfwcxU+FhI43fZ3zlUxvE2Ytau817kIjkneB7C4WbzwC4Bv+qZvyq8A9oMZZgf5TAfS6YTqF0zVzyb/uliVuE9nVifdzGemA+m7r+c76GcTgW+Ltk/bKB+vk+1lTE9o7we+XHRTwm6Tqo7eZFs1kcc48ng+RHeH+QYuG+N6KlB3hkwg9Thfd4w1qTM54H+PO8KY+JH797nD5CUA7PdxqK6ejltuL8J40NcBeolQfo93GkvIT2MsNh9SJruc9K6xCACa3ruyjeXM96QsP/O9DmxqCdtyei5Ab7fqsCk/oL6esDCB191/vgTAvr499u1IGQv889hjzCII+/ju7btxxx/79d4reafP/n3f+165eP/735eiyR9btpHJfzv+QlFPi+gMPaJPkhzBUja0rV2A/VXH336OiW7r+avwOJ1e5zGP/Ho/esoCYH0K4GaxngDYPwHKE/iKg18HvFDZ/RSnx+v+vd6RXW/vOiim981ldqHpNr3O6duhScnbm7XRmVVFy1suL74nonZLlCcObTHxMyFwp87kfS8u4vV6bqR37sYkETJeK65H+dSFpG68hhwpOnyZHDJOSMaJBUD+pz/brr1fSkt8PBzXef78OJ3uD4FGddGlkMhLzF59qvHc+xh/sj7j8JO+x/tMbSXuP/Tdb6bTsaLxOelPsMcin6qAuqoH6nN/s4jLhRz7rRZ+2+IvhPo9Vi222edM/tzxc+f/Cnf973v14n3vfzUXAhw/LBJ5w0hN/Gp7TPzZPr0I3bYw3Rdk6qW2x/HtdLQ9Oq5cnJkvuH7mO2v3KJb79fY7iqtYPOXkXzMvbg7n9/ALwDd90zfFzUGdwH4SzspHJw1gI3Hw0QVP5S5+MZQtedk73g4iHz6KM3uZodvOoM7x8rk6oXYYKy6y/jrszB6qL94f+hhjnWO+9zndScuiLHvMCKNIhK277308ead/jkukb/MYONx5jV4vM4TlZosfuttxp5+Pl/Oun+3Zt4V+eB98zEkd2dX27rg/UHZb2bvdHoP6kQ3yDYgxZnmsImOc2C5+RyHLFPfY+fe0vfxb8b1t8umvSTHKeuNjR7FIe723Baonpf+i3o+BfUlBX6tMb8JoqMc2sB/SgH0x9rlJthH7XOd0jlk+MeBYvR26Gjs+blg+cT75f5ekuZC9b5HGeBSjMvDtA8rE4xwlBd9u6jl3qdd5jCiObAGd+yqd2dKW7F0P7gvyB9lLOl1Pvhbe9y7e//73X/yBP/AHLjstnknWEwCDA1mTGBPYdqFo4vQTj7KL6DFm9jphhfKqV15IL12PLdgOSa/reP2RbW/Dx4wLAfnrtCUwU8yU/AldVZ8l7dJ/7wePhu/FxH3/Xr2xi9fw806e1/J5g9e4o2dyZ6K/k08OeOR/N+4C78Ud4f2L97/vlYtXed0/7Jj8IffPmAAl2mcSoW1xug1go7FyEZdijw1OG9KYxEghrNKuXjIJezVF1uJQlXVvM+FJIsZml17J1p9sptrL91hEXguAkrL3dlQWroeMO0C/H//eByYwbWLVpWSb9CeO63xJIO76b8ViLYSnOPWyTi1C66Ue6vV0ABueCJVtPuo/2f6YpPNb/h6HPuQlFo37wk7/kjjts4yQK3y7nL690M95MbOFWezuLxul1LtIB9hInobuR7x3Emfx2WUtAAI/mLkYS44O6JleJ1THTwxNUB6beuRoIvE8zNrtNnAuhlCfekxQ/yQzVKfxYtskRz6g/uzdIg7x4oAcMXf/SLGLi26Whn6zGZJ3vuOOru7qdOEPif4wwd+9G3JPd/UxOWyvGWsBcCcXAK++ymv+vGzABFELwbzYH0z+6k9HfXRxXHeuDrLNHIgAfWxr1YfEbw4RfRz9Kdi30ffxpEN3uDhoEivrEWcjrGJSTBn9qNqwHq9/swjIzAl72xqjI3zbOvLa/St1l6GJn9pGcnqiU9tb55mOx5r4axHAhM8xwvZFIe2JRdDcx2/FpM/kz0Ig2yQmQh7YtvhLJ6ojg/1c1/ZpHLQtvt1e5/Uu0jvdZ4baUfpuoX4pL9Sfd7u9xXvLWgAMdOBedXJ1/ewkcBvVa5KUgOxmfqKfUJQlHcXoiwnpXC88nmIqlZ3bH/n7RbYvAGQjndcRqkQ21IdEnUtROY+jR98S3aHyU93cJ6x6819N+NvkP4SFAouAXBio/8QP0WNj7TfQGFSfqw/pM5D+SOd1Smec1DFOI1soRkiksaWV16QYOtLsG9uUEzoyJr2QfNyd4y8hVvnXJwqwi9ih3trOyX/kEx1n+G9WSfXhVAA7Lzuhzb9qpOwye0Jub1ZUGj3QOrFc06/2TX5R1NiWneFLl6M/+mKgfCmBhYBs8EvbYGxn/kmDEWOT8/g215idLiQd6WR3TsRMpzZn0m1B5Zm9BGRH6teXxc2BI/uFxg9YDmC9jo7+3AHfxU+A7qcUuh8CM3tPXXyyUSo8pqCs/um1Rdl0W1C928FM3/vlfXM7IC/bGW6ffzc7fKwoUhd1TPhjUiqTss8oGY+pYkjoo4ubj/e7+m4X+4H6dNR36VQ/sxG9zsvafrWX/d+k4P/OU/32W/KLlImaST/7Xek28UvG5FdlFgMx+Ue5Jn8mP6Re0q7mI9bmu8fLu+fUjUtHGFd/JcU+nvju4vi2HtmojNnWzmYS/vy8NNL4yfoh7O8Ch5JqrixfisJLY4OZ9FNYBKTUeOSCKNOwGRJ/Ugfe3xMbQ+XZ9sGRn+yP2nAfpeB6fLUfZvsDmYEeez1BcVvF720+Hu9fWNwcXvgFAPQDG3TAu+gEcrDX5Eqd7oRJ3d7tkN6OUN7TcyKbcxy1TSoRvXwdvC9COsYAehsOxf6mrdLL7hr9Gbb8VU+yT1lAu8dQ2OxfPgHQRc73b6U+XoKydMp3GzGrUxs9hbK/HBeT6l/IdtriF+PMj+rC0AWY0J6MO9uImD+py2/BQ/ZFL8Lkl+3SdMZRXF8kFdm77G8W0w4bifdDedf5Nm5QTFXZFFKGZN/obxwnHCvKXyBM/HEubvaQS7+tlKnaTLMak9jyHJcUyqNvNRZD5BNoG54W99O2+xhofBg/v46c9KfR+9LjKUbfJ6C8p4i3Lz/wPnjKMcQi4Lf9tt92uYOLZ5IXegHwjd/4jflPgIQOfB38fuC7zk9K6XlTGW80q28Q441jpx8XA01ufrGdiaM2XDrdb+aDQO8TnGvb8bLbo+/jwfb3NwS6/yl7+70PMzabSHjNNscz0tJHmlfouttXm1nXYquv9FFCWf11zvWLOtVrO5HuI73ynp5S8XCvGEj01Sb4fFki0729FNwjxYPH2I8fP7l49PBR/re2h5G++ebDizffeCPl0ZtvXjx69DBs9I9cxqdIIq8nYTmnEnL8kMt+RQ5Jsm36djp26pPySn2MZzaOxuB0PGqir4k/+pl9fRTFuPtkoZOG1XEPyRMPvCPS/jOeHlS8kW6yQxje/D8+AJCoX8p76vTt6jYeR+MxOw5ndl4P1Pv1xevdXnmvB8q9bbed1QvaYwGwvhDo5vCiPwH4AZ0wOmn84FYe0QThH3FTmc8Sv/rqqyksAs49AeDC6uJtS7oOdPKJbit77zd9kI/rvV8d9EeietHrJbN2VAfqOyLcV3bCfTfCdYuhMKTjkW7KYPMfafZtTKZbav3t0pnpVe51vo2gerc5AX3Wk9QiJnKVpi7y8XP6UUkkTmblw5QFUU7+cTHOBUBM/A9i0n/9lz918fqnPnXxxhuvx2LgjdA/yM9u10KgvhtfF3EtDJhL8yWHtyX0KYjsaR9oedc5fRxAY65x1/7kx9ld21jyB/vxdGP7pr5YFFQMs6evI61+k0b9kGp39ygznhuQ9p8d9dnzKvsY+JgovY6twA4dY9WvLbKXuK7nwfMdr6NNv64gvs8QkA3IZ3EzeKEXADpYJTA7yDnhmNR94kf02VdEd/1ej69OKNrq7WkRoDqvd530pOD+3R50sna6vtuo3G1m+hmq9z6rbx3pvM7HC9T2rN1oIdOstxSy/ZEKj6X9unvsUP80KOYMr1PedZB9VT/R8xtnpd6fgFR/63iSmTLawrAc9ppMuRmO4+sRTwBiQn8z7v4fxN1/TPbIw4ekDy4ePHijFgJRrqcED3MxkAuCRywGIkZIfYdCNKRre8SnzRk+7tq+k+00ZmORwk/m0Zdki7aNp81XbF4K2OMMbU7ykea4cpyRoqNWtnG87g78qTTbU76S8eeQvf194pToGEcEdsJt3Ubl7dhtNl7u9d4fb4v80Tnq9pIZiu8xjmwXzx51RXkB4fH/yCazE0eoTvU6wClrou/Ip8cC/DV5K5Zs+klEKjvlJb1OqCydYvd+iN5Hj9XpMdxXbdKnqxY3nR634+1cYqL3doVidD1QVr99TKX3suS6qN3e/5M4UUW12/IGPP7nQE3+9R6Fw2NKs1PoCckdcf6r45jEkcexEMiJHIk7ZbaTCZ6nA/mywINYAERKmUmfCR/7tCGGvkwpJ9hqM2n9EGyXj5vwsvKuA/J6H4Lrc/tCtvHJ7a0u7OOhFHZftJjUk5PSRfAYJ2Qck2qLhCcdDk8JQpVVI+5p3wr1udfRP+07UuVnMY7Yt7FwX28TOwmg175QWXkxi32VOJRpY3GzeGEXAHHA5uN/Hch+Arge+smhk0v6vDCayJ96nex+0nc8Vkd1xFNsUBuObHo/QHFmMkO+LuLID5vevvfDY8y4rt2Mme8s1pGdFizeb+lkr+1yncsMH2cXESX+YJiSSRbj2MlyyKXH/SXxJ6Yi3vIW2xCSr37EHybrx6PvvPlPH23b7o5z0itJ25zkH43H/kz8sZ1P6vVcXgZ4zMsCQ9j+CBKtjX5mrqBL4mg8OpftRpl+nkipndBWJhu2cRk9y3LlRqr80IR7tp9htiVUxdjiVDvDpOzJzjrUUN/VL87//mQQdMzN6HrFnOkdtXkVsnN7xeopkO/63g7bt7gZvMgLgO3E04EMush3vZ8kOpERythxseWCSZoXyeGjE95Peo8rpJMN6UzEVWVn1t7Md+aPr/t3O9XJzmU2jr3s8Xo6o9f1eB23l22373pS77vKkq4nlZ+LoA8urhtzDM41zaRf1PGTj7pDNqOo5k/45RvaEHRxuOmrj59Ef/LOP+/ia/KvPo5+V4QRM07/cadLHXfdj8P3Ufg+jMXAmw8fXjzgpQFeEhgLAWLTRe8T2+HvSZBuRtleXghTLCHGUB7Qx3fP44j/GLchDv2OHoRTFFJGrD1chfEUMMGWrLV9HbCv7dpFesXymNe1VZ3wGKLHmTGr6/0Rs3i6Hs726+LZ5oVdAHBRBD+p/KDvZcEB7gc8EKvulvYFAL7d1k8Qr+snDeUu8lcMF0dlb2uGtq3H6dvt9bIBL8vHJ8NO16vcY3tZOsXvXNVWjylUdt1RrKv8YNa/bnOO9K8ZJsvRQk1SIeSE2snH41GmJmvRjUmf1/wfx+T9JCZsPuKXEz/WMUHnJE3YERI9bzSMQyWFlQQ+3PW/GRP/g4cPMkX0HgHqcj/ngqN6sE+25EOT205+NHSG8in7EijdXld2ndm4C8WUTdrxu5XJlySqq+zeFRh1lR/pBNkc9VUwfv1GwUX08tNw5FfbPsbDuKotr+t5rmG8/4lrDtuk7Vo8+9QM9gKik0AHPnJu0uwnjft1AbdHp8kb4YSReJvyl056kL77dTttE/R69Un9mpUd91eMDj466SWK033Ulrcz00EfgyM72fS2hPt3esxe9phqw/cXSO9I12VGtFaTTjYZNszQ2I6ZmkmWOu9b2qaEXaRM/kz6vIb/UK/l87o/TwFioqbt7PctG9N8A1xcqMmOvhG73h8wHvmHPy8L1JsD65MC+SSAhe7Yz1oEiIrP/qt2+nj5dsy5PF6evy5H7RzqckCzlL+h3GXQ/ZxzdXBuGxgjndOe1zjI19vodc5Ml9s4RMz6fJ14/VxXHFKODY6Zxc3ghV0A6ORBZiegv6NfJ0A/2EH+sveY8gO367EVC7q/l+Xj7aiOVPR4YmZDKlE8SUd2HXR+MZjZXMWsva5T3N7HXgbZep+kEzN9txHeRm/L6XVuL33+jWY8Ao/zw6BsQnJuzzQkLOlWzOUnkn2PDHeT+Wa+mPx5Qx+f968384037+EcvxHd+kHKcYPwz3D4WuARc8TVRZ74mxAzpD4VkA7Z/9oahO5XG0fHpafKz1AcjyGuE+NcbOckPi74messTu+Xyl0PfRy6rc5tvzagc2QLs3hK3e5p8G30GB4LGz8mlO9C3eJm8MIuAICDm5PJxU9ExE82TgAXHfAwi+UnD6DrJ3q3cajrcWWvOpU73kfS6/r1OsVBhOcB+9n2Qo83QzYeY9auj4NsZyJm/ew20Mui+8/wPh7FmbU55sogMqOOMBkrY0YSddvkH4cZdTnnhi2Tel5s9Y7+mJT3N/PFIiDu1B/xzn8WAEzmPN7PoLSFxPiFvPxSHOP8f4C8FEQ/CY4MeH8BEs3kpF9tVlrvO4h6s6/YtT3Qx5BxYN853caZjSn2kusyi+P7RXnXHXGuvtep3PuMnnE4d73pyIdUAn0cvOztuQ943nFb/Gtf74JOQlmLQ8qK+W3f9m3X3zmLzxrrCcAQQZ6TTNLr+wlBueP2IBudIMTlxJf0drCTgOoo+wnodeB62XZ7cB/o9SB/1bk4vi0+ZudQ+4h8uoDa6nbuSyqUV32v87LHdnoZuq/KR7ZHyEcjyFws85p4Y3zHpBqFKiNZiv2Binz48A12T2JmfjQeueZn9lkIhPAmPl4CoK4+BTCOg7E/tyBj0t+lyC8gImWRQAdxoV/ZgerT6XFVom3JJra6gji+D30/ZhuN7ntk4yJ6+Sq8H2pHqcfx+iNmfdFYKQW2n3NGk76PB8hOqeq6jepFL8/wGELlrlcb9F3M2pAdEMPtF88uL+wC4AgdyP2A1gnqUJaAfPxEFyq7XnH95O+xHOkQtxWy72lHMa6DbI986AP918XMFzTnUP8litHHwgV6X7p+xizOO2EWZ6YD7+dRv5JwwSvv9cMuFwKQKX9KmJKVI16+Yz8md16ff8AX+8QiQHdi+fl9hAVBpKWPRcD22L7aTCKjuPzVtw/qrQjAGwnfevtxSL2ngBj5VIH82L74HULeFwc7fYx83FzvfoojnZeP9M4s9pGtcPsZ5/rrzNrysuIolvJu48gOeh247si/x5jZzZBvF0EMrnuza9/i2eWFfwIglOcA1uMsIVufnMjPJjqdCKT9RNAJQnw/UTyW4ikv8Vi97aM23R9UJ7uZnKPH85T+HE3+Pf6RP+lMwGMoTtdJoMfw+L3+aTiKIR2oD07XjV6mpH/+DNUAn1wURF7hCZOP/0N4FM8iII8nJmnu9nVshWyP7NHZMZdtR7yKyZhxvD+KLG/e4p9aVZvZSxoMXS4CiEXcNvmXzT72Ttcpzsz23HjO5IjrxjjSu3RmMY9w2xndV/GkV0qcfvxC9z/XXq9TO9sxMWJ56npQPzjPJd6v7ViL9N3ie7/3e9/+vu/7vrdJh2rxLvJCLgD4FkA/cJUHDvjZgSw7HfiyBz9ZJPgi5N1Geo/f+0AqAfkexVKcc/QYHa/vNt4f9ekoFW4rZvFl43VeD7O6mQ3j0O2Iz9hK1K9efhp62+BxlJfI3vt1CXwRwI59OrYH1MPttX8md+xoY7y7P0qjjfBL63GMhK2eAGjipq4mdiZ/Pi4YQjn1ez/KjnJtB/7bJwCoc9NMR6aBuo7Vav/IDnzsQPZHfq57Gt9eFkd6eNpYoL6Q6pgT8lNMncuy7cep+zpX1YPaUJsw83M7t8eGvvgCoD/147rGS1Kknw7f//3fn41+53d+Z4Q9v12wFgjvjBdyARAH6w/ooOoCmkgo6yD3kxCorwvauBi2svIznexduq3rtViQUOZNX+cWEaD+ejyX66AYiut+rqcfs5hu0/F+kB7FEF7ncT2Oc6SXn2LMhLFEOrN4zpG/9l32aeiyF/WC/ihVv0JBQ9WWCVM8TwTq9fgRD59oj/cE8BTgSfzIj5RjpL4USGOLxDETE3+mIeEeQl9DxscPke2z/eMjfaWHiJFPCUa8rKPJarPaERx/IxuQV73bS5yu6/Wi+jZnFlf7SH4zG5jFla3seyzRY6qeVOdpF6+X9IlWdqL7Q+8jzHTelnAbtxVqS33yBQBwvF21AOCOXhP8Eb/zd/7Okw2d9cXx7V9cn33Pv8DooNdBphND/+zH/9EPddhx8dUETOoTctd5bFCelHpJXtCHrWLM9BLQCYzo5OxlRBADZragdtxuhnwVB9zPU9cL13dxZnq12cXrhPKz2EI+kj52yFUodref+aKRtiZRUvmNmkxGeev26A/ZXASE8BMKlgK8KTC/q5+f6E/e8edd/5joQ//yS2/FSR8SKV8izOf18/8N3OL4Hp8IeOl21NVHA0uigdyuGBd+Mi915WfbmQbDvtht+r7Q/ukiPA/VrscujvyvyywmzOKda3+G2+q8Q4TiofMJ1idZxbjOtsnW2xVqy+tm2yd6DMreHyCPEEfXJ0d36d/xHd/xUp/gF58dXvgFgA5WCeV+ArIQQNBpESDw0SStCRvxBQExXYTK2B3VzXRAH3UCqj+qkw6RndteJddh5oeA+qkx1Rgc4bYqSxzi+/b0bVJZSH8duq3Krjvq10znEKHktC+b34Hv1jSZ7IviSEb/4lcRsg0KEbPeVDgm+lDGoXtx+9ZLF3dux/QeZ/6tl0MX5rdi3G69HJPMy3cubr98L1MWAUTL7uW+ib6isS/48fHetz/azHcyqlzUWJIOhSFfjcdMnIo1tt04sp/h/ufi9fS68We4P9LbA/WDsfVJH3udR4hQ3nWO2lBclc9xZNP1vU36qsXKDB7nj+xTcbRtDouKkV08BS/0AsAPLE4uTdigg51UiwGdkEqBGIifnIqrGCofgR2ik106T0F2EuF997aw8f52fwS8v7N6wKbHB7ejzqX3C5khW0/dlvj0X+Jtqs5175Rsc7St9hXT+wO9DPLrAtE7puYUOK0faWUjnyZBbNvYLnnn9map6shz136bCZy7dx4HRID8Nr9HD2PyfnxxJ67Hr9y/ffE5778Xcv/ifa/evbh3NxazcQjXG/5qMno5Yrwck399LwBxosmIle81iIWEOubf+0+/t+8aCDklA1R2wr79lVfaBdTeORHdT8zspJNevvIXXd/LosfryGdW332x0zmk8wiZ4T7QyyCd2lDZcZ366jF1DoLXCepmi4Bzr9HzcgAvC0j08oD0vY3Fu8cLuwDoB5UOZj/JVNYJKBunl4VOFD/ZjkR2wutU7qgv9O86ffKYiqcYwstuozFRvdt13UzcV3g/hPu4PXZ9jBzZwZGNULtu523xN8umV53YbK3uXN8wIaLs5VOEH8WtLrMx6dbd97AIeHwfx1UITeU2xOnLZH0r7tYRyrzez9cBPwqJ2f/i1VfuXXzwg5938at/9RdefOmXfPDiA5//ObEA4GUtnmbhX7E3eSn2Vf5wDsR+502CY//z8gI21X7koqxjo/ZxVE+p2L7dPhbSz3Ritt/gaNydmV9vq4uY6cRM58zaBelUj/i1griMZ32pU8m5a5D8en7GUb1iemxvCx/66Dc/QjERJn9eNkUc7v7PLQLUFsK2Y1vH1KHL4l3ghVoA/Obf/Js//pt+02/KI+rcScCBx8nGY/wHDx5cvP7665lyIuqglIBSPxFmoOfkcTnnM9OrXfrhJwh2igdu5zY93jm6bY/tbfT+gOod6bqcY9Zn+fV2e6xe9jGQP+mJjDp5Yp1i/XB7lT0Fz6GOlkynvmQmG6AuZUz+5PNd/3GHHR2lYu9HyNt5Jx77PH7ys/l889/DxzjFxH//4ku++IMXv+4jf/3FV3zFhy4+9KEvufiCL/jci1de4WWtixCebIVnxmDBGiFfzhajGSYa7jh5Gav+qRC9yf6mPb1wSlfq7OFWlulsfK5DxakgyqsMs7hef13wn4nwPgjyM9sZRzbE6OctxyTXHokm/35+dYgxE3FVH0H26q8Ejq5X5KnTnT8ya4tFwOzNf7wfgLoe34U60FMBX0xQHtnFU7LvxReA3/JbfssfjQPz4xycmjg6HGi86Q/hdX/KOjAFfn5Sgtc7OoF6m15WLES2stEJAKSqd1EcCTr5yXcGdqLbet7tgDqd6AhlHyf5qi8d2XSZxZBOemcWWzqPIVyH3cw/GXbunfnQHfl5W2oHM1MftIdtJFHFE3RMZEUPIkoqU0fM0DwJw8dI6PM/AD54mHf8jx/GXf9bTy5euX/n4gMf+NyLL/qiD1x8/ud/7sXdOy9fPHz04OKv/bVfuvirv/RLF2+8/sbFg4ePLh68+eTi4eM4/lhfvM3/AuBjXMTkmOSbBWvByz6+fYdzou7s7ofoPTH1SYHazpLado2HjgFte08d18kfPN4szsyPtNeBxwWPo9R9uj/MYnTd0yBf4jDhc6PBFzyRUlYfsJN4vyhzfigvvF/ku4/bOtix3wAb9rPeB6V2FM/PcepYBNy/f//ife97X8oP/uAPvvOBWbznvFBPAOJg/rhPJjoBdDADOh3YWoEjmux9sqZ8JIqFqD3H9cq7nfqjvklAPu8WiuciyKtf6qMEZn0Tbqu4LoK824HiXQeP5/5dtG/Ig2w7aLcabIc9eFvCy3v7mZwgX9lUPrNR4E848Zp8CvVlU8/9qa3tIHgU8+TlfQC3bt+6ePXV+xcf+ILPu/hVv/qLLv76D33xxZd8yQcvfsXnvhoz8OOLv/ZLf+XiL/+l/+bil37pr148iomFEC/FhF8/RAp4nJ/HNd/49yhaehL74yImfS7o9y5eeeV+Tvz5iZiYCOpu7/TjsRLHyxp3H3+vV3kmID/Ry0L2Aju39ZjKd58Zbuvix+05up9DmT5yfPp1x49XnSNwFEvbqmuQyi7noF5tIsT2hb5sJB2ui3pq+uabsSBdPNO8UAsAx08eHdgOJ8Fskueg72Ug1cIAiMnJqhPnqB2v84sp6CTzNhzZvVO83d52R/puozHwfsrmSJxe9jieB88Dvt5vxfL8VbjvJT/aJw2dtzyzn+kOiWBhNQrAdsY4ZivVErWE2R65xy9PCPK4YxxCsLlz6+V8nf+v+7zPufjgF37g4gu+8PMvPvdz33cRa4KLB2+8fvFX/vJfDvlvL9741BuxFsDndkz+dyJQGMQiQN9DEGHHt/yV0A/G9k7c+d+7d//ilfuvXNx/JSQWA3fvcvfP5M/4Vz+xz79jH/V9J2a6Pl4+jqpTPD/nYBZvRo8Hnj9CPv38UF5loX56v2Z2DrbaLlJdR3xb1X7HdWpXPr0MR/1wW2xoD9Hkj1CWbd8PiouehYueYCyebV64BYAOWg5YPxmU18GtA9wPcqfXKa+4OoFm7chX7UgvPC7IXvlz9PauYmZ75N/76GN0rl+9TnF6emR3FN/7A5S7OLN6F6e3qdqZffcFVKWvOsVLGT+p5yeymtRRy6s8UcUEnZN0jPmIER4Xt6LmTkzC9+7curh3/87F3Xt8WoVjjsf4cRGOO7GHbz68ePIojrG3Qn9xJ074u+F7K+K8HPE4FuMSECnv+cv3ETxhn9I2d358BJYFQEz89169eCUWAvkEgMkg1g+12fQFib+jb9c5LmZjBhpbCfRYvfxOOOff+6DzeHY+i6N4M9sOfroWSLQAEIr/Ttvo/T/ykR0Tvr+mrwWA+3l/5EdK3/XGxcWzzQu1ANDB6icRB6yLDmqJ28DM1/NuN4sjOLm9TmlHNke2xDx3YXonKP65eN6HI7rNO+nj0/ZBbZzI+MmPzfU6lxjHyNSUFrEz5a/GI//uyM/xPlGV9cMmY6o+VNUC7D6Z9yKgQif/t9+Ku3g+FcDdGhUxWTx5dPH4ycMheh358cXjR0wksU2xAEAeP3kp5OW422dBUXf+Et7kz2v69U7u+3G3/8rFvbuvXNy9U6/554QQY5QfAxwd0za5ZE1LxWzMQLpuf8Qsfo+tOum9DRedi+C2COeWRDroMeTfOad3oQ/cOSNMnN1PNu7j/QGVr9J7XYc6tlULAMlsHDyOym5HjMWzzQu1AOAE8pNIB62vcP0AF37SIeB2slWKDSexTmS3cxvVCcXu9jMbpUB974/7QC876gviF8NOb9OZtSl6ndqaMWujp45iyU9tSV7W19mek7HfT2zzdfdIM2iGrnbsGHK8D7DHL/cRwjIO7ewV6TOEkBWVv3G8xK06S5Sa+NHE3eJbcbf/+M2LN998cPHGGw8ufvmXX7/45U+9cfEGbw58gkVM/i/dvnjy9q2LxzHpP46JPtQh7O8QQkVjt2/fydf63//+91+8/3M+5+LVV95Xd/y3ueOPHtb6aEPn09ExI51SjYlwn55HjuIr7zpQfPalyrlfh1BWbBfwvMfp/gi4v/w6Mxv5d6hnO33y722CxuM6dN/rgo+2meuix/G8+gnaRgQ/FowcO4tnmxduAeAHKiJ00PtiAHTCyVe4rZ8U4LFVh71sVO/xHNlLFEPIz/1l00V1Snudx+rb2Om+XvZ+Iqp3iO3xj9ryGJ1ZneIqnmzyZ+Szf5Khiz8pu40LY4+e44CJg2OhJkx1m8Tb7X3oZDvxw2+SASqrPqRfdSvbyfcG8L393PVzx4+t+jX6xnTw+MlbFw/eeBST/xsXn/rlWAg8eJQT/dsvx/EZE/vbt25fvBX2fHLg0VtPIo1jmsajIY7hu3fu5uT/6qvvu3hfCO/kvnuPd/7fubiVLytUV1ksMAZ8+Y9vb9VWflOdYTZmnvo5dySOxptUdeT9HCpdJhuzWIC9i0j7sZ0w84Ue12OpT379APdxG+Xl/7Rcx0c2buvt+b7oyI7FC6/9k9JvFgGLZ5sXagHAwasLy+wCAxzIOtkAGw5o2YIOeNkoPYJ6b0cCvYytn+yz8hFH9R4fPBbS25ecQ/Wk6h+p91X14O13et86M1+14aK2ndiyqs9Jc6/LiBRTFaVRlXFiolS8WgRE5agnXtkPhRh91FhuwnETIiJa/lQHKqx0enkCmGjLv6SI+tzGEI0zpzAf4dPj/cfc2cc+ffn2xcWtOzn5v/VS3PlHiIcR5xHHM1sRzdy6ffviTtyl3YuJnjf38S5/8rfv2Gu/3P1HW/RAE//2nwhDqv8lO+pvkf20bfO8IJbSLk4vO8SkXuf2nNO+nPYc/cgGaj/P/bEfsn3rQt+OI9Qmwnj6o3V0WzujTfnUMXh6Xnn+Kq5jI9xW8b0/R33UIgVkg/6HfuiHrt/44rPCC7cAcOFAZXLvEzzoBHC6v4voeUTxvQ3Flg2g85NbojrlhesUR7GE63pdj9eRb/dT2dtXvl+sxKweZm2oro9ZtxPY6yLkcfMf4+DDT5Z32SEfwgvgurJHiHq/APEsZv5tjLotHaiv8tl8N/MYj+1HasWIlC5t/aQsqzG28VMLhtBGH3lj30VM9DXp34vs3XDhkX9M/DFh83l/nhIwZfPPf3g8m9/YFhO/0rvIPe7497tO2swxY/LP/TEWJ5Gqe9UHbUn1WyKyfsi58lVcZaM2Z3ZqQxKaqsj0VKf+5/EXG1zH4TiebLvgNOZlvL4f/7C1c424itH9u2/HY7kv9DrVk3pb3o62Q/UzW2f2BUCLzz4v1AIAdBC7aKKZLQZ0UMtWNm7nInRSoFP8mZ2QvUvnqhidq2xm9YrtbQkve37WV+HborzrPP4MtePtdRQrJ027U8ufSDX+Egz5iREtp1FKn5zdorBNDqMY0Iz3/WT+yNTqBtWPOW45ehBisbUA0YU145OMMZQZf3hSweP+W9z5v8yb/i8ex/Y9jO19xPEaKdH5+t+7t+/kI3/u/u/cvXdxh8f945H/rTuxACBOLioKhj3HPodLaVZVn+jf/rGAtO3Hj+uExsrH7CgPuc1DjqDOJ6a9vVOfvRvoh4y41KnvKRwzmWZF2eTfY7yviHRwEnuI64Ufs64HjyXkf2TrHOlcNI4ay27jerWpJ0ed9d//nk1eqAXA7OQQ6DnRfIKXvcQn/i7Uz5Cv57sInVgzZvau63WgeC7gtjOfGW7fRZDXWPR2j+J23M79vJ0p2Zcx6eTlOcRc0p9+jTKVGTIltGablPmupi8xyeZFz19OGK5ud47NLiBfTySi36Osv0zAeYdPm5HWhTj0SDQR6urDkMpnxEgjXsiTKBM5tzPAJ//zH09L+Bz/rZjwb/PI/+7Fy7EoyEmclw+2pw0IYSM+QmHEorDvn7KDHH+TI90RV9UDbfaJqdh9vb1670a9dPE4zt/HfHsiL2OMhSJkvFz01CUR9RYjx3Ck1KWFt1YoFmhs1D9S6v2aIZE+22ji1yHFuQpvs4PO67utdBrfy2NcyA7om7YF5Ld49nlh9tJv+A2/Ib8CGGYnk04yDuLH9nEcHdjKy0b2iPs78pV+dtK4n+pk59L1zkwHR/aO6vuJLr3r1FffJqdvi2L2WG6ni4W3T+o61C5O1o88ISMyuRFfEnYItgowqtInTdIi6jklIj/siJ4/Ud7eG5Bp1V0iYqkNbadv72gsoa/1I9uT6uxDtpcLDwljVm1sgmlEqU8I8NnruhDvk7kY/cqUbQhh0ucywGTIew0R+jFs8suChh/aXGTkQmPvKH3vx7LoZXCdxkopKM7MV9u8dSnLmWSX8NF5x0SPPHr0+OLho0cXbz58ePHmm6SPsoy+3syYgSpICOWU0Ujl+Tnm0jaFbH0NfJvclryPXRehOKLXC7Xp9kd2Tm8LmbXRYwvsdI2knnN38ezzIu2l75oduNLpYK8Lx/5VnDqoO/3E6Cie2/nJozo/+Tuy52TSozWkxzjyvS6y9fa6/7m2vK7Xz3Tgut6+U8VTnUj7kSdctLRdqFOy7awegULSpya19Ildy5PdfLqr+jHR+2NwvLx/VSZNly0/Y7b9oHgeV2Tf8k+VqdabBNMWcxLK8UNPa6sijUm/7tpjO9CyHUgsIDSpZZJZ2ohjcNwNV5OqHLbYxKT/dk7+nAthz0/a76Jj+Sr6tkKPdUTWq+34yb5Zf9Fzzur8ZbJ/882HFw8evJnC19NW/kHUvZnfl8D3Jjx5K87zre0RL8Yw/zFTlDRuOda5DyJfqkT7RdvGX2wz74ZBL+e2bG3veDzofkJ2R/Xn8La9/a4j9r4g39vyNrHlGJhdLxfPJlwznnu+8Ru/8dvjQP34KB6iA5gLiCZ+XdR0InT8BNCJ4bqOYim+x/b2gDizk04+XVSn1PXnmNmqbW+/4/3xvvt2uQjPK3aPf+qzx/DHtkVdoKPF8YPvPoZFxI87Xd78xqReNow3+6EeDVdc2SK13Vm2PkoEOU28qK3qxM7xvnnM7RMHGa1scpvCfusb9ZtPZofUxHTrpdhOJH7CIn/yiUVuz74vaaGWAwTOVnICPL10Rx0T/8sh464/9wGjnWM838/IjK3tIXDkO5KwqxSo00sm+bOVMR5bE1n25yP+LfJDhEUAd/4lD1Ie1AIgFgMsAHgSwGKBb09U+4xQjFwKpdTE+DGWOZ6pm6Ma+l6e5Gubtd3Ct9sFsO3noPyVV53T41yFtyfcX31AnN4uyK/bLp5NXpS99AMj3U6cGbMTwGVGr3N71zMp5kVmLC6o88m+Q190cnuf3b73F1wnqJO8E7wPMwHF9ra8PdkB+f5Ew+vdVyFIffLffOQWadakb2oCxi/ib29qqwmi9kU9Hk4ZE8C+gBkLgywf383QdHX78ngAsVyn7ZII9y1RXGxM4rfu7KkrMNufDIzjJbW9bmgzP+KPST3TLGMQefqW2x3bv93xl2yTf5b3bTk6lqWjfU0i5DtuV0I+VZlSHU2kXb3Rky5G+qTK7LParyEsAB6xCNA3IpbkRD/k0aOHF48evnnx8NGb4bMvAviHSLV9hW8RI7j3L7aDAbu8KalT/7Wok6QyyO0woe8S58R3cF1dx23cltT3jcrnzk9H/Qfs8FnfAXAzeGGWaX6yzQT8wNcBTx0Ht9sJP2ld/O6elAtLn/x7LKGTrUtHej9pr4Pa7n1QjFmsXoeoXafHVvxupxj94tLt5E/SY55ADH7wz3hxMRt3wiwA8lFuXJ+Y1NkPXOxrYuBusB4LP0SizHfnU37zQdwdxgTBAkH7k0lGZFP5M8ZBcgCevg1H2+KhFI6k/kOg7FNTP2HkknVKN7BUbpCZiLfFrIfcuFY7CBf1kc/+MuuSH26pDj0TcaQ65tUXbZ9vZ/WxUuVB5dKVnL5/oVAXtq6RhILFWu6rt5DYV7HP8ryLfc2dfQr7kfMv9yULhTgO7Hg4XQiGTS4EEIP+aaGF8INK5cxLdt3GGAv09BupY6vGTpw7v65ib/fUH1yvWK7z1O2ualt19JvvN1gLgJvBC7sA0EmHgA54JqXrnHzKS48QS5M8khegceHJi4+d5B6/52lffVDq4vVXyXWQnVJtS++vyzk0Hk+Dx+z+qpPeBaitftXEf+ul25HezjK1WDExPGbS5xHwG/XvSj/1qU9dvPHG6/lI+I2Y8F9//Y3QvX7xesiDB2+ELXeGTAz1pCDHJNukRcZ/HCdqp2+yNgmbXmdoO2Yo/BiCIGyxV9Jc93Gs8SAtSAk2ZODjCDVaIczwaTbqU0aVYlEMfT6St2PF6fFneaW1D3V8uQA2w3dbGNAT7GM7aWfYbNvAaoGVAnVZrL5UFKxejr7zLYp1rua+1vma7wmoxUI6p4vaBe/brj/ZhvjFs6Ta7jbZH8UfeD1Q38dXft13xizedX1lp/bl43nFxYY8k/9aANwMuEK8UPSDWQdxZ3ayuIjZiUV8n/Bl3/2YxP1pg1BM6b3sE78WAhK3m0mn69RX7yd0HXm2rY+jRDbKH+E+M1t61/uvR72nYxtjEZPA9vpsjkWleRGOiYD9wZu+Xn/9Uxe//Klfjkn+U9trwDwezteHY2HwxhtvhPAE4GE9Nn5Y7yKvSYF2Ix5BmXSyT9E3ykO0FdGz+Itd1eujg74tp/j2a7u4my5NUTpJ1oW4p0rVxi41vOQtDd1oZrjFmPYfDEL02D1UGxr/6ut+16rtUx5xW6SfG7CXrZHATIzRToraog/8TwO+i57H0HEnGnej9cVG9In4/I3+8GQohAUA+5UnAQ8fx7EQ+7qknhCxOKCv5Tj8hxTELbI/1ZmUt1PGw4rN/jJ9HETFq3qobSydI3+PIdsujuvl7/vF870MSvH3fc81Td8C+L3f+72XN2zxzPDCLAA4MJ1+IEv6QT+T66CTATm6MEoPsza8LbcndV/Ryx4LqPc4QnZuK1zvdpJ+wVBZbTnSSS8/F1EWp/7FzB67iJsp//gmLmhxwacWGyZvHufzWJ83f+0Xdvpcr/ezENA7xqnPj4rl68a8SzzuEHlPAP9Yh4nQ22Vb2KYqpdS75Sko3bd7NgaVZpLlLfwJil5JPqYfr8+HV/2kL84zGWQx/vCbKT6xz/ILgiVjn45JP8VCgG8HF3w9OUOE2wAx/Rhxsr3UlR6X4Wa0Tjhhe+sWd5+3Lu7fv3vx6qv3Usjfza82HovBMM0FXAj52v/1hIeFHm8YfP3BG/k0iJeHeFlgP8ZpqPpaaBFoZDlkpJhq2/DysUD22CUgG9HH8QjVz+w8hqRfB3zfKO+i/kHvM7F0DPASgPjO7/zO851efFZ57hcA3/RN3/Qh0n7AzlC9Dvajg/8InVR6DYxUd/hdhNrsqE3E/fykVX33p3zUZ28bFPcqZm10eZqxch/lVd4hDvqa5Iq9XD6l5VaL/22fHvGHOPl6MP8mN+7seLTLI90cQ54U5BsD6wKdLw8wCcRkrzeO5ZMBK+u9APWJAZ8RY/z4m3f4jCeaSvmjvMY5JbWnoHfcPkpDt+sVIkYguhJ9yf6oT8p3YdxsLCMOd6gsWGLkQypWTfwlGTd+R3Mn0A9d9JV2qv+EOd3X1yWbP/BJHeqQuvO/dXHv7p38vwa5AHiFBcCdi3sht2NhQP8iUsULN17OIZ8LwTimOAbejH3NJwVYAPJJAj0B2GyHL4tMxm/fl+ipCRjXyFb/mmR1+XA8ZewhaT+QjehlhzoX4fGcmT22slceUd/AYzvy4xjga6VfeeWVLC+efS5/Z+Nzxpd+6Zd+VxzAv3F2gumA9tQPfoGei4dPvh3ZcBLoYohcF/xdxJHe+9kFeowOdh7T885M13Eb8j5WV/mr3m1JqkyJfqaWP1aH0EZIrmOrPkagLlpPuHPjAmuyX6KD/SJdTwK4yIcaZYXayHGNn2hx267Tz+STql+VbjEy5Y/FVTrY4kzyhXpNeXfOrVFVD2qUCX83Y8sNQlHHT+WTSPcW9/jqo0RjAn78SSpuidfNKHXtGzrgfuiply732VjQ8O+K78YCgCcApHdvx7k4FmV4Y/sk3yQYvvzQzmgj+2JxaS6/gTG26zbn8q1xLkcbBEzfdCFfPhWr4pDnAU3p9lTbjdAfFqU8baoFZj1pcBtkhuu7veqyTwHl65yLqsfW7V2E8tJr3PB73/ved/EjP/Ijxw0tnime+ycAcVJ9S14oQvyk8ANaeqUzdJBLesx+4ji93JHPzNdRW9Dt1C9QHPWn43E659o/h8f0vijvOjjSFdUHFUl3M+pKtJ0RJcrsi5Cc7LmY1gIg/5Uu3473Mheoen2Y/4K3PQGI2oJY8Xfo6Av+XJjziUC+HFBv6uRpQL4kwDEQdhVD/YnjIBclvg17K+DbfASx4JztPhJD4k+6meRkVVuUUo/795jbRIVhisoVYsbZPuUY7CK6D2UXQbZ0dW6pruLVQo8xf/iIu3ReznkQd+oPY3J/FI5PLm7HBt0Ns3uxr+/HQuD+3dsX95B7d2NxwJtDxzayEBix99arbUzYf/ykSYxLtk+5rDCMv/LUdpY+69JxxMm+n44F1456osTxul9HlJ6j2yj+kXRm/lwr/MZl5idmfWQ70Pvj/8Wzz4uwAPgQB+bRAU2di9PrXDrS68TuaT/Rj05MbNwOFLtDDI+jsus9L7qNONI7M5tZ37Qt6vuRCOX3uixGOi7CCW2q7Wpf9ttHtnIRgKDnUf24Q4wjncmff3XLXSKvCW+TNZIXvTCKsCNyxY1FAPvucU78WgS0/bl1sPql/ktNsstQDnxbnp4Yi+1nEJmMmYJib2/r5ujcS5mG2W5SbMHKmz73fud2N3RcnFt4uvTjXEg3r4vJJvYFb+h848Eb+Z6O/FKfkMexKLiI/fVyHAe3or93ogt3oy93Y2LjqUD9m+O65GXsEL3MUeWs2ur2/4HAtvA3JknS1Kdh+pRFbHP8KIbGQk8SJEB8ned9DOR3hNf3vJDe67xeqF23dzvPY+v9hO7HAmK9+/9m8dwvADho/SCVrh/Qynvq9TDTgfR+UteEsX+0yE/2Hke+Xd/x7dC2gPt4ndtI73LEVTZX+YO2pW+P63qcPj77G+6wkd2eLxvGlcmYSZl36+vOn8k//OOHJvgnOLfj4l9SC4CTL8nJfqiNYu9L7bt9IRdptnu636o/SDY9elo/Oz1fZewVw/H+nQp1GJSdhdrJoCMVWQ7/THeX3i5Eb8bPZbyvyk9jHOhm+h3fqAJzfGp/177IN+3x3f4PHsYioL7LgScBvPzDk6CXeCIQvb8VG/tyCHN/TsIxcIqXP6TenS1fGZ44MGYcL/n+EQ126DYZfdV+6fuLdpkgydPeyQIy/crGfRzXkZ6zBbdV6nZq9wjZuwgv19jF2I7Jfy0AbhbP/QLgCD8BdBC7SN8v8F0uTwD75I/0E11wAumOwNHJpRPMkY+f/NfB++cc6eE6sWWDP9voIt0sNrjebT3GJf/WJ+r2ybnu0CW1EKiZGC9c824sMgx7Tf6hy0BpNqg2KnbFV5oLgFxshC77NhYZ+J7ECFJXsTa8PqjNGc5WubfdHIJ9v++xaSYtM8zwY/Fkd7epQ7R9EvmK6lSabfrI7+0Wvu+7aL8hspG/xzjCTUaILW5JxH6SN/uxr98OqYVZfnzvYex7FtxRzs/wx1bw1r+XYl/xAJ+FADom9ZzYg7SKbBbHPsv2wo7PRDyJPMJwMhj5xGhIDk4OUNXtstMna22Lrg2A3s9tR+VuIz3xJKA61YPqwPOO+82k9484eU6EAIsAZHFzeO4XADoxrnMCOLJx/3OyX5xKpJ/RT2LZ6iTTCQazGPJTHGTGrA/SzeJ63axe7QrZ9W1HdGEg32Op7Haydf+tzCQcP+EZncgAW9vVfvnXR7nGx/dCaiEQdREDcFX365v1Kg+xZfETY49VNEMXK36lmjB84s8ZIX4znxBQk8Jg+KfdoI+j0PZIus7LBCRR2N0u8mPy33VDsLMfdVP9SRnlTZ+Lpv1Y1fEmm86lNkM67qu4Eke+JORrH9fCOvfF0EvqfwDw1C2Ep0FxXLCvcvLPfRaSC4DIZlzOPZYFoxxCF7IfIbXP41iM1cZjjrHc92G07d/h9XLI1v+q821CfMy0LTrGKavuafHtd7xtIRvprqqHI1uBj85TOLoWLZ5Nnvvl2hd90Rd9tw5cHeBXnQhwVJbvDOq8vseArvMLgAS8j64XvXyuX6L7OEd10pO6jbb1qnbdr/srPcpv4Fe/WzEsMg/YMo5aBOQd4bgo5fjGZMhEVrZaXIwLet28RGymfy7SRCa2/uJXF/Dbt3j/QMitO/mSQk2GurjHhS87JmFbIiEKxYAknzxgT5n8qDvZ3gM0PiVDGbiv8q5zfB/QCbbbddWnU3G9LvBeL3F6ufeH+hq33fe477XN+f8Z2L/sP4QJPe7T8eclHV7eYb/w7n92d0YNP2wfxWKQj/jx0T7i1NcMY6T+s2/G/inPEUD1xIx2wghb6qJXw6ZIdfyRffpEf7SdbAOLl/zq6fHuf45FgY1SF+k8neE+XZxe9vG+7v4F/BBN/nwE8Pf//t9/3MHFM8cLs1zTweoHO/SD2w946XWQa8W+TSwWU3JdsFUMp8fp9b1/usDoIoN0XH9Ufx3UN99+4TFkJ2Z+m0zuVN0m78Lwi4t93fWVcO11UpW2Vc++4k6Q/wb36FHkMy3J/Rjx6DLXu7ywxwSek3nk2RYmfn8DIrpbL98K4SuGS7/1qUw2opppY5QKSviljDwQJ7dnoO3rwhjo+Ot6L3cdbO2ONpVe6vgBl/wGs7LEyx236/Xq8973TLbt4ac6zqKZmrhTj79vxb5CnkRVftQv0rTnKUAITwB4c2AKnwgZTwLSEIgVASsy/rpLH98CieSikRcFysqhL3pZoL5nYt829Z39kp8oGe8LQtc5GpcZiutCG5JZfUe6njp9OyRqg/r++P/7v//7LwdaPHM89wuAoxOp6ykf2YIf9LoQH51kTyPgbUuv2E7vn0/+WgB0zm0TqG2383aVV796n6C34fGw11j5mKku8/y2uHsdaficLBTCYLThbQEXXsCu3pBXkv8lLhYC3EHSh7x+48vYmb8mAqCdbCsmFn5KFxNDxHvC5E/sTEPoY0gFDsKcMCkUvY1A2wJe1+3AbUFl6ZT3sb0uT+OX22m2pEd+2i8u51Asl9BW5Rj7HeLVZMv+eztSXuFHyKeQD/d8Q+iTRxcvvfXo4tbbfEKAyZ9FH1Fqn9V+ozXarX2p/cpTou18J03bWnzswsKxFodInYt1Pmq7M9bkuqF62fp5LJ2XRY3PKYp5JG4jFF/telveF4/TY2DHm/94AiB+5+/8nXtnF88sL8wTgCNmB7TwEwLc1u17GdxOJ72f+Ijwk6zbzfB+kXICsvr2E9Zx+yPU3lGbHcW8Kq5Q3N2v8pB1rX3ZhGbTp2QtcIHXRX6/KGfNSZfKrhYCMa6ScOQmsEzDJoUo/Im//IZPXPErH7r6xsB6bTnjRUW2j1jcdKhIJ5xsb6PXzcrSnQN7iZjpwPVXiR+Ts7JkRu+37Lrf5XJJ/A3RcVOP+fkeh/ouB455LmPRRtSzH5/E4cCjfh77s79YBMTOiXOE74Hgo4C3L17iIwHhEq3VT9TTbj1xKsm+bPs0zO2ufutP/OQdfywAsk9xHua/n+ZctPOR8eKuX4/9t5hRz3kreafU2FweZ8mM3jbiOsVUDLZB+93BhnF99dVXh2ZxU3juFwA6ePtBe6SfwQEu5DO7AHo9gk1f9St/TiehTngfhE5QP1klR6hvHlt9cN2nS4+lfqqv8SeEiqqft7xvx9Zn0iyX1FiN8UbGxdvZmsEhvKMH+Xlu0vwZ45VtZKwyLb/4G78ZX/sm44y6rMxi9YufUX+ObpNtDznHkd2Rn9tLtB2zOmRWfxRrJjP6MYmd2vH2LoOu9hETLS/D1OS/X7oUmf3OSzz8Z8dP8f0AfCKAYyHsb93hi4Duh9zNBcD2xsbtidFk+0KfT4hiUudrhnPxoON3wDGQRxKxQp3C2iLLQxGwfVwLWATomiB8W9S2UJyMZbjeZTu/rmDmo7yE8sl4jH51P+AG5Id/+IevbnjxTPHCLACO0AGs1HE/HfSgmDqpdfFyvcT18u11R/Yqz1B/JH7SShyPC0d2MNM9DWqjtye2LUJHH+Ii7H2vqtG/7fJu/R66ip/ZTEu0ndgSM6/G/MZFv17rz+8CiPbydf+sq/rwysm9+lyPZ/mKWb1EUHHjwp31UD0Z1Wl/StZmDl/fx+eodtSPwnX9OHka3M9FnKvrzOpmPl2nMuLbco7aRzpGxmULn034gqC38l84850AfJ//Ix4F8IbNu6+kvHz7Thxn9Tq12tMuUx9SCBZ6Xk7iPwnyxk8mf47RtKXPIdlu2BGjPlXC+0ryhYihq+MDM+KyrVwvfAHgx4z6JGpbS45wG5frIntdPySK4bFkKzReoLFZ3Cxe2AVAP5hnyEYnhPsQk5NYJ3U/ub3dnoqZjVBdjyV6f8B1iJ/IQnXKC9eLma73o3NUr22o7UFQVhv9ogNbnFTxp+qiR61Pkd8meWSoR/ysJ1b8vvx2LQC2N2khsRjgP8NyJkQPYwEQ+3H0UR8ZS+fR4dqOushz88h1j1TNbs1HW7JnmyUahy6dmc05EX0Me73rjvTC89dh5quYs7LLCWwC27EPZia5aUNX+3Dsy5DYk2nGO/z5lMBDXgLgaU7s3Jdi4mch8Bb//jftRpspEXKItxMh838A5LdHxuSfnzCIivz2RJyG4danLQh5ejPqAo4XPwb8WJhRx3HJdZjZeYzZdQCkk43eyIfIV3US+Wgb4O7du/k/ABY3jxdiAeAp6CB2dFHodi693suzk9rbOadXnVK1B15/FfjoJFWqODNmsWU/85Ot0pmN2lQdthqbt+LivKe8O3vcRQ07l7zGRhqRIlaaJKXe+622uLPTxcvv2Lf9wqPgdB4S1F1bFFLCJqYHfkh3hnGgeNnv0McQb30jqckhIGWRgy1plLt0Zjpw+1nedec4svMYs3rwOt+3MPOTruudw/oRP9sY7YRl2LJfxlOZWHHV5Fx35pqwiJdv0Axhd+cnAmLPvB07CmHyz8Ud+y9sc59lC07dvfNxPx7734nFw91cAPD4P/qV51XIOL8wJknPaG/bIgtMv7bjMPJ9u6W7jn6mExo3SddB91Ndn+RdRC+zPZR589/v+32/z7Z4cVN47hcAoBOmn4DKqwx+gHe7p0EnS4/XY3m9+7hA9/M8yPaqk9jp/Tiy67itp5JZXxG9szolFgHSc0GW3v0i6kj3XL3Ov9tiHa3GNsfdfWz3dgcTZery7gsfhHLYoqfMF7w8eYuPY/HRLj6PHTGzNlob20I++057zCpjIUGbVOc2hxXs28Lihjd6aYGDFFnMdGz7EFFtFtLP7MDLbtuZ+WpfeXsz5Cv/HkfM6slf3qcHaCzpDn9Gt6Ll4V8Tc03+MTnHAoD/6YDwck5eyMKOH27fb8fEfefOvcjeyoXAoydP8n/983XB/M8A9g+w91gwZtxx7iD43719L6Umf5v4M19jVy8hZaiNbTsCtp/X/fncP8ITQuHj42N01T4R8uu+8lfa7dxeefdz3NZBT98RzrfFzeSFeALgJ5lEunN0n6vsoZ900HW9bZ18fgKe04lZDM+77ZFOqeuPcDu17X0Ayl2cTcfvqOOv62lhtLLbZhli/NI2csMn696OvkWiu8NaBJU99Tl3Z6lS7gTzHf1PHsX+eBwVWh4EeweC0YeAi/3tOzEx3OX/y4//KDiMa20w9m3u33HMZYs7s2FWfI3vbF/IpuP6btPjZH8O4lyFfGcxXO/9d73Eke3mk26Xt31j2DHh5D91iv3A42f+13/+c6fY9/l+Et6wF3re+Mfk//obb178tV9+/eJTr38q/3EQEzKLPpaC2eyIm4tInixE/Dt86VMsAvLfAWNk7fOSQ30nhC0EcgFRQhn42ODDh29u/7BICwC/HglffMhfVPy9La9XDK/rAm43awPcHtRH7yd5+o9gm/vidv0HwO/7vu/bDRc3ghfyJQDPO/3gVyo5wuvIz05w0XW0qRNfdN9+Yio/a8PtjlA8ifB8jzvjXNuzvp0QpiftjyS8+FN5YsTMuk+q5NMi7Woh4JIVcYEuUaDM0k7I21TEb0QLf54O6I7dFgBJ2dE/FhR8zvn+K/cvXn31lUwp5wIgJgO8aGlbBES+WnZqsumc9v/Uy8dTnIxZMLMB6bu9ONdm95FNTzvu2/3PtYPk6/gp5Yd5+qVx2ecCjMk5JnYmflIWAfUGPZ4AjQk8Xxa4E/4vxV3/44vXX39w8alP8Z8D38yvCmafqze0lhJ/eLLAm/7uEj+Fb31kst+3p2yrvylRVzImbyyi30z0fOSPb/1j8tfH/ziWO8TLmGcmZiE72b4T6f4ztM/6fpOObSFlrNkX8B3f8R3zYItnlhfiJYAZ/cDuHJ0YR+jEUFyPf3SioTt3Ms5ifToc9WPGde068tNYdJmR/eJH/VPbmA+/vOvIiw4LASbuWgzkggAJ21wQjDwRclLgAh6TRr0sEIc7sbmgbxf1ET/jRp5G0xmb2Dea/O/fu3iFyT/SuuuMSSdiRiMZM7s6fio3ysSkQ5QrmbLbnDEayEZjPeMoHmWJs419Y+Z/HWZ259rdBF3W7HZoqauXeOrOnAk+H83nHWjs33y3/p2LV+6/cvG+V98f++mV8LkVd/tvXzx8xJ14fSukvgZ4m7wjLhdBYhPv3p17F/fv3c8492IRwILjtF+i+pf6qE9GlzlW+cIpJv38vxTjm/80aSLb9pqIPkY+brIj7dcOj+E6RLbdfiYOZfmoTF+0kGHM1+v/N5cXZgHQD2zhJ1vP4yM5Ajv3g5mfl0k5qTQxKe8nqFDs3ga4nTPTz+K6ON3/qJ0ZHot83r23dno812c/48LMlZVy2eJbd+s1wYf9mLBzYZALARYIXHypi+1l4o67Ey5Qkv0NY/tFENv8hjfemBgxaVf741bY88gf37v37l7cCyG9fXdM/uFPz/UkIv7kdux/JVTtY5C2A/UDcb3IPo50ZiO909vxcteD+3cbxe9twEwHHl/5cyhO/h0hPXI+1s/jdz+G+Us+J+7YT/fv3794//vff/G5n/u5kX5OLNLux8i/FBPvk7jr5xM60ZcoEydfPmC/jkf8fMzvXpRfuRuLvPC7H8ITgHyywPESPtFYtque5bblc6TK56SPxHFEmzzu54nDm3wccXz9tMZC56KPn2L08eo2qpd/j+NILxvalbhO1x7ZXwV2eX6E+Lf/LW4ez/0CQAe6Dnann2zgJ9nT4Cemp9D7oJNOJ55OPuW7KJb65v3z2C7yk7it8Dg9rnDfIxRX/orlkz94DOW77Smj/+OiGwbxG5P08Impd9PlJIwNd3Yxrly8NfFzxy7hzV08FdD4VNshEYN28vVd/Hl9OSf8uCOMu/77keLPZIFvNLxd9LNPJ9CT022hu9pWQfu+f6HbQI5Bk+4H3Vdl6byuQx3b0/cZ9Lado7oeY0aPdUrF27YzbYlZ452xM3xNRvdi8mYRwMQdlTkB5+QbkzF3/CzkqH/lFZ7ihN04HvLJDvqQ+xHjHvuYhd84N0+2i0RdVpp92seO/0D55psPLt54g9f9+ac/vMdkP7YVz+P6WCmvsvB6cS6OdKq/tC0D6ZDeJri94qNjzBm/tQC42bwQCwC/WPoBLWa664KvxPGT0cGO/nifhMeSndsoZo8tG/m4uL+D3uU6dB/kXBsw62sXB9u8mOIXE/x+d03dXr9NAjkLcG9XfcmF1XgkzJ1eXqSG5B0fd3X5D300RuOJAN8N+BKLsvpo2d2YMO7lY/+aNO7dZ/HAXX/1gTs9+kGn2AIeWuQ7wiNffxkXTi+EMihlHJDTiy55LwsfJ+VdN/MR5+qE2pXtkU9v1/G+eCxnpj+JRZXESBW+8cPxcLL/Q6JHFSeKNQFz5/1m3nXzmP/evTv5NbV8Vv0++zImrVww3ItJn4k/FwG10MvjJPZ9Hdej/dE20E6+bDBE/SehT7TPG/8Q8vn+ktCXzT5+XY7QeJ3zyf4Nca6y7XpPoc6Py+c3NmsB8Hzw3H9+44u+6It+MZJvqdIpOjn8INcJoDrwk+Iq5OPgj3hbMztAL1uVPd9xnduK3nfZzGw7s/qr/L095btPH4OeOsTg54Q0G7bEQ7bHxJV/iTd0xZ0+d3JcrOpNZh6ffcJfxpu+1OKhHvfHRJBSC4d8138uHGq9nH0KXz2S3id+lLXvqq1K1W4l1b90CCpWCcj2HEc2akvSke46bZ2rO0JxhfrRY7lOafrirhihzpoon0aVWf7NMhAHXf7HvvFeEWCs86UcjoHYf/V9EfUmQfZ3ftZ/LBR5U2E+8mfhFo3TRL4sFO2wy/DnJQc/fkuyqWyT1/rrdX995e/4uOGwrT50/5KO65WXr/Axl42LI1uv7/Ec2QC+LsDi6Ud+5EfmzosbwXP/BOBnf/Znf7cftB0OcNX7o7rOuRhHyKeL1+Xd7mhXJ1s/IbuPytDLOmkl/WLjFyDhcc+J4/EUa2YjZjG87LaKDeFVvlzsM4bu/kLQ5d9KEdz0mjHvA8j3E1CTMSBi591+TAB8xvsOj4MR7v7ux6Qfd4R5hxgTfz4xYMKoxUE9LajFhD4GlhNC9lf92Pu/bYdS2s60euG4vWyO6OPonPPPMRiisuN+btvPC9e7SA/qR+9LL2cc+ZGWNvOjkGRsvddj3FXrGFBMtU8RXS0K2V/U05fI5+Rf7wW5dbuOEVLKW5z8qTQJdS4k2NeRpl2FHH/qGlJ9I61+IGkR9tWf03NRcg6P4f6gus4sbrft8Vwc3w6hMovlxc3muV8AOEcHM8LJe47ZyTFD8Xo7wtuT+LuDz3Fk0/Xqa06CQ7zvqpc4itVFdY77zmxmbVCv7SbvAr0/G1GddmS7XyqHBESIVvPH/eq1fu7qsGJMuAPkPQL1OnA+DtbkHxe3O0wSMdnXHX79RCnKtQjY7vz5JsFE6b7tmU+pcmlOka3sxck2No70jupntkd15/pwTnx/Ol4n1MZmP+qitP118osaM1f1ZVOTvxYCb/FlTiGKxTGfk3xO7DW551MezoWUKOcCgcgvX7z15O18537etdOv+KFRuloLvH2yrK/8pe1qv85h7v7rDYC+vfLROag041yBj1mnx/D8Nq4N12Ova4NEzGKrjD+2PCHjDZeLm80LsQDQAXx0UDuu7yfSkY+4ql7x+uTndSo7PWa36e2q7Ce323hbs1ieim4HPY7bqD2XI458T6Aek2G7iSaCqix5O3xTcIwk7HRnVmNf+mglxual7REwE39N/vVGsLzrjws/sbKtehpMwF1GI3RXE0sWDE1grlX/r0I2M9seQ2Pm+m7jHOlFj9GPW0T4/lJdTYzXWdxSFxIhuhX7SMeDZKf8eExPW/kpkYwTdtz588QmU86BWgzwiH8/L9i/vAoaC4Bwy/cXZF+1o2u76onP5DwabbONCI//kVxEjLGSvdqUb/Z3yNHYyFc+0PMSjbHEmdXh0/vk8SSykR3+5HlfzO/9vb9378ziRvKiPAF4baQbfjL4SYEI2ageer4LKI7HOgIbPwk7Pbbo5Y7a7yfwEbKXj/JCee8P0i9gspP/LBZ0neJN9Vyd1cSY2KtJ9WNMTMOoUvTYkcphpOMCTzN5cY9JgScBvFOc1/pv58QQ/d6mbGLQRt1l7oJuTBbjjjKDlkfUVXu0DFmlkI2tnxOO9NDrFMfF9R23m9lIN5uwtK98fwn5yL8jfYl0lTp7G/sxfLk9Ynhbwyb3IdVR5slN7B/u5usLg/RIv/YzP+mXeysk4pAvexYA45jwtjGLY5MJvz7zz0f+9v/3r776uYe+j6OQjfxchHxmddBjHnHk73Qb+sy2AQuAxc3neO8/Z3zsYx+7dGb4wa886dGJKVTvdthIOufsvCwd9r0Nt1fqPjN0odGJqzwxlSo+HMXyPsxsPAbIrl+wlXcdePx6ZFt16i8XWjSpj9+35RspWdpB+CIX5dOC+jKMNsjV9qZkdfWjfLgzrLbrke/wJBmP+EtT+YpDX2zRotijrv6wNqAfUZ8m1XYHfUex1BdHdTNUd67eke2+zXUOuEjvwrh10IsjX5C+wG5kA9lUuvvk+yxGTPnLr3SVzy9wymOA7aASbWxfdFcv11TMerpDGxAR4m8cb1Es7Zj8x5MDfLBR+xybnFf1kUPe+b8vAPK4JUb4qP/gfUef/Rw2suup47aKpXiA3mNCt2N7eP3e39gKPY4EPU82ELaLl8p+/Md//HLnFjeOF+UJwBQd8H6wq6xUeSEf9z1C/hJONkkvS+f4Cem4HTYSoXrSmThX6T3fbXq7R3gfJVxIrtJvRLN6zVZ9CIuwOV3MoOUiv79ojI4MfpSh6rQ9NfZM/ow/VYpbUq8tR56PJOrlBiaikCzTrmSEL6nyNmaRDItDtN0unVmd67yu7y9QnaDM+CGauEj7gtFFeP4cGmv1p8eYhZFt+ZFm8STvfrKLXFTEb9yZZzux72pSx5g8adTxN/dv7WfpCcGXO/MwJ9/w58ddxsdvH4s+XldR/dzP/VleNuBtiV4GleUrfwedt+U2iqk4niI6Flg88JHKxfPBi7QA+MRIN3QS+Ikgus5PDqBeJxNyhHy8re5LeYbbKn+E6rrNkf469O0VfSxmUK+LBuLlp5loaDfbVvOURzbBDlN8MiNO8xWzLvRM8nWB192d7YcMjm/0Jyd4STaSP0X1a+tLuZRd2u5kVba/ex9R/ayxqjZtDAbSH+G2nnfUjlCb2ifaL91G6UxUJ2i7H7teP+OqvuN+HOK0ne2lmjHx45ZTvGy2v9hiExILBfrMHb/u/LHH249TjZV/za/XdzQGiI9JF1H9P40z010Xxc9tG+J6R214irBt+K0FwPPDc/89AOILv/AL+T6Ab69SMTv4j04GIR+dRLKXXmWBf6/zsnQwa0ttyE423XdWBo9JXiK6Xwfbc/VXoba83a7jwkIbfTx7yk/OuKmLGPGbxRC9Pit7QUvRCo2NUsWiLX1HQL12T03ZtBBZJ536QbH+DmiCn7FtHW2ri9PLom/TkV2n+53D+9PzHkN5xZ7F73ove2zpVO92PXVwL7lsc2pOO2qr/tSdfGS3/Ta2L+sx4bgYEz8vB9m5R799cidl4mcBwON/f/Tv29jPX1C5i/wc9I5sO9IfXS9A9bV9+/XrqF3FANnw+P9Hf/RHL3dgcSN5YZ4A/Ok//ac/0Q9q4MA+J0K+LuB20gnpZaOLg6cuXtdBJ32v731xW+8vohPfRXWil99Neh/VT8/3tlUOi0wpRQ8zhewvpajOR79Daly5KPPGpX2RkW8GY7uZ+BPaZtz5GBl3gsQ0KZNLkv0dqd6J7tshpJO4XReR20TjAXp8mGBmtkI+vl+F6pAeQ3qQXn2sMZz3V/Sy4/Zuc2SvfkD3lQBmsnWfynpsFHs97hEl0trPssWPMdsm/1D0MQGNLWifIP4UAFv3F67r9T7GoPouM2b1vt/AbdxObcpOqUMc4D0DLAAWzw8v0ksA20XRTwDRTwThJ41OfsWZ4f7uK3Ri6mLhZb+AiFmfpOv6c6gf9J2LnGS2LR63110XtXcdf7dzP5cjsp4LfPzS7xy/tgjQ9mC7779QMIbjMX/smbTZqbj9h/lCY5/t5cKh8lfhdsq7TvRt1jHitl7v2zXbp553vP2Z0GY/TqXrtrN47iObGfRP0ukxZ3S94nhMD73ZW1yp5IPsdSXoNLaUGYc+8YNsEEc6r3saG9cJ6bzO++xQT9+E7xvE866Tno/Krs/+P1+8MC8BwJd8yZd8PE6CD41iHtScFKQdnVAuRxdYx2Md2Xg80Imm/nid4/Hc1vXnUN8Uv8d7N/G+SZyuJ6VPEq+XjePbwry8YZsRl7D8SzV2PS4V6Uq+rOony6gr7aht0mpDbVWETA98nSObc+2jk2h7+phB9s32qes9BeU5Bh23dbmKIzv1QXh/r8N12hYVdx+rLI+mopR/N4mw1Ps4Cm2Lt8048cifd/0jLABAMdyfvEvXievWd1Fd3//Ku8wW/X3bwH2o03HBR//Wv/59vnjRngB8jw5+Hfj94Bd+goCfFHBOr8nckQ3tcxLqIzjyU71sjiBul3MonqfK9/Y/Hdz/XBsSR7q+TegUw+M42DLeLtsdWUrEQzLmPlZZ5ndXRfxKZUu6C/t036+py5+0TJ2Y9ROO9OeYjQGpjiEdR14v3Je818Hp9p1ug6N6H98uOd4Wy+UqZn0T5+rE3o63VX7uXx8O2X82DsL3bWAbueOXzD7yJ7rvEfj4/nFRfU973kWQ175HfPJHhPfPfchre9lG4AnA4vnihXoC8Bf/4l/8T3kKEAf9h45OzNmJpLLSfmK7jfQqg+qR2eQvZKN8R+0isnWf6+A+Hk9yhOqO2lJMbZfyqjtiVif/LqpTqrzo27FtTtq28cZuZEE1uwU+lZuNS7azGYdt2pc43Vc23e4It5cwrrqYU/Z8x32Ej5Em7usgO/kj7q+2nFmfwPulvOII6ZHrU7a7bxTo69BlHarMlU59IJ2NI2VtLxOiPvevN//17ZftuZhCPi7SC887bouoXenUdp/85Xdkr1hM/Gwf8M7/P/gH/+C8I4sbywv1BGDwPfzhIJc4Mx1Ipwue7Lr9TCdcr5NPJ6Bwvdd5eRZbdD+Bj07u7n8uXmcWW3j8q2Kqnx6PPOMrUZ3i6QLlF7TelmLw3ey6O3NBl3Kij36cPCnISJnfyzZO6lckaFLox5h8YObr8jTIR9uu7dZ4XBVT9bJR39h25b2v4D7yA/dlHHU3TH4Wx5m1IVTXY/R+SK6GGP//9t4FWresqu88dIKAVFFFAUVRYFXxUlSw0aitmDAQW4yjg4G0BFpMuiAKWIhSlIAUj6pCYhCJWhQWqGjZ6TZt1HQeo9V0ExGIRocNoYh2h4zuHpGosWPLuyhNunvcXr/zfb97/3fetb9zzr3n3nse83fHHGutueaca+21915zf4/7nfVcS2z/S6ax6rqKfeo4TpL+n/zJn2z96Z/+6WnJPzHuJqrfbnzE46gixvL68BiW4ttXbYyJjj+l3Bw9jt0DwAc/+MGT/xugSt4oM4G8qbSXvGGSvEndOOvmiyS1XaljVGZx8cl527auzZLslmrvHDbFyXk671VyXslSDNvqTtVPxbA8mfzXievkeYgxFKG6ahJzHTvH8t/JcefHkjrQXp8ZaeN5y/OXOAbH4bEIdY+ZpJXHXm1zzJmI4yXGqzHBdtWDsdJmZgfOgRIbxzplf8ov9afbrPxzLS2xyZj6oHP9XEN04rzSB536in1pU9tA3bmlHhzHMW1D9UnftNVGe6DP+wShr//v/9HkOL4DsI0X/oy8kdKOGyHFPvvTbwYbRm68SN6MtYTsz/EQ55Bkf20jdd71WCRtdsts3orHWql2imuVYoxcO3Ces/WAGtMEaMzTxTngR0KgVFZ94DhL46atqKt9+CqSOsVzpaADYpmceHs6jw+dr1rvvffek69cteGY8bd0HMcE66lL0OHvmLO4KeoqNXb1U1dL6zvh/Hm1z8dw9Z0k4jC3Oj/aHJNrTIlO6rnYhHPYJLKkl9TluF4f9TyCx0iJvq6BNhwjwk8GP/jBD9565CMfud3XHC2O5QPA0o1DPSV1gm/eWBkr60nVewNmXEndzIZYeXPDLA5op9SbPedlezeyE84byc20tkVbBRtlKaHA0rxm+hrXOHPBftst4q70yaZxKG1b30TaESvPW22rA8Yi6ZPYSfC+PW07BR0PA9ibyFJmayIeY4pgh6/naiY1Lva5TpVqX3Uym09UT+K6eQ94H6TUWMyPdfEBCmHt0MPMT9+sS+3L/tq3hP2zeWd/2tgHrl21qXa0eUjirf9HPOIRW4997GPXPc1R4lh9CVDG0+xHx43wrLqheAN4Y2Qb1KU+/SHrov2M2pfxxbZ91WY2/xTmnZuec1Yg6/U4d4O2Ne4Std/xlsat/czRecLSeNon6lKS0/vWyjVpW/2gHjt17SiX5qkeG88TJW2PNY+ZJEQSz8Tvl9IQ6iZ7ErAJN+sI42YdKHOeS/N2bqBP2lnHbgZ6Y9cx9FnyBf2rVFy3TPppmz4eA+th8nd9WUvnmjH0d/6pz/4sq6jfDR4DIjWe/anTDmq/5LXAq//LL79869prr9169atfvbvJNYeKY/kOwAc+8IGfrjcE5A2cqKdEvEm8UZLqC9UGUofPbmSGcSjrOLTx82ZHYBYz7dQbM+NW36xX6nygxoMaM9E+17ra1ngyi1cxvpK6UdtuL8XJ68D5Idi71pB9UmPS1i/PQ7YRYpCYSPyf/exnt+65557TXt0j1G37St9X4swl24htSh8g1NVj8xicr2S/PtUPSbTdZLMbZuvm3KxXvTiHnC8lx+9aUtIG4vggQazZvB0nx8uy9s1iJOidm8zizY5fql2tg3PgvKPj//0/5CEP2X4HoDmaHMt3AGDpvwN6MyTeLAj29WYUddom+kraZGm9xqKtqBd02qUeUqev86+yW4xn7ByjkvqlMWqMpVh1g5vZ1RiWs7Fz84OZb/ZXjOn6KfqlTuyr4rFlctHeNnEyMdW38k3Ys3FhpgPHkuq/5AdpW+NIHsuSJLWdVJ9ss07qLBHWNF/953qmAOvnw5Dri874xs51BvWUVfRDqo1kHbK/jpPzgLT1+HLMFPXaGLteN9jwq3+8+n/Na15z+uSaI8OxfAcAxgV+mzcFUsmbIsmbpPZxQ+UGXstK+juPJbsqzo1yE/Sn1CSxadwEW9EXNvnuNnbF+Eo9BscG49e1V5djz+LWdo6Rkizp0t8YFeeWMM+U2q8PMesrdOfi+Nb1g+yboQ9CTBMgkmN57Si2a9yMh2AjtU/dbnEtFLFd19Iv+9nOayRhDh4Tx2zyp13n59yr3jnUuVQ9IrM+Rf+ZaJOkb4rY1j+POc8jfazT/e53v63LLrtsW9ccTU6/go4ZX/7lX36CC1/JG0C8YRRvfCRvpiRtQL8cQ4xLDOOkr6ROuyxTkqonRj1e2+qqoE/QQR0v9ZLj2l+pcWbQz6aUm7l+Kc43x6o67IAYxgP1jkPbPrA/Y6dOAfTWKWmnQLY9JiT7bTN/kpJf8qPOxm3CIkl7ntLfMueV5RJpj9T52Q/aVPSbnbOsK/pIjgHV1v6MBTl3x1XQ0e/1kCVryLpm8ndNRX991KWA44E6S6j2QEyY2dNXfZwHoKvHqR1kvzD/PD6PCZtLLrlk67rrrtu6/fbbTwVpjhzH9h0AYGPiFQJfdqHMm6beQODNVsmbC9FXvTbVLjdGJP1S0t82LM0H0taNwhueOn2zMZeoYy3Zp66OuRuwWxI2ZF+Z+qo0Y+daemwzjOfcFBOqoq7a6b+J7K9rYp+la5l21D0GxiQp1c/2FeeY1JjZVgfOpwrxch08buupQ8C4VVfHTFI/s8tYYDvjS+pSIP2UPA6Ok7Vkbf3MP48PMY7UcRzLcidbJNmky2s6bXbqB3UpeUy09VXP//vvz/6PPsf9AeAFJH7fJkS8QSTrsJubut6IWdqfyd/+RFtlplNfUZ/93tjOP2MsSR4HsolclxxLSWq8apdtJTfqFPXaAbHr2uaYs7gpNbZ1S8epOEaOlejn2Es4L5KQScnkz4NAPgSZqKTOIeeR9TqHTfMRxlH016+OxdpzjXtv2T8Tz5XnC9lEHbvOI2PZ53p6bhHXjzW2juQxJtl2nnXO1m1Xsq/GT9JfH8VjktqvzhJxvwF8PUaPk/XwWkPHn/294oortu2bo8ux/RIg/N7v/d7d11577UdH9eR/CUy8ebyZNvXvJEJ9ttEt1UFb9ZbMh7rxEm928fjyGKoP2E+fku3aDxkTals7sb2k38RsfKhtyHadE9T+tLFP3ayvjgczXZK+nKMqwFhswiYpN2aTP3o3boRYCtT2JvK4IH02xck+5p121k062Zdtj1lJnJe2+ifZhxCDMX3gANeySq5t1ikde7Y2GRcYU332Z5mifWJ7aby0xybt6PO4Ket8IPXA8ef8wTXggY3Ez//7f+UrX3n6RJsjR5/gwVOe8pQTXPyIm6s3ljdNvemQetN5M0HeqJR5022KuRPGyVg5rnEylvbVTxt0xFW0SXtIOyGGNlmnrGOAbVAn2ZfUmK65kucBcVzskTyuPD7QVjJ+9lm3f6kPHLdiPxjDuac/c3RDRmafS1M6TsZ13Iw3mwss6Ws8Y6XknFOEfsW+2lZnwmYsBSy1rahHjON6ukauFyLEdX1d07R13KTOAZscP/vAdrVhbpDHJjmu9tbB/vStx53xQBv7XAvEPuJxfXH8fPZP8r/jjjtOD9QcSU5/7D6+vICbAHED2Ekq3Ex5syHemCnoYRajYkxFn5xHyk59M2p/HRPJY0LQib7q0ift1It+jp8C1R5spx3MfBNjKbDJH2ybFDJBWM8HRqXGgRyX0rXJuaQQx8TvZ/5u0NpUP+MZE9J2rxgn44HxZvqUXJNcF0TSNvXi8dRrbya1z3aFsVxb1tW1zYcr5+WcMq4x65wqs+OB1Fe/bOf4WQfnkXPIudjHfuNHMLQT7cHrmTYPAA9/+MO39c3R51h/BCB8FHD11VffunSjpV6dN5k6b6jsS132VZZ0VZ9zg01+2Ud9Nv8lsi+PQf2SrzZL/eA86rFI9Z3ZbRpDPX5LYyQ7zXUpRtXnuGC7xqedkuBrglJoI2m7KUlZr9iffTMdzPTWU1/LGcxPnxT7oOqFdl57aZNtbExy9rNGmdDVsaYkewUdAtolxrdej0e9daA+u2eyDbvtk7TzBUV+hwk947oerokwd+evHevBQxDwX/4e97jHbb3pTW86NWhzpDn9sfAYkzeOdfCmAW8cbWgD/W4k2gL9ebNlzCTb1Gu/ZBwkx0fq+Im2zsc2UM+2MdJ2k1Scj1KZ6WSTb47neiO+gnFzz1d0xtCPsq6hfVDHR3Ks2p5J9VcqVU9df+bExs7/UPmcz/mc7TrzleqnzMjj2y0Zr/rX8SyTtMk1yb4Zno96juyz1KYmOs65yZ3rwYcAJJM/dee1hOM4X22znjgn54yoF/1mfZB+iXqE4/XaQHLPoj/rlfTPeRLnYQ972NbjH//4tWVzHOh3ANZcc801218GpJ43kVD3STtvHASyzU2ebUDnRmQ7NwPtKI0vqZuJUK++4DigT+rEOUrGqTGS7JvFrfbiXDb1W1abOo5zT0GHX64ddaXGre2dmB3rTCfGr8Jcst8N2msNiOuDjsfmWPpZzzlkH8zmN9OlT9YTYytJtu13zZ27unoual3U65MCrA2JfZbcafsAQImt85AcC+rYS2WtbxLmmu3dkLaUxPAayRjapS7J9cKGteAjJtaCt/4f9ahHbd188827m1RzJDiV4Y45v/Ebv/HTbrgp3miz5J+4mWTySckNqfYpxq2xJfurOF/qQDzGrEnDPiWZ6bPtODmu+plv2kDGSV/L1AP22Z71K667x2siMBmA5zPXSYydkuRYVXLcFOfk+NqDYzgXSoTrjFf8/AobZb7Cgxx3xpJ+r2yKszS+x1RF9Mt12TQO2D+Li0DGpJ79tDkXJDveGUK8JnYaP8e2VHZiZjvTzZj1b5pnBdsUcFyvI9bDvyHBdcbn/rz93xwv+gEgGJvve9lsvVnypllKHKAub7hKxqox0qf2ZXun2ICNm5sbnDrryIyMI7SZs6JNinYz/RJpkz6ph6W5LuGxImz8vtrL40/qmNlWJ/pnDMdRHFs761WPVHKdkXrN1Tgwm+cS+GifMTdR7aW2E+2duwKbxsu+enw1jmCX68GauW7oSHR8xu2XKU3+daxsS46Z52FG2u4HNZ71ej3k3LOd14n96UcfsfzBny/6oi/auuGGG/Zn8s2hoR8AgvFq6zZfcdWbbBO1X98kb96UTdhf7Zb8vLHrBifZX22cz2yO6Ko+fWZS+yV1qd8NzFcR6xlPG47RhwASAeIDAf3aL5VJjimO4TjWk5xHlujtW4qdvvVBBpinMiP1+tQyQadIjqF4PXhNyCym9qJNxpNaRzaNVQW0oc2a+W3/fOUPxgd9LcH+tEtqf9pYT72lc82xltDf4/fBBgFi5LWUOmU2jn3sdfy1v2uuuab/z/8xpR8Agve85z3v5abw7X6pN9heSHtvaEWyDmnjzS7aVh/nWOeXsYD+3Biyz7qbjJI2kj472edYMpsrLOnFPu2qVDhWNv4UEqn2zjUFaruSYyLqLBE3Wtc72ybzRH/0zNOHFsV5y2y+lZkuY0iNmxgb4fxmItJ2U0xKhONSh+/SR2vGTt2MjOt6eo592Mu64zuHJHU5nvWqU5xjZWZfcS51Ptqn5JpIHg9Ce6djZJ38kix73ZVXXrn1mMc8Zm3RHDf6S4CFL/iCLzj5ZUDwhoK8qbgpYXajecNax0ZRBzXeTGqf7WTWrqI+SzcU2zm/mWxiyc6YeazUsw34Vf0sHlTfZNZnDPtqzKVx0KWPNqmX2i/aUaaeOonP5CfYsUmbuPzc2lew9IHjef6MbT3bu2GTX/Yped1I9icck+uAH8dM8smHbf3oN/ZuxiCu9yhr49oh9ZW/c0h/yHaWKTMd85Mau8pOpM3MN9dFXbVJ0KUPJWvAWjBXvmPCW/9f/MVfvPXSl7505wk2R5I+8RO+4Ru+4eQvA/q0zE2TN1vedHnzc6O5qSNAv/62uRnZrNLXUrEtqTem/taXNrq0k+wHY4h9GUNhnBwry5Sqsw11fLAPan/13wn93QTV5fmxH2Zxl8ZCP+szpuOBbYXxSXwmQSCW6+namsT8DJvrEH2NJ0tz3Qn8Mo6oR/K4quS4riXYL/Rx3H650eRfwSfjGL8en+ukZPL3Vb9r5rHMzk9iX9pU22pDbOdGfMeoaDPrS+ocKdH5oCRpI+qQ6sP6cC0xD97653P/W265ZfNkmiPNqbusOYnfwlbYrOpN7c3sza+oq3hDelOaACiRjJ+xAP1M8Mk4xkYyHqRP7Uu0y/6cT/anZMw6f7F/iepjnBovx03SzuN0LZwfol0mDsR2xsmxFMm2PkqNZbvqHdc52K4+tGE2j3OBuJtiOW4FvZKk3j7ie11yndZrdJPoL8TMdWG9fFDnIYk/l4yQ6Ez+QIzdjIfk9bLkk6jTNpnZuy5SbXbql036usaskw+SrMkDH/jArauuumrt0RxXzrx6mm2e/exnn+CmcWPh5uHGcQMCbz5vWDeOFEmdfm5glNaNhQ2ivQJpY78xFGy0S2oMqfpa2g/oEMcRdXX8LK0LcasO1OW4Wa9kjLrW1W+mE/uqyOwYwGNO+/TP4/Ghz2SoPTa5diQwrjsSGnWuj8TY4hjJTJfzqcziuY6U4tiK1LqJSOFhlQds6sarc6kx6U/xGquv9hHWyPsIkdn1kP1gX9pWG9DfUvRPvfU6n7RLG7BPca2op406QK8uBbyOWB+uOT73f9KTntT/57/p7wAsMW6QW9208sYD6nkjQt506NSDN2a+7ZkbIMxiZpnxQF3GgIyzhL4plaqb2cCSvyzF0W+nuULGqPHEtXddXWPbjqeAa0UysZ1oq786y5TKrN/4znUWVxtKEpnJLR8OKbXfhPZ7JeeUQjxFG6m2CMfH+pv0/W0D7gH6ZuBXYTyTvgmeB3OSGkJdvXbiPFKSnGu1dS7aKOqSmU2S5yLja2t/xsDG61d7119b0T5tgTXh+sGHP/HLq34+9+/k30A/ACzwJV/yJR8dN9KzvAHBGy9vQsiblboi9pv8vUG1ybhgn1Lt1VU95LzAvlnsJOdQ+yDj1FjWRb067SVtl6gxZtiXtqwJa5wys0NMFnV+2dY2qe2KPsosXj1/SPbjY+LPOS7NVf9zZRYn52Q7sd/j8RpHTP6KfYm+qc/j5PhZCx6GMvH7qpY1wl6BjKmgk7RTtKm2lZlPSrVJaOMjzlk7+qrYh10+3Ij+ue600bM+CLrLL79867rrrtu69dZblw+uOVacfic2J/nZn/3Zn+YmYgPjyfkBD3jAtlDnlQzJnH5uLBONdW9ABLzJTTjexPprS32pnfZpk9jPHJifr7QyBvOQ6p99WYecf+0zjuOnoKvj7BfMQ6k45qyftsexJB5rHjMi2qTOY02R6ruprZ8x6louras69bUf6lgw00mNl3OZYb/Xn9di/T4N4n2jnTGdD+tLcvdjOH65DuEjEV/1Y5M+xDBujZmgr+K8qIt9YhvRttZnOL+s1+vH8asYM22rTjv1xOaByY8vWeOHPvSh/V/+mtPodwA28MQnPvGjYxM5+S4ANxd1yBuPm8ubtd6IM+jTn9J6+tUYxs34Vdz03FBzPjAbJ5npq+8MbGbz8tgU2RTrbGCsxLHdYFPQKanfLzz2PF+S5yPrkHNBmB8JLt8BQEAfSsW2pF70XyLnKsZJkdR5PF6DXoeIyT/fAdDGMesxIyYwkxhJn1ezef6cT52Heql2aZs+VdBL6mb2abtb9HM9cl1yDM+/9paI60wdsGOdWC/q/Nrf533e57Gfbb3kJS85fWGaY00/AGzgd37nd+7+0i/90u2HgHrTcWOBN2gV8KZV7LMNtDO2OtAG9E1R75xy8/AhwDZ2GQ9qGzI+shuwcwzxGJXUJdnW37EzHsx0kDrHQGrizMSR/Ultz+YAaaeO0nNR69lG8rxAzsd5kgRrwnNc44lxHAvSHuyzX2g7lxTnSl1qPe08Jkq/76LUdwDwmx1rfZuf5J+Jf+mYjImIdqnPUnH+tiXb1rWrpG1lyR4cG2HdvG9pQ64ROH61zzH0Ad6x9Kd+X/7yl88n2Bxb+gFgBz784Q/f/WVf9mXb3wfwxvNmc0MCSuuQfVB9wZvYG35mA+hSr13qLa27OahDxLnmxgLVbob9Hps+M9+0kbSr9tk3Y6lPP8fz+JSq87hn/Y5Rx6p2tsU5ILNzk+ckzzdkTBIhczMZ2k4bxLHAErKOnWg/k5zrkiS2KdPXOsfoA4DXN3WvR+bFcZn0EZM+b+/7ip/jN/G7BlLHXoK+lKrTX0l2akPV5RyTtLNOyfheD3ltEAfJY9deHwSd8RxbX/of9KAHbV177bVbr3vd686cfHPs6QeAXfChD32Ih4CnjRvturzZ6sZcN2vxxq03bN70CjptaOemoJ66ok6BtEkdOD83Fqn+MDuOin4p+tkW6s5Lavy03w3pU32dh2Nkab1ivIxV/VIS/XLtrddzCTWW5ySTP+I49XzNqPqck33qUp8iM12l2nisPAAgee1yHBybb+f7at+3+ZU8do7Z4wdiKY6Zc1AHMx3oi8ziJLUtS3rI+ULaOkYeB8I6qfdayDj2uZ6WSIIf64be5P/mN795ebLNsaYfAHYJ7wKMm/B6b07FjWq2WYE3biZ6dKn31ZJ6RNu80ZG0MX6KdjkOAswt5y/2i3ZJjSOzOdlPmX3IzF6yX6pNUmPUOcNedMZyDmlnnXJJ6nxsE8+YGdvzoD/1vJ4Q+5Akx0mqnrZS26mbsZPtTM/xce15vaPnuEz2vq1POXvFn/eRx+w4CmMI7SXSJzFG9qfNrJ46qO1NZAzXZ1bSX883+pm4tpAlwtpfdtll29/4f8tb3rL7iTbHjr449sgLXvCC68cmdReblRsYJa9s3LyAm5SbkRsVcUNMsPGVErb4uvmBG0FuiNlfb3w3BTcJwceEwlx99UXbWGA8MKZ17XIu4HjpS1/aaQupQ7CbHZNtyHqCbR1XrNe4M9LPY3H9lsYW47rmnAPrM/EceT48BwjrkNdRXUMkqe2ltVC/ZD/zU8ec07/GTcHWB1ofaiGPhWPjGBF1eZzWxdiS7Vkf6J/9qfOYZiJpn6CvOlCXc4dq6zWwdK/ir9Cf/tTz+hLthf+t9KhHPWrrCU94wtaLX/ziMyfbNGv6HYA9cvfgK77iK077OICbkc3Om9J2/v9nHwDw8QZGjJE3sbpK3uRivNwYjKtU6ibr2Dn+zD997KtjIfbPqPqZfY4Dm2LZV31gU5yZ/U7ok77UNwlrbUJP/Sz5q0t9BZ3HkWVK1SXGTLs8hzlm6iFL61DnybEgJnokX/0jtOtxUhqbsb2moY6Zdch+fBSxH0GvbeqrzFC/F1vw2BjbvaAmc9fC9dDfMu3Vac9ass7Ufev/xhtvnE+sadb0A8BZ8DVf8zV8KfB6bkhuZl/teHOiN+nnze4N7EZAmTeyWF/SmUzAGFUyviJZJ44CSz72Q7VRsLE+Y0kPGX+/qONtGl928qnrAOjUWzcJsjF7vtSb+IQ46NnAs6/Grz6WitjmGpDqD+mL7JWMZ3yEY0jh3SYlj7GObZ151+s3+7MtVe+xU3ee6rVFlvTZV6k24jiQ8WznXuFegOCX14joS6ktfsa1H1+E/ksvvXQ7+b/xjW88c+JNU+gHgLPgt37rt373qU996vvGjXwdkjflLMl742Zb0U+B2nZjMHm4WUhuHOmrf46XAjlGQtsYtU/0hSUbMI7sFC/LWredEM+Y9Gf89E9mcWDJvs555u88kNzQkdoPxEBo57mVtE0cmz7rdT61DamrfpRIzq2Ws7lUnDPH4THlcRHH6886ZYp2SfbPfJBql9B23PS3L0WdZB2qXa3XcShN/rwwoLTftXLdpMZi/3APQejLPYX4JH/+v/8P/uAPnj7hplmgL5Rz5KabbjrBK5v8YpNvcXJDe8Mq4E2LAGXdACQ30vzcXn+Efko2hNxcqgC+xlJ8e5ZXZ25GGV+sO0/adc5pL9ohHo/t9Leeeuu2IfuyZJzZ+PuBcWuZc+C4JOdCWc8F50obfDkn9R0AoJ5tYy7pa6ld2lawZU7pU1FHiZ22sMlP0l474yz5p4+krvraThtB5zHan+OpTwFsFKk2ok2uJdAmQZv8OffYcq4V7wnI+Aj+OXfFOPgS92EPe9jW53/+529993d/95kL0DQT+kLZB171qledyM8477nnnu2fLOXG5kblJuUG5oZV8oaGvPktvbkRYpGsTTLpR59jsNEgbhqOhy4xnvNmvpToYTYf4lW0S7BNP/BYsqxjqFMP1LW3XSXJsc+WjJmxjF3jOw/PDVQ76p7zPP+gL2vv+u9ErkmOlXXnhairGMPrBbv0S2xnrDpeor7a1DiUqYfsS7JNvbazTPL4NkF/PTfOK+e9Uyz6sMfOV/78EBL3IX3ef/Whz3kigr1jUTq2cyP+FVdcsfX4xz9+63u+53s2H2DTBP0RwD7w67/+67d97dd+7cmfDXYzp3Sj9sb15s0bGAFtiDGzN5FnkkcPjqGf9dQhxECqjfOoMRP12s8wniI72ee4oD4Fm03MfFL2SvXJONnn2iXONX2g+nmNeL1sWidJmxofaruij3aUeT1AHlPapQ1ke6bPfkkdZY6VVN+sJ2k3s0HH8eUxpiS2qx7Sx1iW9ucY1LlPTf4kavScaxM/51xf7018KGfxtFFHXF75843/V7ziFWdOumk20A8A+8Sv/dqv3f30pz99+xcDaXtje9NSKsCG5+avLbq08ybPm5/NgY3EBwD9JH2ybb2WiGM5BnVjaiPW65iWWYeZnczGSHvJ/iWYu8cxE8j6JmqcnWDOuZEv+aZeH4REMHsAqP6ijceMiPE3kTbWUwd1HjObBL0+2myyh7Sbob+S5FjZn3bZt9O1AbUNdR1c77TFxjbifUqZdZglf8CPuNhlfMczDg8T1Omj/eAHP3j7D/x08m/Ohn4A2Efe//733/11X/d1J98JQEjW3rDAZoG4AbjpW3rTw2wTIJ4PAPThM8NxKlVfx6AutQ3Z1ldRNyNtKlW/dExS7Y2NzOYMqbNe7fRfigEzvfOlT7Gd2PYcIJ53Y0D1sy/j1rptyXbaqM9+mOlz3Jl+Ro2TfjvhOOk7k2TWV3WI5xSZoX7JRn3tr+eNcbz367WELeebe3/ml/b6WCee97wx2AeuvPLKrTe84Q1nTrhpdkE/AOwz73vf++7+xm/8xo+Om/NZ3rCIN3+KmwCl9dwwIDcGNxXKjAnpk/EcX/vaBzmm/ek3wz59l2yzb9YPm/qSmY2+SB4H1OMUjw/0TQF9E/sq1TfrdQ4ZlzqS53AWI5nplsixjLdT3KX+nVjyz3o9dlgayzhV7LNE8rxbgnX663WadlD77J+1K3ksCPdngg4bJO977Zmb9zZt0B7sAxK/yZ+3/h/3uMdt/eIv/uJt251Ns0f6AeA88J73vOfuZz7zmdsfB+SN71t/Cno3gBQ3huxLHeRGkjagvvqAfWBf9U+d4Kek3UxAO9uS/UA7x9kJ/Y1dRZxrUttLvpC2m+xSR5nrWMdLnF/a6FvXo44xi69uidqPb9UZW5FqB9U2JaltmM07/Wci1ilZJ8V2Rf+lfkk7SV3tg3ruEB76KenzwU7Q6aM9yd0HeqSuDX2+44c9ugc+8IFbV1999dYXfuEX9i/9NedEPwCcJ9797nff/U3f9E1PG5vAdSR7kn9+6xe8wd0MFPu84ZEZ9Kc/dj4YpH/iBmN/SurclLSnzM0J6FdkZidpJ45bBTJO6rO0Do69NH5l5l9RV21Fnf1Ldkn2V7/sq/OZ2cCsPfOV2XEaV6nHvUnyHO6G9M327Fqw3zKFa9TrX93Mjn5tKrPjTGY6SD9ik6AV7dMmS+eTc8K2xiTx8yU/P/cnNn/bn7f9H/vYx2696EUvOnNiTbMH+gHgPDIeAD46kv719b/7cCPXxC25WdRNwRLRN2Noj2iHJOr0qWI8HwDAORgb7NMPZn3qZuib9taT1O1km2izZLukB/VL/TOM5zrV9YBaT5HdrJlUv2xX7LNMe0qEcy/qlmR2De1EtUe85jJe2mYd0W6v9inaZDmLW0WwQbiXSdS+StcmzyE67RXjYadoa7In8RuTfuqXX3759o/93HDDDacm0zRnST8AnEd+6Zd+6Xef8YxnfHQk/+3/GcANzBM9wk0O3NyQmwBQz7f5bbtxuInkZgLq1Is2KUt6fPMBwNK52N5E9YVar3Hy+EU75mR7iRpTP/W1L0uodtknMx2knuPIY8k+6rmOS/E2MVunSo3rWK5jYp8y0+X6I9bzWLKsoPdc5Dmhjni9IdpbKjN/pNrVtvbqLWvduWR8+9VRmqBT9IO8b9NHm4wN2Ka98YFYCG3+rz/f+P/O7/zOU85Ncw70hXSBeMMb3nDCjwH4wR3/DKrvDlD60YAbiZuHGwbCRuBbggp6NxE2C+IpxMwNKXFjIiZlHQs/52tpnbi+o+H4oK+kvqIOG8V2lkm1y7Ywb6jxl9Yhmc3dkr5Zf+pzjLQF2rPx0aWtdfTVPu3qOLWdoEO8tlyjpPplW7+cU45XfQUb+9Muy9SDPtZhZpd1yPbMz35LbcB+7wGYxaBfUQeuD+uqeBz01fsL6NcW0HtPa0v9kksu2brqqqu23vSmN60cm2af6HcALhDPeMYzbuWG5mY3KdN24zChuhmIm5CbhXV89XeDIZEj9imCX0r6I7Wd+hqrQjyZ2c581VE6H0X9bqTaMufcRGFpfo67Ce2X7HbSp2+1dV7a5JxBfZXEdu2zPeuf6URdzi3LZNZHXZHUKXl9Jamv9lmK/Vmvkn3AsdVrIsdMHZL3V15bKZLrpp8+CuQc0GHHRwna0ib584W/7/u+7zs1QNPsE6srsTnvvPa1r92+gd0U+Bjg/ve//8mPBPy8LzcHHwgQNwsfFOoDA37EdcPxM0k3E8kNp25cot5NyLkqzBVxs9JemeG4SeoYayYeU21X/U5zQKd/tZfZHGVmL/ghnqdkZp+xZv0zsNt0vIrMdJDzSxvtaj2px+Y8Ns1nk+zGz+NNW5m1LVNf5007ZUlnnE3Xm6Qf/dj63QDvxazTjz+26Oo+QD/1yy67bOsRj3jEdtym2W/6HYALyHvf+97bvv7rv/5p44bnrwievNHdDMTNxIRSNxtw86DE31j2QT44KMZyI0vsqzbUpdaJ6UOIfZRKMtPXuu06tn1I1c/KCnplFjfrtiX1tS+Z2S3Zp41km3WVXAtK0F+RbKce7PNaUJf1TSJLeqhtUEfpcWQ9SdsqUnW1Drl+MBtL0j9B5/3p/eX6J3X9sNEv/TOGPtTtw9d7luTPF/6uueaarZe97GXziTfNOdIPABcY/mfAeNK/nhveVwRuEmwAbgxsBPkAkLjRWHeDcZOzD1/jCX3agTZVL7RrHHTaOc8Zs1jqsi60c6zavxsyvmUVoc4xp1TblCTXQ2a21Q9m/TO/lHpurNcSqNuu5w3U1ZL+XIPZmHWNaNuHVNLOujJD/cyGeVb9Ur1C3+x4Non3lfeox8o8XDOY+SKOR+n9DbneGZf7CB3/1Y+3/fl9/5e+9KXLB9U050hfXBeJO+644wRv4fNFPb5YxxcCP/vZz2595jOf2f6CYH5J0A2kbiiW+da8Nmwy+WVA4iAmazcxBHs2OmMaQ9FOP+PlX0B0HD+WyHnoS1uW6vhijy71gi7nor06yP5K7ctx0FWpbOoT+3L+qUv9JqrPLJ7QVufaQ+qT1Bub81/HmWH/zK7GZS7JJl90im3JY0ibRH3OAdTbJ+pqnTmzFtwTPlgDvlzfxnCdMwbQrx4bRVKfPrQf9KAHbT3ykY/cuvnmm1cdTXMe6XcALhK//Mu/fNuznvWs7b8b4GahCMmNDQfcLKodG0duONaxd0PPzWZW1sSfcRXQRjv89NUPfMgA/elPG0m940DWE/XGzbGMZbxsq6vk8Si0IdvWxba62g+1DTO7JdJ2yafGs13PSeoT2kiexypJ6mf2Yr826iTrgi4lsZ1lvUbSz3rqQB/nVsV1oDT5e53V5K/MxtDOug+q2PGOQn6HhhiMxef9j3rUo7Ze85rXnArWNOeRvtAuMu985zuvH6+c7/LVNK/8eSeA8p577tl+R4A+Ng42CnDDcdNBz4aCsKFQ8oUi7d2AiMOrdOqKG1WNCdkHxMuYCJui7wIQn5I2selz03SjMyYYq4JvxTlQOnbGms09+yH9lOpn3f4k/WZ9ltmX8SDHmlH7Z7GEdupybNbWvtRXnTHSPm2yzP4UMaZxN80h9aAu+2Zkn75Sfa3PfJib16TzTHv1gE/eK+k7A7ucm/FM/AgJn5jcM5S87c+X/d74xjeemmyzZ8a6XzPW+9+um80O9MV2AHjHO96x/XEAm4FJFOFB4FOf+tR2aSJ1I2JDYWOhTsmG5FuWbDAPeMADtjcc7NyoiOEDgMmZOv6SG5fjiRuZY+vnxwE5d+rqicH8sHe+6Z8622K99uuTZFsbSD/Xzz5LyXGk2s98Z/1QYyXVLm0zHtiXZdpDjp39s3FS5/lMsl+0MYZ1mI2ddlDnkaQt5dL4iuPlmFmCttaFOsfMveJ1mXZpS/y8ZujTjxg5B6ltffyWP37cG9wn3IP8tj9v+7/5zW8+NXCzJ8aaXzfW+XfXzWaX9AV3QLjzzjuvHxvNXWwIJk42iE9+8pNbn/70p7dfVat3g8nNh02FTYmkj/idAOpuWNiymSH5AJB6YMNCp41joGccJTdBHixy3ohzNoZjGcdx1Cm0wTKxX1tIu9SpVwfqFY/ZNrbMrUKfaJs6sJ16x65z1T/7EfXZn6LtEuk3I+OA5wH0tS7pk75LYJNxE+dW+2xb5viJvjnXJONqq46SeSGZxKsPGN97BPTHF6GNjf3gnCyxz/uSOjF9MOab/tddd93J/ybc7J6xxreO4kfGefjkStPslb7oDhA/+qM/ev24mO9iYyChskn4McC99957MqnSp7CZgBsNwuZE8ucVB5uODwLYAJsTor9CG9jYmIN66ugUx3IzpCQetiR8PxLwgYAyxwJ8iJXQduO0hKyLc4Hsz5jqZzpKjotSgYwL6oW+6pM2M/uMueRX4yLoWCekYjzJWFlPjCe01eHDeiBJPU/GruMnxlyymenRqWcMZMkf8hg3xVOYD+I94vWrr6VjuxY5F330T/sU1xAb7jvvQ+4Vbeh78IMfvHXttdf27/rvkbF+14/i58c5+exK05wtfeEdMO68887tnY1NhGRJMiX5850AE6v/Q8Aky4biZubm5EMAG4+bkMkaO8SE7MMEsdz0HN92kpsgsSmJp4+JP6WOYRzAV3KspTqkjyzpEPyNkWXq6zzUy6x/ZifaOwdk5pf+6rF1naufsdIeUifWieW5h/RBT9tzjTiG9qCPZJ/M/JLsWxprpzkgXkO1H2h7vFXoY02taw/Gno0xiwNpa0kf9xrvwvH2PvceY9pPH6/8+cLft33bt50++WaRsX7PG2v7s+tmsw/0xXcAefvb3z6u9dUGyIZhEvVhgHcFfCjgIYDECm5MlGw4bDS+8vAdAepugFAfACgZUz11YU7Oy/iK8fQlFvOtyd+2cZDdgD1Ue/WQfcZOHXNL+6wLOqWS8YhlPER9HRM8L0jGR3J9E2zxy3XVNscwTsV+qLEcl9I+9Yr+lOok+yro1OtjvBT12jgHUIcdeu3Ftci4oo/XJ3XF/hTJuYBt7YxhXRvnoS/jcq/xHRy+2MdDAPZc+whzIvnzmX//Od/dMdb2aWPd37tuNvtIX4AHkNtvv/1po7hlbBxc+NubDEmT5EnS5yMBHwIQNhZssIXcsEzQvgvA5mSbzcrYKSZ/4lIXbBHIDdYxGNdNEX+TvQ8EtBHnC855idqfbTdeN1/7sqz2knWgzZwynhgnY7kWeRwzO2CNUmd8x0R28tMOH22RTfPNeuocdzexoOozVlJ1+mhf/WrMysyHOn45f/UIa1aTv33aVXIeifoaB3F858CY3mN+/8b7i2uee4C+hz3sYVu33HLLmZNozmCsbX+x7zzTF+IB5kd+5EeuHxvPXdTZQBBeVfO/AvhiIA8BfjSQGxKwKblxuSH6LoAPAmxY2GXiJ47J343LuAj9bniUQD3bgK2+zru+I5Bx9RFjUXIM1tXrVzfiJGNkX8awJI6x1FX/jKE9AtVG/yW99Rwz7aqPto5nQkpfSd/UJ/pB2qReHF8yfqIu7b0Gq33abIqHzOxSZ8k4PozW61H0q/62IWMK9bTVnnHy4Zo68+A8eZ3T5v/483f8X/GKV5w5qeYkY135Yt+7xlr//kpzzjxlyFeuqucMDyP/cFU9GvTFeMD5oR/6oe0vBlJn0yGB8qq/fjHQV+s1obj5slHlA4AbFv3YZ7J28zIuesTkQzwk244D1AUdvj4AEE/xIcA5pzhGxrYO+qQvWAL2lvoZxz7Ap65dxoH0sQ97RLSx37Z+ibqMkfbpQzwk55f91S/7RL9NzGyM5RzqGLP5iHaeP20p81jy/CbZzrET28QwGSPUwfXFP0Vm8apO++yjZEyTv2Niy7WEYMO7AQ95yEO2f9P/xS9+8emBm5OMdXv5KH5qrNmnV5p94XuG/OCqui/wWev9h5x6W/SQ0xfkIeCHf/iHt98JYHMhcZJI/fzfBwLavmJ3w3OzYqNCeGWUr1Qo0WkH+CEkZxO1m2jdTKkDsY2B3vFSbzxL5krpfKvgV+efOufgPCjFurb6IRkHAWMgUOMl6LMvbTMm1DakrbGqP3NM7E/bRL+UypKv1L5ZjBpbH/X2pU3qwXnUdctrBb1+iO0Z6PEl+frq32TMGFxvXGOOC5Zg3FrCbI7ERagjjFWTPyVtvgdA8ueVf3/Zb85Yq78+1vbvrJv7zT8f8tWr6r7xhUM+sqoefvqiPETccccd148N5q5MojwM8JEAHwf4vwJMqgmblRskwgaVb1m6ubHRsYHhT5wUxnVDRbBzY9QvdW6UgB4f4zJ3H1hmgr0Yz7pg4yad+gp9M0mIkaIuYay6rmmfMWdjQMZGjMfxuY6zuUnWRR/9qj84HmT/LB7MYsz80M3mnnFTp3jeIH21lSU9vujw5TpLQQeMkdeSY8um2J7rHMeHC985yzHB8bDnC4Akf/6oz0te8pLTB2hY1wvxxb5/OeRJq+q+wd9m/r9W1cNPX5iHDB4Cxs2z/YNBJlFe/fulQNok6dzAwE1Moc3GlQ8FvpIRY7ix+QqeOmXGBm2NjVC3H/BBajxjKrSxIx5lxrG0DzgmsE+9pD9kO330q/7gOszAPuNAjpc4Th7b0lrtRPXZDdjPYhvHmM5zE9jlNVX9aINt+6qNMRLjpegD+ijaQB1DckykjqkP58ZrHDvuDxI/b+kj3CuOhS0P4tx7xLv00ku3rrrqqq3bbrttbyfmGDDW88lj3e5eN883+/0A8K+HPGFVPRr0BXpI4QuCY4M6+cuBJH/eCWATyncBTDIIWEfYwPIhgA3OVzdubtq6IZqcjZ/96vAlBrHrxmwfPhlLQedDTOr1Fcc1toIOnBswnqQPZB30qaDPmJC+xtUOAfvtE+2AvlxzSFvIPqBddfpQ2kdJ275cC9BOH0SberwV7VNg5pM66h47YynGqHOxXlGf/Zvmm33Y1zHtZ2553XFvkPR5Vc/b+twjwH3mR3HUsXvoQx+69ehHP3rr1a9+9ZkTPsaMtb0Y3+ifPQC8e8jbVtUd4SJNed+Q/2fIkaEv0kMMXxAcxfZHArwC8TsBJs8sfShA3NjdBE3UvKrx1Y2bY4JfJmY3cer50OGmmhussRyPNnNwLsZ0rpRZdyxsFchxkpxf7ZOcExgT0mc2pqKvbWycu/rEOLO5GQPqWIm6amtsyDVhLMebrVViv7GMB/rN/Gtc/Wb+xqXNteD1YL/1FPViDKl9sGRvzJwzfa5T2nEvkPj9QR98uCb5Ei4P3NSx4Vv+/N/+7//+7z816DFnrOPNo7hzrOPF+qnepQeAZ6yqTV+sRwC+JDgSzl0mYYQ6DwOI/1OApGT/bDNkI/Z/CPhQoAi+NSE7HpJ6Y0MdJ2Niix9x3IRNoh6HY3oMkDGti7Ek+/LYE+yNY58lPnlMiuvjHLBhzsyz4nE6vtTY9ttGktSlrTgXoJ8xHTd9YSmObVCXfpDx8hzoS5n1XCewnjpjiG11GW92fu2HmU/GY1xwfbyufDeMV/sID8XoOK981MZ/wSX5Az/ny5f8HvOYx/RP+q4Z68z/XPrpdfNi0g8AO9AX7BHhbW9729PGJnbLkKexkZHwFR4A8t0Bk2lulkBi5tUMmx8bHoIuEzY+NbnSJiYbpH01dm66uflWO/UZk2Ng7tRNrumXcYE+BXLs7Ev7nLP26Qcec+1zbAQb5p6xZLYujm1s2oix01/U5RgpzjdjGxf0B+u1j7b1tK94/Fwj2Bknx7PMa0nbjE19NlbqjAWOMfOppJ3j5LogzI1r37f6TfzY+T0bhPNLH2/384d8+u/3rxhreNB+se/DQ75kVT3JPx3y9atqcxAvXH644duHXDXk3iH/fsh/P+SfDWl2wP8pQKI0aZJA878NmkRNDgiwKbI58xCA+ErIBwE3UDdM6/izKWZcbRA3XP0rjos4FjGIRVzm7H9zdP7oc+4mFXB8xzS22GfdONRFXxMWfdrah+S4oN1Sn3rbxszj0U6hPUN92ipgrCr2J+kntvERdZQcB1KTOjiW0Jd2kLZS+xJ11cZ2MtMJfrnOzIt3vUjqvupHB3n/UEfPl/we/vCHb7/l3/+3f3s9v2qs42+umweJfgDYgYN08f7ZIX9rCD/eUHnHkBtW1WYvvPWtb71+bFx3sYH5vwTyFTVJNpO2GyKJ2AcAHwLcvN1cLU1cGUupm7RtS8hEwoMHZdoxz3x4Yf45d5Kn88I+xyXW0rwh7fURffAH7MQ+RYzhMWUfuLbGdHyOx/g5H+NZQtalzkMyjpLolyKb7Jk/x+L6ejyiX41ZmY0hS/rE+MjSmOhn59jrm8Sv0Pb6ywdO/P2sn2/433TTTcsHdUwYa3TQf6q3HwB24KBcxM8Z8uYhj9lunck7h3zHqtrsFf7M8Eia2w8BvhNA6YMAkg8BYKKqDwBVwI3VV7HUKWkjxgRt1bFRE4fShIKA8YnFHInFZpxz9mEAclzqxjY+UFqHnEvOyXplKU6FPucP2rOOvrsCjOO6Zbuej5wP9WzXuVCvfvoo+rg2OVdhfOdlfG0Rz1X6Gx+W9KKOMbB1DKi2Fe1n8wZjeQx5HMw5E3/+OBZ9jO21heCLDcn/EY94xNbLXvay5RN/xBlrc5j+Bn8/AOzAxb6Qrx3Cq/7/aru1zI8Necmq2pwrt9566/X33nvvXTwI+BDAhoeQTElAbKxsiCZ/N1s3feqKG3lu2myaxDMZ20dZN2Rjp2QfpJ/zTKEfPceCjeOBMaDW064y68s5QdZ3GpMyHwCw95joQ9D5AEA9RbIOGd9Sm+pnO9e6+mvn3MA+wCevgeoH6NJHfaI9MrPPdqItY4vx9aHt/KkzX9fe6zofALzGsed64t0y7g/gfwDwef/rX//6+YSOAWMND8oX+/ZCPwDswMW8oPntZ17132+7tZkfH/LiVbXZD974xjduvyvgq2k2PUpf9YCbpZuqG34V0Q7cgH116wZNqU7wq5L6HAOIQYI0vuIx2Kdg7/hgO8fJUtKn9lWftK04FsKxkIyo6zOLxfFQKpJ1SX/rsGSLMA/rivaOibh+6vVVaNunHaiXnfpSZztji/qlfuopzJFr2ERPnfWn9It+tDlOEj5f8uPdMdafPhI/3/I/rp/1jzX85rHOv7BuHjZmDwC/MuQ/X1Wbi3FR8yU/Ev9f2G7tjp8Y8qJVtdlP3vSmN50wcSJ+VwCdm7y44SP2Zds6ULIBs7GazICSdk0skL6WVZxP+hqLuB4HdR4EEMdLO8ql2GD/TizZ4J8l5FiJbfvwyfWR2ob0layLsT1Peb4QYjsu2NCSeC4AABlzSURBVFZnXV/9ZxhP9AXHm/lq4zg1TvoiSZ2jST5f6ftuVr4Lgy2Jn//Xj3Dd86DAn+3lD/i89KUvnR/kEWes41PH2rx/3Tys9APADlzoi/utQ25aVad895DbV9XTeNcQ/mfAgeL5z3/+k3/mZ37mQv2s5XmD3xEYSfMuXvmT/P1Z4dxUk0wAiO0U9IAvCdc6MVPUOYYxE8fIUr0CxDDpE5MHATZ3HwJ8KPCBAHvjKbN5WIL9kn1SbbKdcTfFqn1LzMaH1Dum50bRhrFcD2WmB2MpVSfagzGqnaW2tUxyzvpBzg89SZ1Er/j5vmW+++IrfhI/1z79vOIn8d94442nBjlGjHU5Sn+Dvx8AduBCXuQvGPJTq+oZ3DnkZUN4+XHm3b+19ZNDvm1VPTg85znPefXP//zP/8C6eejhlwXHpniX/9+ZTdHEibjRgpswJZsqm7OvunxlZb8+lCbfWmoD+qZutvmjYyz7AB+EmLya4xgoSfyUjGcdm9lYjmNfjY3M+iHjSI09Y+aH7U6+S2Praz9r5Dp5vhBs8hwoUEtjUVoH26lL9Ifd2GQdnLclYJPzMvGT6JHaNvFz3vMhlza2/pLfzTffPJ/gEWas42H6Yt9e4MXZf7qqnuTfDOHPq3/ukEuGPHDIfYd8fMgnhvzfQ35jyL8YcuS5kBc7r+y/a1U9yXuGvGIIT2py+t2/ggeHv7GqHhye+cxn/vmxifzOr/zKrxy1G4eN8ASvoNkgTaImT0pwA2ZjZoN10+UhwASDCPYkGpNNvjKnbTxJHZu3oo7Y+QBgKc7XcaxzLAh1YuWcJOM4D2zAeSjq0n+vVF/jqs+xltg0Pr6ejxR8WBuPP9ehjrc0B/Wb+jfNLUlbYxm3xmH+vs1voqet2AbON6/0/RU/jpP+yy+/fPvtfr7df9z+ZO9YS35K/BfGut6z0hw5Zg8Au+XTQ35xCB8//yqKo8iFvOC/b8jrVtWtPxjyvUP+u+3W6cx2Cp7YXriqHixe8IIX/MW77rrrn6ybR4rXv/71278hwFulJkwfCkzc1NmY2WhJxm6+PBAo9IOlZFJmQ1bAzd42sOGrB+rEV28JmdwAvfN1TMf1WLB3TMsUxyU2ENPxwP6qPxeIaayluI5bST1+ro91j2N2jJX01cZSPVKpfdU30SZ91CXMhaTvZ/teb1x/ijrOt4mfV/ycZ3z4Cd8rr7zyuL7i/5axrn933TzKnMsDQMLPB/M7NP/HdusIcSEv/m8ecseQvzOEB4Glv6o024H47yd8hNBcYMYGuf0QwMZJgmBD5SGA5Mk7AwibtImezdlX5ejUU6JLIQkQx9gmZTEpCT6ZEByPsgoQH3Fs6iZ64tZ6Ss7HtnMxvjjObA5J6rQX6lVHW9RnPzg2zPoAfQrkunFcGcdSsMm11xZRZywk++o5Q29pXfTHp/qp41zyyt1v8JPotU0frlG+0MqrfR5ggZ/4JfHziv9Vr3rVqeDHhLHeB+2nes83vzbka1bVc4Y//sD30PhV2iPDQbwJTt8VVvw3Q3i7qrkI3Hjjjfwf4LtI7MDm6kMADwRs5CZM6mzEbu74mICtIz4kmHz0N9lSGg8o2dwV2NTGXt98AADqom0dG+HYENv2Az7O3biObT2pbUjb6mfc6pftHBvS1xJdCmS7xgD9QLuK60Af65k2xrNP1OeYloCt58pxjcH1QrL37X5KxPjE4fz4xT4/38fnQQ960PaX+3jF/13f9V1nHswRZ6zNUfpi317grxHysfPDh/zRWvicX7lsyMOGXD3k0UN2ghetXz3kg9utI8BBvBlO341W8K7Bf72qNheLm2666QQbLhsrUPchwIRpkkQPbOhu5CZ+N3NKN3hKNnH89M+kbLJN9AP6HEdJnVDHT9HOhAaMqTiPnIvzXJob9Rw7x4ds289cxFj2ZRtsO45kf/rMxD7s8tgl7cR2xs5zALNxE+fmmMbwmsh1oC+vGW38bB9bzgMPo/nFPnQ8HPD5Pp/tX3311VsvetGLTp/IEWesMV/s+8mxhr+30jQ7wO/R/Lkh3zKEV/qfM2TGbw+p/7Pg0HIQb4pTO9op/tshf31VbS4m1w/GpnIXb6eyCZP03cxJiL47QJ0NGnHDZ0PPjZxNmhLxQcFYlMQ2lgnXBIIAPtQpEWDMbGujD/2OB+kH2iKM6bjMyXY+AOTcKPMBydiQdak2SfW1nfNDoPYJ8Wdj5LFyDPpQOlb62DY+ddYw40iOlyXCWAhgx7n3FT3XBdhvfMQHgbTj46dPfepTW5/85CfP+GIfv9fPt/q/4zu+4/QDP+KM88APrN011vpTK01zFjxyyC1Dlv7rOf9d/W2r6uHmIN4cp3aSU/Blwb+2qjYXm+c973nXj432LjZ9Ep6bsn9ngI3YDRsbEqQJwsTLpu5fXtMfcdPHJh8AqBOH2LRNuMbF3jJFHXYmlmqjOK4C+oAxFBM/oo6kxJyNgU6InzEcY3YMibEQbLWHrEvqGNPjAvvQgfFSIMes/ghtz5VU+5S0A3w57yZ/rwtwDoKefh4WiMP68mqfxM8X/DgPxOHzfd7q5y/1Hbf/xz/W7DD+VO9BhyTPf0+v8HHKbj4yOPAcxJvkzB1ta+tnhnzrqtocBF74wheeIPGxMZv8+aY1m3f+OdVM1mzUvjqm3y9ysamTBHxXgXiU+Og/i0Mb0Cm2TTySNqnXjjnMElfaJCRw54PYZm6INtTpNwFSR0cfdY8LsEEHOfYM7JA6N/2FPo9Lqo2xEB9MXA/FcbQD9Jwr+0Ffzi+i3jg+6KXYZ2zXMdeFWLS5znyrnzbXj/+VDzluf6hnrNdx+2LfheT+Qz465Mrt1uk8ccj/uqoeXg7izXL67rSC/7Ly/FW1OQi85S1vOeHmzaveP/7jP95+NcYrMZK3m7ibum/XsoHjkwmDzR0/HwaIyx9goTQhYQPEMrGaRK0rJg5wfGWG81FyfqAOEWNp51ws1TEX2/Yr9OWDDKAH4uoHGSPr2CnqskTv3I2pCHXGpUx71lw/k3n6cn4419lH3Yc4daA+X+0jxAfGZy24ThDOqf3E4FW//x0VPdcHif8hD3nIduL/9m//9oO4l503xpo8eazDof8V0kPA7Pdr4Eh8DHAQb5pTO9Mp+K8XfDmjOYT82I/92AneHfjEJz6xvYGz2fMqjocBMQGRDEkQPBCw0aPznQLaJh1t9aVOSaLwwSP1tBGhTjxFahtoZ5Kzn9IEWUGHOAfHdh71oUU9gl+1yf4ZziHtTOI5d0WoEx+wV7Cv/gk6zgWiT+rAsfCt9vYzNueMV/QISR499tjR7znkvPOLfbzNT9I/jn+gZ6zNcf1G/8WC35/hl2gr3z/ktavq4eUg3kCzHe5nh+z0J4ObQwQPBbzSAx4GeECgTQLwm9w+LJD8eeVIQuBjAh4IgDZ6wJ5EQWnitG2iQagjkslIqckOm9RRT5n1mzQz+QN155IYC8EGPxIjJaIP/Tln+kA/BRuSLUmTOrocs9o6X0UdJW2xL8XErj3kMepPHzYIfZxv3jVC8rsjvoNgfM63P9xz3L7UB+Mc8bspbx/reOR+cfQQwP8M+MCqehoH8u/T7JWDeDPNHgD+3pDnrarNUeYd73jHiT/8wz/cfijgm90kB5IcSQQh4fsOAInhkksu2a6TPDL5mNzwpfQBQbIOaYuI4yJJ6u2zZB7UjaWNbeZH2wSHzJInc/YjAtqQsbWjDo5lvJqUc3wkbanDTAfUZ21sFTB+jmXduNT9zgjnmePzOyCcU+q8A+Tf4T+OSR/GOvUX+y4+/Jb0f1xVT+Onhhy4n6ffKwfxxpo9APzckOeuqs1xgXcJfv/3f387WZAMeRjgVSNJBUgmPAxY550CIYGgw9ZkT+IBdMQT2orJVluTnMlPPZgExSQo2CJpIyZN5ojkGMJcfHAxDmJcBew3pvEofTXtcVMCOu2AUl/JPsi1Edro7UOW5o0e8d0d5kbi58d6eJijTvmSl7zkzEU7Jox1+stjvf7RutlcXPgvgb+/qp4Gf9n2lavq4eUg3mSn7y4rfn7IX11Vm+PKW9/61hMf+9jHtt8a95vgJBXIJEMSI4nQJtmQZHhQoJ2JikRHmQ8IJihsAB9JXepNouqIkyLaKJmAq56S8XwgqdT4+ilC3QcAjiuTctrl2KJOHI/5ODfXCj1tErvj4OsDWh4HD2eXXnrpdtI38R/Xv7ufjDX86rFm/CW65uDw5UP+l1X1NPj8n+8BHGoO4k03ewD4hSHPWVWbZmvr9ttvP/Hxj398O6nw+TEfF/BgADwAkHx854C3knlbmTqQ5Og3aZmoKP3cHUx2tPGlDcSnjlAnweIL2oA24JjaUeY8bKsD/Y2RJWLi1dfjNibYB9gj2mzC/rTDl3XIjyUch3VD6Gc838an7nry9v4VV1yx/QW+V77ylZsncIwYa9hf7Du48Efr/taqehrPGnLo36U5iDfhakc5nb8/hD8m1DRT7rjjjrGPrpIiiYgHAj5jJvmQGE1QJm8eDuzzewUkNsSkTt3/eoYPydAxTKQkOWyJRTsTuAmSfmIKNgr9qdMXvX2QbUrnQD3jJdoTU1twHNomcvVgfI8HSOx8/ILQzzEh1FkfEz8PW7yq5618+9Gj4wd6jtuf3F1irMtR/Rv8R433DXnqqnqSe4dcMuTUDXpIOSwPAP/DkP9yVW2avXHnnXee8KdiSUi8c8BHCSQ4XpWSoEhgPBRgw8MAidH/jUA/go4HAkqSG3bofXCg7YOEDwQkfnTA2D5c4Fd12Geipk0dnQkZ0BEfIQ7+lOiVtNWfOnba4o8enA867YhLHI7Zd1P8sh7ft6DfsUj8/p/84/gHd3bLWC/+qNnPjTUjiTQHm9uGvGFVPY0j87/SDssDwD8Y8ldW1aY5d97+9refMDGT4HylTwIk0fmFQ98dINGRBLFDhwA2PCiYjG1jrw11+oFYJEzt84FAG+raMBeSNDptnCftfJudcfSnri+xEO3U0WZ8wB5Bxxz9USbG8vhI8vx3PD6/x4Z+HqBI/Mftj+3slbG2zxlrzneZmvPPY4Z87pDf2W6dHd8w5J+sqmfwlUNm3ws4dByWB4B/OOTZq2rTHAze9a53nSBBkmhJ/Dwc8GNHPCiQHEm0+WBBiQ57ki0PCNiZlMGEjC0C2JCwHQfffAcCX3T4Gg9bSux4SMCfNkKdxO3Dg2PT9pv4xAb6sOeBgLfx+9X93hjnpX+q98LzK0OePuRXh/zQkP9xyG7hrX3+oNKNQ65AUTgS//9f+gGgac4TP/ETP3GCV89AyR+v4eGAZE2CJWHzgOADA0Li5rsKJHra2JGE1QHJ2ARNQveBQH/sTNokc8ZBTxz8SP6IDxv4kvhvuummTu77xDgn/cW+i8dHhnzBqrrNHwz5xSE8CHBO+BPJfveCz74eN+SxQ54yhOTPQ8CMDw55xpCPb7eOAP0A0DQHhB//8R8/wUcPvPInKZPASdroeEhAR+LmnQMSPw8F6BDAjwcNHgTylTx6HhJuuOGGTvDnkbHG/cW+g8G/GvKEVXWRe4b80RA+LtgNxCT5z34ToNlHeACowncAmqZpDhwj8b98yKXrZnPx4UvjszxytvKPh1w1pLkAzE5APwA0TXOgGEm//0LpwYRX9fzX8Vku2YvwDsEtQ5oLyOxE9ANA0zQHgpH4n7auNgebLxrCf+P79SH8Stgst1ThSzu/NORYPNz1dwCapml2wUj8/cW+ww3/fe/xQx4+5Mq1fGbIJ9byoSHvH9JcROoTGdLvADRNc8EZSf/WIdesm03TnGf6AaBpmovKSPqvHnL5utk0zQWiHwCaprkojKTPT/U2zbHgQn8H4OuH8PkL/3EZOfUXUk7xznWZ3D3kbUP4abTV76WeDl/a+NSq2jRNszdG4u9f7Gua88iXDpm9ut8P+c0hTdM0e2Ik/ievq03TnEduGDJL3vshfzKkaZpmV4zEf9262jTHltXfAL0w8P8wzxerv5rSNE2zwEj6rx+y/cW+/u98TXNheegQPqefvYI/V7l9SNM0zRmMpN9f7GuaCRfjh4Duty73k9WfSWuaplkzEv+zxit9fkSsaZqmaZqjzkj8X7OuNk3TNE1z1BmJv7/Y1zRN0zTHgZH0+ane/sW+pmkODmNTeua62jTNPjPur+uHPHDdbJqmaZrmKDOS/nPX1aZpmoMLr1LW1aZpzoFxL/Xf4G+apmma48JI/P3FvqZpDidjA3vNuto0F5snDOEnuf/+kN8e8ntDPjPk/x3yySF/MOQfD7l1yFcPuSiMe4Yv9j1y3WyapjmcjI2sv6HcXGy+ZcivDpn9iuYm+d+G/JUhF4Rxr7x8yIPWzaZpmqZpzhL+Aid/KXOW3HcrHxhyXhlJ/6+tq03TNEeLscFdu642zYXihUNmCX2vct7+aM64L/qLfU1zEbkYfwugaZrzC4mVt/yX+OCQ9wz5t0M+OuS+Qx6ylqcM+dohlwwBHgAevaruDyPxX9d/ja9pmmPD2PSevK42zfnkmiF8uW/2av7nhnzVkN3wDUN+YMht2619oN8Ja5qmaZrzx/uHzJL/y4dccEbSf82Q/iJs0zTHm7ER9meezfnkh4bMkv/fGHJBGdd6/whW0zRN01wA/pMhnxhSk//NQy4Y/ZDbNE2zwNgg+788NecDXuXX5P9vhlwQxnX9n62rTdM0TdNcQP7ZkPoA8J1Dzisj8fdP9TZN0+yWsWlelC9kNUcWvtlfkz9y2ZB9Z1y/twzpL/Y1TdPslbF59s+dNvvJa4fU5P+Phuwr47rtL/Y1TdOcK2Mz5Q+uNM1+wP/vrw8A3zFkXxjX6rPW1aZpmuZcGZtq/7WzZr/410PqA8Czh5wT4xr9C+tq0zRN0zQHjEuH1OSPPGnIWTESf3+xr2mOAf23AC4ibLT9m+jNOfLnh/A/ACr13n7skKcO+Yoh/u7//YZ8bMjHn/vc51734Q9/+G9/5CMf+aXR5gGiaZqmaZoDDL8rUV/9m8AfNeTVQ/7lkJnNTP7DkDcN4Z2Fpmma5nxxon85rTk3+L/+NYnfM+TvFt1ehV8V/ItDmqZpmqY5gLxuyCyB75d865CmaY4g/R2AA8CJEyeee5/73OfvrZtNsxfeOuSmVXVH/vmQ/3PIvx/CuwT8HsVjhvCnfx8wZAbvBDxxyL/bbjVN0zRNcyD4iSGzV+7bcskll/zyKP+LIfcfsgTJ/yeHTGMMedeQpmma5nxwon9lrTk7fmbIGUn7vve973tG+WVD9sILh5wRa8hnh9x3SNM0TbPfjAeAB66rTbMXZu8A/KshZwsfRdV4yF8a0jTNEYK/Id4cAO5zn/t8djwE9M8DN3vl3nWZ/Jl1eTb8wLqs8DsCTdMcIfoB4GDxI+uyaXZkPDA+eRT7/QDwL4bwuwEVvizYNM0Roh8ADhD3uc99PrmuNs0iI/Fv/1TvuF7uHsXsAeDPrsuz5Q/XZdLvADTNEaMfAA4Ybu5Nk4zr4rVDtv8Gf/n56NkDwNXr8myZPQD0OwBN0zRNc6EYSX+n/x3yl4fMvrR3Lgn7bw+p8f73IU3THCH6HYADyNj0+QMvzTFmXAPfRDle7f/0tmKZ316XlXN5y/7R6zL5o3XZNE3TNM1+MxL/V62re+FTQ+or9tcOOVs+NKTG+wdDmqZpmvPNSATPXlebY8A43+fy3Y9fH1IT9j8dcrbMHihuHNI0TdM0zbkykv6tQ7a/2HeOvHNITdj/35CHDtkrLx1SYyF/bkjTNE1zIRjJoX8e+AhyHs4r3xmZJe29fgzA7wf8wZAa5yNDmqZpmqY5G0bi/+Z19XzAD/jUxM1/5/u8IbvljUNqDOR7hzRN0zQXkpE03rCuNoeUcQ6fuq6eT/iMfpa8/6chnztkJ5b+GuDHhjx8SNM0TXMhGcljPz4jbi4C49xdyB914vN+/tb/LImjf96Q+w2pPHMIfzJ45oecz3ctmqZpmuZoMJL+fn2x72zgi3r3DJklcuQ/DuHz/N8cwkPBfxgys1P+5pCmaZrmYnGBX0k2Z8E4R9cPuXTdvJh845BZMt+rvHxI0zRN0zQzRtL/lnX1IPH0If/zkFli30neN+QZQ5qmaZqDwEg0X7muNgeAcT6etq4eZJ41hLf7Z4k+5TNDfm7I84c0TXNMuM+6bJpmF4zEf135a3yHgSuGPH7I56/Ly4bwXwSRfzfk3UOapmmag8ohedV55Bjrzhf79vL/6ZumaZqmOayMpP/qIbxabpqmaZqLy0hI/fPA55le46ZpmqY5RozE3x+xNE3TNAeXkaj6t9n3kbGeT15Xm6ZpmubgMhJW/zzwPjDWsX9gqWmapmmOAyPpv64foJqmaZpDy0hi16yrzS4Y69Vf7Guapmma48JI/PwaXtM0TdMcHUZy6y+vLTDW5inratM0TdM0R52R+PuLfU3TNM3RZyS8Y/9/18caXMy/wd80TdM0zYVkJH3+Bv8D182maZqmOV6MJPit6+qxYBzvX11Xm6ZpmqY56ozE3z/V2zRN0zTJSI4vX1ePHOPY+ot9TdM0TTNjJMlL19UjwTie/mJf0zRN0+wGkua6emgZx/Dyo/Yw0zRN0zTnlZE4r15XDx1j7sfqi4xN0zRNc6wZib+/2Nc0TdM058pIqIfiC3OHZZ5N0zRN0+wDI/H3XzFsmqZpmvPBQXtbfczne4f0N/qbpmma5jgwkn7/Df6maZoDydbW/w+2MVyIGEzkBwAAAABJRU5ErkJggg==;" vertex="1" parent="xKThNgZ5X1bcwjSUUy2J-5">
          <mxGeometry x="310" y="-28" width="146" height="146" as="geometry" />
        </mxCell>
      </root>
    </mxGraphModel>
  </diagram>
</mxfile>
